<svg width="294" height="273" viewBox="0 0 294 273" fill="none" xmlns="http://www.w3.org/2000/svg">
<path d="M146.606 273C227.574 273 293.212 239.398 293.212 197.947C293.212 156.496 227.574 122.893 146.606 122.893C65.6377 122.893 0 156.496 0 197.947C0 239.398 65.6377 273 146.606 273Z" fill="#EBEBEB"/>
<path d="M230.185 246.398C252.245 246.398 270.129 235.351 270.129 221.724C270.129 208.097 252.245 197.05 230.185 197.05C208.125 197.05 190.241 208.097 190.241 221.724C190.241 235.351 208.125 246.398 230.185 246.398Z" fill="#E0E0E0"/>
<path d="M135.365 177.449L109.77 162.677C109.345 162.459 108.875 162.346 108.397 162.346C107.92 162.346 107.449 162.459 107.024 162.677L22.1923 211.662C22.026 211.718 21.8815 211.824 21.779 211.966C21.6766 212.109 21.6215 212.279 21.6215 212.455C21.6215 212.63 21.6766 212.801 21.779 212.943C21.8815 213.085 22.026 213.192 22.1923 213.247L47.7814 228.026C48.2076 228.239 48.6776 228.35 49.1542 228.35C49.6307 228.35 50.1007 228.239 50.527 228.026L58.0882 223.658L127.798 183.518L135.371 179.065C135.543 179.01 135.692 178.901 135.797 178.756C135.903 178.61 135.96 178.435 135.959 178.255C135.958 178.075 135.9 177.9 135.794 177.755C135.687 177.61 135.537 177.503 135.365 177.449Z" fill="#E0E0E0"/>
<path d="M250.424 212.547L246.469 210.446C246.469 210.446 246.856 191.135 250.86 176.178C254.964 160.865 266.904 143.949 278.188 150.288C289.471 156.627 269.417 169.655 263.385 182.228C257.353 194.802 250.424 212.547 250.424 212.547Z" fill="#0071CD"/>
<path opacity="0.15" d="M250.424 212.547L246.469 210.446C246.469 210.446 246.856 191.135 250.86 176.178C254.964 160.865 266.904 143.949 278.188 150.288C289.471 156.627 269.417 169.655 263.385 182.228C257.353 194.802 250.424 212.547 250.424 212.547Z" fill="black"/>
<path d="M249.902 207.965C249.85 207.963 249.798 207.951 249.75 207.93C249.702 207.908 249.659 207.877 249.623 207.839C249.587 207.801 249.559 207.756 249.541 207.707C249.522 207.658 249.513 207.605 249.515 207.553C250.363 177.584 263.464 159.286 274.429 152.726C274.52 152.672 274.629 152.656 274.732 152.682C274.835 152.707 274.924 152.773 274.978 152.864C275.033 152.956 275.049 153.065 275.023 153.168C274.997 153.271 274.931 153.36 274.84 153.414C264.048 159.87 251.155 177.928 250.314 207.571C250.313 207.624 250.302 207.677 250.28 207.725C250.259 207.774 250.229 207.818 250.19 207.854C250.152 207.891 250.107 207.919 250.057 207.938C250.008 207.957 249.955 207.966 249.902 207.965Z" fill="white"/>
<path d="M252.212 213.468L248.68 211.656C248.68 211.656 249.116 202.172 256.382 189.814C262.832 178.838 275.903 170.238 281.394 173.303C285.657 175.674 286.64 180.871 282.555 184.329C278.47 187.787 259.613 195.041 252.212 213.468Z" fill="#0071CD"/>
<path d="M250.793 210.44C251.407 210.563 251.622 209.046 251.745 208.659C251.978 207.934 252.224 207.221 252.494 206.509C253.023 205.123 253.624 203.766 254.294 202.442C255.584 199.897 257.095 197.47 258.809 195.188C260.411 193.052 262.157 191.029 264.036 189.132C265.731 187.426 267.515 185.811 269.38 184.292C270.94 183.014 272.561 181.804 274.226 180.668C275.455 179.832 276.683 179.034 277.967 178.285C278.636 177.891 279.306 177.504 280 177.148L280.196 177.05C280.306 176.996 280.39 176.901 280.43 176.785C280.47 176.669 280.462 176.543 280.408 176.433C280.355 176.323 280.259 176.239 280.144 176.199C280.028 176.159 279.901 176.167 279.791 176.221C279.361 176.43 278.95 176.663 278.563 176.896C277.482 177.511 276.425 178.125 275.387 178.813C273.847 179.808 272.344 180.86 270.878 181.97C269.06 183.346 267.314 184.806 265.639 186.349C263.73 188.098 261.933 189.965 260.258 191.939C258.443 194.068 256.8 196.337 255.344 198.726C253.796 201.255 252.5 203.929 251.475 206.711C251.282 207.248 251.098 207.782 250.922 208.315C250.664 208.846 250.507 209.421 250.461 210.01C250.469 210.103 250.502 210.193 250.557 210.269C250.613 210.345 250.688 210.404 250.775 210.44H250.793Z" fill="white"/>
<path d="M50.3489 195.705C50.3489 195.705 50.4472 183.659 45.7115 173.69C40.9757 163.721 33.568 156.977 26.0559 155.435C18.5438 153.893 11.6152 160.097 19.1089 165.877C26.6026 171.657 40.3676 178.346 44.7655 197.068L50.3489 195.705Z" fill="#0071CD"/>
<path opacity="0.15" d="M50.3489 195.705C50.3489 195.705 50.4472 183.659 45.7115 173.69C40.9757 163.721 33.568 156.977 26.0559 155.435C18.5438 153.893 11.6152 160.097 19.1089 165.877C26.6026 171.657 40.3676 178.346 44.7655 197.068L50.3489 195.705Z" fill="black"/>
<path d="M47.2165 193.622C47.1381 193.623 47.0627 193.593 47.0056 193.539C46.9485 193.485 46.9141 193.412 46.9094 193.334C45.7546 174.053 29.8704 161.516 22.0205 159.379C21.9426 159.357 21.8763 159.306 21.836 159.236C21.7958 159.165 21.7848 159.082 21.8055 159.004C21.8271 158.925 21.8792 158.857 21.9505 158.815C22.0218 158.774 22.1065 158.762 22.1864 158.783C30.1714 160.963 46.3504 173.709 47.5236 193.297C47.5255 193.378 47.4968 193.456 47.4433 193.516C47.3897 193.577 47.3153 193.615 47.2349 193.622H47.2165Z" fill="white"/>
<path d="M51.3195 212.24C52.8412 210.319 53.8623 208.052 54.2911 205.639C54.7199 203.227 54.5431 200.746 53.7765 198.419C53.3306 197.014 52.6173 195.709 51.6758 194.574C50.9203 193.684 49.8331 193.223 48.9486 192.48C47.0445 190.901 44.8332 189.224 44.1453 186.718C43.5925 184.722 43.7092 182.83 42.6035 180.957C41.9521 179.783 40.9147 178.872 39.6675 178.377C38.0398 177.763 36.2462 178.168 34.5263 178.377C32.0694 178.653 30.2267 177.806 28.1014 176.675C25.7612 175.447 23.0278 174.476 20.491 175.232C19.666 175.476 18.9015 175.891 18.2472 176.45C17.5928 177.009 17.0632 177.699 16.6925 178.476C16.3219 179.252 16.1186 180.098 16.0957 180.958C16.0729 181.818 16.231 182.674 16.5599 183.469C17.125 184.845 18.1692 185.963 18.937 187.24C19.7048 188.518 20.1102 189.98 19.5512 191.374C19.1213 192.406 18.3228 193.217 18.0034 194.267C17.0943 197.031 17.6041 199.488 20.3497 200.913C23.2182 202.381 27.7206 201.276 29.1579 204.881C29.6984 206.251 29.7169 207.768 30.0117 209.211C30.6169 212.116 32.3059 214.682 34.7352 216.386C38.0336 218.677 42.5114 218.118 45.9327 216.521C48.0346 215.529 49.8783 214.063 51.3195 212.24Z" fill="#0071CD"/>
<path d="M25.4602 194.795C25.5273 194.807 25.5963 194.796 25.6568 194.765C28.076 193.829 30.6723 193.441 33.2593 193.628C35.8463 193.815 38.3598 194.572 40.6196 195.846C40.697 195.887 40.7876 195.896 40.8717 195.871C40.9557 195.845 41.0263 195.788 41.0679 195.711C41.0895 195.673 41.1033 195.631 41.1085 195.588C41.1136 195.545 41.1101 195.501 41.0981 195.459C41.0861 195.417 41.0658 195.378 41.0385 195.344C41.0111 195.311 40.9773 195.283 40.939 195.262C38.5912 193.944 35.9806 193.162 33.2946 192.973C30.6086 192.784 27.9142 193.192 25.4049 194.169C25.3459 194.201 25.2981 194.251 25.268 194.311C25.2378 194.371 25.2266 194.439 25.236 194.506C25.2453 194.572 25.2747 194.634 25.3202 194.684C25.3657 194.734 25.4253 194.768 25.4909 194.783L25.4602 194.795Z" fill="white"/>
<path d="M46.9091 212.344C46.8287 212.346 46.7508 212.316 46.6923 212.261C46.6337 212.205 46.5991 212.13 46.5959 212.049C46.0246 198.167 32.0876 183.487 22.7451 179.495C22.7073 179.479 22.6731 179.456 22.6442 179.428C22.6154 179.399 22.5926 179.364 22.5772 179.327C22.5617 179.289 22.554 179.248 22.5543 179.208C22.5547 179.167 22.5631 179.127 22.5792 179.089C22.6129 179.014 22.675 178.954 22.7521 178.925C22.8292 178.895 22.915 178.896 22.9908 178.929C32.4807 182.996 46.6327 197.922 47.2162 212.037C47.2179 212.078 47.2114 212.119 47.1972 212.158C47.1829 212.196 47.1612 212.232 47.1333 212.262C47.1053 212.292 47.0717 212.317 47.0343 212.334C46.9968 212.351 46.9564 212.361 46.9153 212.362L46.9091 212.344Z" fill="white"/>
<path d="M123.836 13.9888L54.3166 54.1107C53.6282 54.5601 53.0561 55.1662 52.6471 55.8795C52.2382 56.5927 52.0041 57.3926 51.9641 58.2138V221.926C51.9641 223.425 53.0206 224.033 54.3166 223.278L123.836 183.143C124.52 182.695 125.089 182.092 125.497 181.384C125.906 180.676 126.143 179.881 126.188 179.065V15.3278C126.188 13.8291 125.132 13.2148 123.836 13.9888ZM122.804 166.934C122.804 168.217 121.901 169.034 120.789 169.673L57.1298 206.441C56.0242 207.056 55.1151 206.564 55.1151 205.274V69.1288C55.1154 68.4248 55.3012 67.7333 55.6538 67.1241C56.0064 66.5148 56.5134 66.0092 57.1237 65.6583L120.783 28.884C120.987 28.7653 121.219 28.7026 121.456 28.702C121.692 28.7014 121.924 28.7631 122.129 28.8808C122.334 28.9984 122.504 29.168 122.622 29.3723C122.741 29.5767 122.804 29.8087 122.804 30.0449V166.934Z" fill="#455A64"/>
<path d="M122.804 166.934C122.804 168.217 121.901 169.034 120.789 169.673L57.1299 206.441C56.0243 207.056 55.1152 206.564 55.1152 205.274V69.1289C55.1155 68.425 55.3013 67.7335 55.6539 67.1242C56.0065 66.5149 56.5135 66.0094 57.1238 65.6585L120.783 28.8841C120.988 28.7655 121.219 28.7027 121.456 28.7022C121.692 28.7016 121.924 28.7632 122.129 28.8809C122.334 28.9986 122.504 29.1681 122.623 29.3725C122.741 29.5769 122.804 29.8088 122.804 30.0451V166.934Z" fill="#263238"/>
<path d="M57.1299 206.441L120.789 169.686C121.236 169.444 121.649 169.145 122.018 168.795L55.1152 131.118V205.274C55.1152 206.564 56.0243 207.08 57.1299 206.441Z" fill="#37474F"/>
<path d="M117.651 164.545V30.6963L57.1238 65.6586C56.5135 66.0095 56.0065 66.5151 55.6539 67.1244C55.3013 67.7336 55.1155 68.4251 55.1152 69.1291V202.228L115.636 167.284C116.748 166.645 117.651 165.828 117.651 164.545Z" fill="#0071CD"/>
<path d="M54.0217 223.443C53.3197 223.739 52.5618 223.88 51.8004 223.854C51.0389 223.829 50.2921 223.638 49.6115 223.296L46.9211 221.742C46.2346 221.297 45.663 220.697 45.253 219.989C44.8431 219.281 44.6065 218.486 44.5624 217.67V53.9141C44.5779 53.3072 44.7158 52.7097 44.9678 52.1574C45.0538 51.967 45.146 51.7827 45.2504 51.5923L52.6212 55.8919C52.4663 56.1688 52.3308 56.4562 52.2158 56.7519C52.0369 57.217 51.9392 57.7094 51.9271 58.2076V221.926C51.964 223.308 52.8608 223.935 54.0217 223.443Z" fill="#263238"/>
<path d="M91.1524 190.459C92.6573 190.459 92.817 192.148 92.817 192.873C92.727 194.325 92.3013 195.737 91.5734 196.997C90.8454 198.256 89.835 199.33 88.6217 200.133C88.1349 200.443 87.5762 200.62 87.0001 200.649C85.4953 200.649 85.3356 198.96 85.3356 198.235C85.4262 196.783 85.8515 195.371 86.5782 194.111C87.305 192.85 88.3134 191.775 89.5247 190.969C90.0156 190.664 90.5755 190.489 91.1524 190.459Z" fill="#0071CD"/>
<path d="M89.0273 36.6601C89.6415 36.2916 90.1759 36.5864 90.1759 37.3235C90.1536 37.722 90.038 38.1097 89.8385 38.4553C89.639 38.801 89.3612 39.095 89.0273 39.3136C88.413 39.676 87.8725 39.3812 87.8725 38.6503C87.8935 38.2508 88.0092 37.862 88.21 37.516C88.4107 37.17 88.6909 36.8766 89.0273 36.6601Z" fill="#263238"/>
<path d="M81.6071 46.359C82.1722 46.0335 82.6268 46.2976 82.6268 46.9733C82.608 47.3267 82.5059 47.6707 82.3287 47.9771C82.1514 48.2835 81.9042 48.5436 81.6071 48.7361C81.042 49.0617 80.5875 48.7975 80.5875 48.1219C80.6072 47.7686 80.7098 47.425 80.8869 47.1187C81.064 46.8125 81.3108 46.5522 81.6071 46.359Z" fill="#263238"/>
<path d="M85.0165 44.3443L96.4351 37.7536C97.0494 37.3912 97.5653 37.6492 97.5653 38.3248C97.5354 38.7042 97.4177 39.0715 97.2216 39.3977C97.0254 39.7239 96.7562 40 96.4351 40.2044L85.0165 46.7951C84.4022 47.1575 83.8863 46.8996 83.8863 46.2239C83.9162 45.8445 84.0339 45.4772 84.23 45.151C84.4261 44.8248 84.6954 44.5487 85.0165 44.3443Z" fill="#263238"/>
<path d="M126.164 14.9532C125.992 13.7248 125.015 13.2886 123.842 13.9705L54.3104 54.1108C53.6146 54.5427 53.0431 55.1481 52.6519 55.8675L45.2811 51.5679C45.6784 50.8541 46.2514 50.2537 46.9457 49.8234L116.434 9.68922C117.163 9.31958 117.969 9.12695 118.787 9.12695C119.604 9.12695 120.41 9.31958 121.139 9.68922L123.842 11.2371C124.472 11.6549 125.005 12.2027 125.405 12.8437C125.806 13.4847 126.064 14.204 126.164 14.9532Z" fill="#37474F"/>
<path d="M107.927 19.9227C107.567 20.1154 107.165 20.2198 106.756 20.2273C106.347 20.2348 105.942 20.1451 105.575 19.9657C105.452 19.9132 105.345 19.8284 105.266 19.7203C105.187 19.6122 105.139 19.4848 105.126 19.3515C105.126 19.1795 105.126 18.5407 105.126 18.3626C105.146 18.2093 105.205 18.0637 105.298 17.9399C105.39 17.8162 105.513 17.7184 105.655 17.6562L113.105 13.3565C113.468 13.1652 113.87 13.0616 114.28 13.0541C114.689 13.0467 115.095 13.1355 115.464 13.3135C115.585 13.3685 115.689 13.4541 115.767 13.5618C115.844 13.6696 115.893 13.7957 115.906 13.9278C115.906 14.1059 115.906 14.7693 115.906 14.9413C115.887 15.0954 115.828 15.242 115.736 15.3669C115.643 15.4917 115.52 15.5905 115.378 15.6538L107.927 19.9227Z" fill="#0071CD"/>
<path opacity="0.25" d="M107.927 19.9227C107.567 20.1154 107.165 20.2198 106.756 20.2273C106.347 20.2348 105.942 20.1451 105.575 19.9657C105.452 19.9132 105.345 19.8284 105.266 19.7203C105.187 19.6122 105.139 19.4848 105.126 19.3515C105.126 19.1795 105.126 18.5407 105.126 18.3626C105.146 18.2093 105.205 18.0637 105.298 17.9399C105.39 17.8162 105.513 17.7184 105.655 17.6562L113.105 13.3565C113.468 13.1652 113.87 13.0616 114.28 13.0541C114.689 13.0467 115.095 13.1355 115.464 13.3135C115.585 13.3685 115.689 13.4541 115.767 13.5618C115.844 13.6696 115.893 13.7957 115.906 13.9278C115.906 14.1059 115.906 14.7693 115.906 14.9413C115.887 15.0954 115.828 15.242 115.736 15.3669C115.643 15.4917 115.52 15.5905 115.378 15.6538L107.927 19.9227Z" fill="black"/>
<path d="M107.927 18.946L115.378 14.6464C116.054 14.2533 116.084 13.6452 115.458 13.2828C115.089 13.1048 114.683 13.0159 114.273 13.0234C113.864 13.0309 113.461 13.1344 113.099 13.3258L105.648 17.6254C104.979 18.0124 104.942 18.6205 105.575 18.9829C105.942 19.1618 106.347 19.2517 106.755 19.2453C107.164 19.2389 107.566 19.1364 107.927 18.946Z" fill="#0071CD"/>
<path opacity="0.3" d="M107.927 18.946L115.378 14.6464C116.054 14.2533 116.084 13.6452 115.458 13.2828C115.089 13.1048 114.683 13.0159 114.273 13.0234C113.864 13.0309 113.461 13.1344 113.099 13.3258L105.648 17.6254C104.979 18.0124 104.942 18.6205 105.575 18.9829C105.942 19.1618 106.347 19.2517 106.755 19.2453C107.164 19.2389 107.566 19.1364 107.927 18.946Z" fill="black"/>
<path d="M49.2185 78.588C49.2039 78.1792 49.0928 77.7797 48.8942 77.4221C48.6957 77.0644 48.4153 76.7589 48.076 76.5304C47.9648 76.4483 47.8331 76.3985 47.6955 76.3866C47.5578 76.3747 47.4195 76.401 47.2959 76.4628C47.1546 76.5488 46.5895 76.862 46.4421 76.9542C46.3188 77.0476 46.2217 77.1714 46.1603 77.3135C46.099 77.4556 46.0754 77.6111 46.092 77.765V96.0201C46.1068 96.4281 46.2174 96.827 46.4148 97.1844C46.6122 97.5419 46.8909 97.8479 47.2283 98.0778C47.3394 98.1525 47.4677 98.1974 47.6011 98.2081C47.7345 98.2189 47.8684 98.1951 47.99 98.1392C48.1497 98.0593 48.7209 97.7276 48.8745 97.6355C48.9978 97.5421 49.0949 97.4183 49.1563 97.2762C49.2176 97.1341 49.2412 96.9786 49.2246 96.8247L49.2185 78.588Z" fill="#0071CD"/>
<path opacity="0.3" d="M49.2185 78.588C49.2039 78.1792 49.0928 77.7797 48.8942 77.4221C48.6957 77.0644 48.4153 76.7589 48.076 76.5304C47.9648 76.4483 47.8331 76.3985 47.6955 76.3866C47.5578 76.3747 47.4195 76.401 47.2959 76.4628C47.1546 76.5488 46.5895 76.862 46.4421 76.9542C46.3188 77.0476 46.2217 77.1714 46.1603 77.3135C46.099 77.4556 46.0754 77.6111 46.092 77.765V96.0201C46.1068 96.4281 46.2174 96.827 46.4148 97.1844C46.6122 97.5419 46.8909 97.8479 47.2283 98.0778C47.3394 98.1525 47.4677 98.1974 47.6011 98.2081C47.7345 98.2189 47.8684 98.1951 47.99 98.1392C48.1497 98.0593 48.7209 97.7276 48.8745 97.6355C48.9978 97.5421 49.0949 97.4183 49.1563 97.2762C49.2176 97.1341 49.2412 96.9786 49.2246 96.8247L49.2185 78.588Z" fill="black"/>
<path d="M48.3708 79.098V97.3531C48.3708 98.1271 47.8609 98.4587 47.2283 98.0963C46.8908 97.8665 46.6122 97.5604 46.4148 97.203C46.2174 96.8456 46.1068 96.4467 46.0919 96.0387V77.7651C46.0919 76.985 46.6018 76.6534 47.2283 77.0158C47.5702 77.2474 47.8521 77.557 48.0507 77.9191C48.2494 78.2811 48.3591 78.6852 48.3708 79.098Z" fill="#0071CD"/>
<path opacity="0.4" d="M48.3708 79.098V97.3531C48.3708 98.1271 47.8609 98.4587 47.2283 98.0963C46.8908 97.8665 46.6122 97.5604 46.4148 97.203C46.2174 96.8456 46.1068 96.4467 46.0919 96.0387V77.7651C46.0919 76.985 46.6018 76.6534 47.2283 77.0158C47.5702 77.2474 47.8521 77.557 48.0507 77.9191C48.2494 78.2811 48.3591 78.6852 48.3708 79.098Z" fill="black"/>
<path d="M49.2184 103.053C49.2038 102.644 49.0927 102.245 48.8942 101.887C48.6956 101.529 48.4152 101.224 48.0759 100.995C47.9648 100.913 47.8331 100.863 47.6954 100.851C47.5577 100.84 47.4195 100.866 47.2958 100.928C47.1546 101.014 46.5895 101.327 46.4421 101.419C46.3187 101.512 46.2216 101.636 46.1603 101.778C46.0989 101.92 46.0754 102.076 46.0919 102.23V110.829C46.1077 111.236 46.2188 111.634 46.4161 111.99C46.6135 112.346 46.8916 112.651 47.2283 112.881C47.3357 112.96 47.4623 113.009 47.5952 113.023C47.728 113.037 47.8622 113.016 47.9838 112.961C48.1435 112.881 48.7147 112.549 48.8683 112.457C48.9911 112.364 49.088 112.242 49.1493 112.101C49.2107 111.96 49.2345 111.805 49.2184 111.652V103.053Z" fill="#0071CD"/>
<path opacity="0.3" d="M49.2184 103.053C49.2038 102.644 49.0927 102.245 48.8942 101.887C48.6956 101.529 48.4152 101.224 48.0759 100.995C47.9648 100.913 47.8331 100.863 47.6954 100.851C47.5577 100.84 47.4195 100.866 47.2958 100.928C47.1546 101.014 46.5895 101.327 46.4421 101.419C46.3187 101.512 46.2216 101.636 46.1603 101.778C46.0989 101.92 46.0754 102.076 46.0919 102.23V110.829C46.1077 111.236 46.2188 111.634 46.4161 111.99C46.6135 112.346 46.8916 112.651 47.2283 112.881C47.3357 112.96 47.4623 113.009 47.5952 113.023C47.728 113.037 47.8622 113.016 47.9838 112.961C48.1435 112.881 48.7147 112.549 48.8683 112.457C48.9911 112.364 49.088 112.242 49.1493 112.101C49.2107 111.96 49.2345 111.805 49.2184 111.652V103.053Z" fill="black"/>
<path d="M48.3708 103.514V112.113C48.3708 112.887 47.8609 113.225 47.2283 112.856C46.8908 112.626 46.6122 112.32 46.4148 111.963C46.2174 111.605 46.1068 111.207 46.0919 110.798V102.199C46.0919 101.425 46.6018 101.087 47.2283 101.45C47.567 101.68 47.8469 101.987 48.0453 102.346C48.2437 102.704 48.3552 103.104 48.3708 103.514Z" fill="#0071CD"/>
<path opacity="0.4" d="M48.3708 103.514V112.113C48.3708 112.887 47.8609 113.225 47.2283 112.856C46.8908 112.626 46.6122 112.32 46.4148 111.963C46.2174 111.605 46.1068 111.207 46.0919 110.798V102.199C46.0919 101.425 46.6018 101.087 47.2283 101.45C47.567 101.68 47.8469 101.987 48.0453 102.346C48.2437 102.704 48.3552 103.104 48.3708 103.514Z" fill="black"/>
<path d="M69.5745 87.8144C69.6356 88.1126 69.7177 88.4061 69.8202 88.6927C70.2195 89.7738 70.9381 90.7934 70.8767 91.9482C70.8091 93.2504 69.7833 94.2577 68.9971 95.2958C67.9753 96.6683 67.2944 98.264 67.0103 99.9513C66.7262 101.639 66.8472 103.369 67.3633 105.001C68.1185 106.988 69.166 108.851 70.4713 110.529L73.4381 114.736C74.3351 115.914 75.48 116.881 76.7918 117.568C79.3411 119.009 82.1855 119.849 85.1085 120.025C89.9133 120.349 94.6925 119.096 98.72 116.456C102.989 113.631 101.109 106.383 105.477 103.735C110.759 100.541 113.277 89.4482 106.803 84.8169C106.803 84.8169 107.848 78.0234 105.931 76.2913C104.021 74.6932 101.658 73.735 99.1746 73.5518C95.7471 73.1956 92.3135 73.8651 88.8922 73.8528C85.3703 73.8414 81.8513 74.061 78.3581 74.51C77.1296 74.6759 75.3975 75.1243 74.7341 76.322C74.5468 76.7918 74.4957 77.3048 74.5867 77.8023C74.5772 78.5916 74.2951 79.3533 73.7882 79.9583C73.0265 80.8796 71.9455 81.5 71.1347 82.3661C70.4656 83.0883 69.9758 83.9577 69.7048 84.9042C69.4338 85.8506 69.3891 86.8475 69.5745 87.8144Z" fill="#263238"/>
<path d="M103.665 97.6177C109.193 97.7712 109.912 98.9506 114.862 103.852C118.978 107.925 132.614 120.51 132.614 120.51L148.952 124.859L145.095 134.828C145.095 134.828 141.41 134.675 134.039 134.668C129.512 134.668 127.939 133.655 123.382 130.614C121.06 129.06 107.958 120.486 107.958 120.486L103.665 97.6177Z" fill="#E6E6E6"/>
<path d="M167.029 104.7L137.085 115.252L128.83 150.878L129.5 151.591L157.969 140.97L167.693 105.412L167.029 104.7Z" fill="#0071CD"/>
<path opacity="0.35" d="M137.749 115.965L129.5 151.591L128.83 150.878L137.085 115.252L137.749 115.965Z" fill="black"/>
<path opacity="0.25" d="M167.693 105.412L137.749 115.965L129.5 151.59L157.969 140.97L167.693 105.412Z" fill="black"/>
<g opacity="0.2">
<path d="M153.516 133.722C153.793 134.422 156.09 135.964 159.413 135.688L159.972 133.636L153.516 133.722Z" fill="black"/>
</g>
<g opacity="0.1">
<path d="M158.676 112.709L158.922 111.512C159.057 110.854 157.3 111.198 154.997 112.285L149.591 113.919C147.288 115.007 145.114 115.817 144.972 116.475L144.727 117.666L158.676 112.709Z" fill="black"/>
</g>
<path d="M160.457 107.304C160.543 106.892 159.843 106.978 158.903 107.23L157.177 107.814C157.177 107.814 157.883 106.082 153.799 107.2C149.309 108.428 149.21 110.658 149.21 110.658C148.508 110.962 147.788 111.225 147.054 111.444C145.562 111.929 145.402 112.218 145.279 112.636L145.058 113.391L160.322 108.023C160.322 108.023 160.396 107.716 160.457 107.304Z" fill="#37474F"/>
<path d="M158.848 109.595C157.435 110.209 156.852 110.547 156.637 111.567C156.397 112.727 156.348 113.213 156.348 113.213L148.4 116.345C148.4 116.345 148.83 114.632 148.934 114.06C149.038 113.489 147.988 113.489 146.612 114.122L146.938 112.697L159.302 108.108L158.848 109.595Z" fill="#37474F"/>
<path d="M159.081 112.728C159.081 112.728 159.198 112.193 159.333 111.53C159.468 110.867 157.711 111.217 155.408 112.304L150.003 113.938C147.699 115.025 145.519 115.836 145.384 116.493L145.138 117.721L159.081 112.728Z" fill="#37474F"/>
<path d="M164.364 117.599C164.364 117.599 163.301 121.505 163.019 122.512C162.736 123.52 157.834 125.762 155.384 126.069C150.691 126.652 150.156 127.666 151.281 130.983C152.325 134.054 155.377 135.221 159.616 134.723C161.606 134.49 164.351 132.727 165.433 129.65C166.808 125.719 166.047 121.523 166.618 119.208C167.189 116.892 165.555 116.229 164.364 117.599Z" fill="#FFA8A7"/>
<path d="M117.964 171.32L114.789 173.162L113.456 173.93L95.9868 184.01L93.6036 185.361L89.5803 187.683L90.8088 175.146L93.1552 150.872V150.62L93.2658 149.533L96.3369 117.795L97.6821 103.907L98.1551 98.9256L98.3148 97.3163H98.4008C99.8234 96.9206 101.327 96.9206 102.75 97.3163C103.067 97.4125 103.375 97.5358 103.671 97.6848C105.514 98.6001 106.742 100.381 107.762 102.255C108.012 102.711 108.238 103.181 108.437 103.661C109.195 105.482 109.779 107.37 110.182 109.3C110.986 112.863 112.025 116.505 112.436 122.248C112.501 123.726 112.423 125.207 112.203 126.671C111.926 130.542 111.879 134.427 112.061 138.304C112.577 147.088 114.789 151.068 117.964 171.32Z" fill="#E0E0E0"/>
<path d="M113.456 173.918L95.9868 183.998L93.6036 185.361L89.5804 187.683L86.8101 189.28L69.9924 198.985C70.1705 192.228 70.2503 184.901 70.0906 177.978C70.0415 175.662 70.0231 173.298 70.1213 170.877C70.4407 162.475 72.0378 153.464 77.7624 143.98L78.0266 143.501C78.7022 147.512 84.8446 150.116 90.3727 150.731L90.987 150.786C91.681 150.853 92.3997 150.884 93.1429 150.884H93.6097C98.2841 150.841 103.818 149.742 110.194 147.586C110.808 151.148 111.423 155.823 112.08 161.289C112.375 163.746 112.674 166.365 112.977 169.145C113.099 170.699 113.29 172.29 113.456 173.918Z" fill="#FFA8A7"/>
<path d="M114.788 173.15L113.456 173.918L95.9866 183.998L93.6034 185.361L89.5802 187.683L86.8099 189.28L69.9922 198.985L68.1494 200.048C68.2416 192.775 68.303 185.65 68.2969 181.178C68.2969 177.02 68.389 173.322 68.6163 170.042C69.0647 163.568 69.9983 158.697 71.5585 155.012C73.389 150.978 75.5547 147.105 78.0325 143.434C78.0325 143.434 79.5681 148.618 91.0543 149.435H91.128C91.8037 149.484 92.5162 149.515 93.2656 149.527H94.1378C108.437 149.527 110.016 145.921 110.016 145.921C111.413 151.223 112.518 156.598 113.327 162.02C113.63 163.937 113.922 165.984 114.205 168.163C114.414 169.76 114.61 171.418 114.788 173.15Z" fill="#0071CD"/>
<path opacity="0.4" d="M114.788 173.15L113.456 173.918L95.9866 183.998L93.6034 185.361L89.5802 187.683L86.8099 189.28L69.9922 198.985L68.1494 200.048C68.2416 192.775 68.303 185.65 68.2969 181.178C68.2969 177.02 68.389 173.322 68.6163 170.042C69.0647 163.568 69.9983 158.697 71.5585 155.012C73.389 150.978 75.5547 147.105 78.0325 143.434C78.0325 143.434 79.5681 148.618 91.0543 149.435H91.128C91.8037 149.484 92.5162 149.515 93.2656 149.527H94.1378C108.437 149.527 110.016 145.921 110.016 145.921C111.413 151.223 112.518 156.598 113.327 162.02C113.63 163.937 113.922 165.984 114.205 168.163C114.414 169.76 114.61 171.418 114.788 173.15Z" fill="black"/>
<path opacity="0.2" d="M106.589 164.999C106.589 164.999 104.992 170.073 98.2718 172.917L97.9524 174.471L95.9869 183.997L93.6036 185.361L95.0287 174.851L95.6429 170.281C99.7958 169.851 103.668 167.982 106.589 164.999Z" fill="black"/>
<path d="M86.153 98.7847L79.3964 99.4972C74.9247 100.591 72.9039 102.568 72.4432 106.518C72.2282 108.361 71.1165 113.274 72.6766 119.417C74.0894 124.994 77.8608 138.642 77.8608 138.642C77.8608 138.642 69.1816 149.969 67.6092 169.391C83.4933 179.759 107.86 174.188 114.451 167.923C113.898 161.99 110.108 145.706 109.635 140.418C109.635 140.418 109.985 132.156 110.643 128.575C115.667 123.09 115.028 117.844 112.774 113.612C108.609 105.799 102.332 98.9321 100.299 98.9382L86.153 98.7847Z" fill="#0071CD"/>
<path opacity="0.7" d="M86.153 98.7847L79.3964 99.4972C74.9247 100.591 72.9039 102.568 72.4432 106.518C72.2282 108.361 71.1165 113.274 72.6766 119.417C74.0894 124.994 77.8608 138.642 77.8608 138.642C77.8608 138.642 69.1816 149.969 67.6092 169.391C83.4933 179.759 107.86 174.188 114.451 167.923C113.898 161.99 110.108 145.706 109.635 140.418C109.635 140.418 109.985 132.156 110.643 128.575C115.667 123.09 115.028 117.844 112.774 113.612C108.609 105.799 102.332 98.9321 100.299 98.9382L86.153 98.7847Z" fill="white"/>
<path d="M92.0065 141.075C92.0065 141.197 92.0065 141.308 92.0065 141.4V141.56C92.0105 141.611 92.0105 141.662 92.0065 141.713C91.7731 144.17 91.4967 146.781 91.2018 149.44C91.2018 149.44 91.2018 149.44 91.2018 149.477C91.1589 149.907 91.1097 150.337 91.0606 150.773C90.1576 158.789 89.0827 167.358 88.2535 175.159C88.0508 177.05 87.8665 178.893 87.7007 180.687C87.4427 183.371 87.1663 186.313 86.8838 189.286L70.066 198.991L68.2233 200.054L63.5244 202.762C64.4703 193.457 66.6754 171.897 67.9039 162.167C68.0451 161.068 68.2294 159.968 68.4382 158.875L68.6041 158.077L68.6778 157.751C68.7576 157.383 68.8375 157.026 68.9235 156.664C69.0095 156.301 69.0893 155.994 69.1692 155.669C69.3596 154.926 69.5623 154.195 69.7834 153.482C69.8878 153.138 69.9861 152.794 70.0967 152.456C70.2072 152.119 70.2994 151.781 70.4099 151.449C70.6311 150.786 70.8461 150.135 71.0733 149.502C71.0707 149.49 71.0707 149.477 71.0733 149.465C71.1777 149.164 71.2883 148.851 71.3989 148.568C71.5463 148.151 71.6998 147.745 71.8534 147.34L72.0377 146.855C72.1298 146.633 72.2097 146.418 72.2957 146.203C72.5966 145.448 72.9099 144.729 73.1863 144.06C73.2477 143.912 73.3153 143.765 73.3767 143.624C73.4381 143.482 73.5364 143.274 73.6101 143.102C73.7944 142.672 73.9787 142.272 74.1568 141.873C74.2305 141.701 74.3103 141.535 74.3841 141.376C74.4578 141.216 74.5622 141.007 74.642 140.835L74.7587 140.589L74.8816 140.35C74.8896 140.318 74.9043 140.289 74.9246 140.264C74.9413 140.219 74.9619 140.176 74.986 140.135C75.0009 140.107 75.0132 140.079 75.0229 140.049C75.074 139.962 75.1191 139.872 75.158 139.779L75.5695 138.98C75.5695 138.937 75.6125 138.906 75.6248 138.869L75.7845 138.575L70.6741 117.383L68.1311 106.855V106.683C68.2478 105.75 69.0279 101.346 73.5241 100.007C76.0625 99.3515 78.6627 98.9644 81.2819 98.852C82.2893 98.7906 83.1983 98.766 83.9416 98.7476H85.1148H85.8211C85.8228 98.7618 85.8228 98.7763 85.8211 98.7906C85.858 98.8827 85.9624 99.1591 86.1221 99.5891C86.1394 99.661 86.1641 99.731 86.1958 99.7979C86.1964 99.8081 86.1964 99.8184 86.1958 99.8286C87.3014 102.863 90.4033 111.696 91.9451 119.367C92.2153 120.694 92.4365 121.99 92.5962 123.219C93.0568 127.058 92.719 133.483 92.0065 141.075Z" fill="#FAFAFA"/>
<path d="M75.9504 128.427C75.9504 128.427 76.5647 125.399 77.4676 118.858C78.5179 111.315 78.1432 107.586 77.0069 105.203L70.6004 117.42L75.7109 138.611C75.7109 138.611 70.4591 148.23 68.34 158.881C73.3645 144.686 78.8619 140.454 78.8619 140.454L75.9504 128.427Z" fill="#E6E6E6"/>
<path d="M98.3947 94.0547C100.385 94.0547 100.618 94.3864 102.332 96.6836C103.352 98.0534 109.807 108.71 109.807 108.71C109.807 108.71 104.672 101.954 100.796 99.9022C100.05 99.4649 99.2427 99.1419 98.4008 98.944L98.3947 94.0547Z" fill="#EBEBEB"/>
<path d="M83.6774 116.702C83.6774 116.088 83.616 114.761 83.5116 113.09C83.0018 104.896 82.7561 97.5254 85.5201 96.9111L85.7597 98.0413C83.745 98.4774 84.4084 109.024 84.6602 112.992C84.7708 114.699 84.8568 116.063 84.826 116.726L83.6774 116.702Z" fill="#0071CD"/>
<path d="M74.4639 63.0545L78.7636 66.5741C78.9973 66.3066 79.174 65.9941 79.2828 65.6559C79.3916 65.3177 79.4302 64.9609 79.3963 64.6072C79.3624 64.2536 79.2566 63.9106 79.0855 63.5993C78.9144 63.2879 78.6815 63.0148 78.4012 62.7966C77.8359 62.3291 77.1133 62.0954 76.3813 62.1434C75.6493 62.1913 74.9634 62.5173 74.4639 63.0545Z" fill="#263238"/>
<path d="M85.6922 94.5769C85.6922 91.8804 79.4085 87.8203 76.1654 82.1509C72.9222 76.4815 74.5438 67.1574 78.9909 65.7263C79.0277 65.7263 79.1506 64.5285 79.169 64.4425C79.4149 63.3607 79.8294 62.3243 80.3975 61.3713C82.2095 58.251 86.0484 55.8432 89.611 55.3395C103.695 53.288 110.169 58.7608 112.755 64.7803C113.594 66.8053 113.967 68.9923 113.849 71.1807C113.776 72.7879 113.18 74.3273 112.151 75.5639C111.122 76.8005 109.716 77.6664 108.149 78.0294L85.6922 94.5769Z" fill="#263238"/>
<path d="M105.231 62.7656C107.989 63.9941 110.612 68.1893 110.569 79.995C110.532 90.007 107.461 92.5377 105.913 93.2809C104.365 94.0241 101.337 93.6433 98.3947 93.1949V98.9441C98.3947 98.9441 100.6 101.112 99.8259 102.476C99.0519 103.84 96.1957 104.994 91.7548 103.6C86.7242 102.021 85.5756 98.6862 85.5756 98.6862L85.4589 86.0698C85.4589 86.0698 83.7697 87.8449 80.7907 85.2405C78.3337 83.0846 77.4492 79.393 79.2981 77.366C81.1469 75.339 83.5179 75.1793 85.6554 77.4459L87.191 76.6351C89.9305 76.3157 93.9476 75.855 96.9082 74.3624C104.5 70.4989 105.286 66.3098 105.231 62.7656Z" fill="#FFA8A7"/>
<path d="M85.6983 75.812L85.7352 81.3401C86.0902 81.3496 86.4434 81.2863 86.773 81.1542C87.1027 81.022 87.4018 80.8239 87.6521 80.5719C87.9023 80.3199 88.0984 80.0194 88.2282 79.6889C88.3581 79.3583 88.419 79.0047 88.4071 78.6498C88.4004 77.9212 88.1168 77.2225 87.6137 76.6954C87.1106 76.1684 86.4258 75.8525 85.6983 75.812Z" fill="#263238"/>
<path d="M105.489 76.5982C105.492 76.8579 105.57 77.1112 105.716 77.3266C105.861 77.5419 106.066 77.71 106.306 77.8098C106.546 77.9096 106.809 77.9369 107.065 77.8882C107.32 77.8395 107.555 77.7169 107.741 77.5358C107.927 77.3546 108.056 77.1228 108.112 76.8691C108.167 76.6153 108.147 76.3509 108.054 76.1085C107.961 75.866 107.798 75.6563 107.587 75.5054C107.376 75.3544 107.125 75.2688 106.865 75.2591C106.686 75.2551 106.509 75.2866 106.342 75.352C106.176 75.4174 106.024 75.5153 105.896 75.64C105.768 75.7646 105.666 75.9136 105.596 76.0781C105.526 76.2426 105.49 76.4194 105.489 76.5982Z" fill="black"/>
<path d="M94.8933 77.188C94.8825 77.3784 94.9094 77.5691 94.9725 77.7491C95.0355 77.9291 95.1335 78.0949 95.2607 78.237C95.388 78.3791 95.542 78.4946 95.714 78.5771C95.886 78.6595 96.0726 78.7072 96.2631 78.7174C96.4564 78.719 96.6481 78.6825 96.8272 78.6098C97.0063 78.5371 97.1693 78.4298 97.3069 78.294C97.4444 78.1581 97.5538 77.9965 97.6287 77.8183C97.7036 77.6401 97.7426 77.4488 97.7434 77.2555C97.7494 77.0684 97.7185 76.8819 97.6525 76.7067C97.5865 76.5315 97.4866 76.371 97.3586 76.2344C97.2305 76.0978 97.0768 75.9877 96.9062 75.9105C96.7357 75.8333 96.5515 75.7905 96.3644 75.7844C96.1773 75.7784 95.9908 75.8093 95.8156 75.8753C95.6404 75.9413 95.4799 76.0412 95.3433 76.1692C95.2067 76.2973 95.0966 76.451 95.0194 76.6216C94.9422 76.7921 94.8994 76.9763 94.8933 77.1634V77.188Z" fill="black"/>
<path d="M109.003 74.1231L105.581 72.7657C105.66 72.5355 105.786 72.3241 105.951 72.1448C106.115 71.9654 106.315 71.822 106.538 71.7234C106.76 71.6248 107.001 71.5732 107.244 71.5718C107.488 71.5704 107.729 71.6193 107.952 71.7153C108.403 71.905 108.764 72.2608 108.959 72.7091C109.155 73.1574 109.17 73.6637 109.003 74.1231Z" fill="black"/>
<path d="M102.246 75.5171L102.074 83.711L106.478 82.7344L102.246 75.5171Z" fill="#F28F8F"/>
<path d="M97.0557 85.3818L101.355 86.7147C101.293 87.0078 101.171 87.285 100.996 87.5289C100.822 87.7728 100.6 87.9784 100.343 88.1327C100.086 88.2871 99.8003 88.387 99.5031 88.4262C99.206 88.4655 98.904 88.4433 98.6158 88.3609C98.0258 88.1557 97.536 87.7335 97.2462 87.1801C96.9564 86.6267 96.8883 85.9837 97.0557 85.3818Z" fill="#B16668"/>
<path d="M99.4327 88.4345C99.4279 87.8365 99.1869 87.2648 98.7624 86.8437C98.3379 86.4226 97.7641 86.1863 97.1662 86.1863C97.1069 86.1833 97.0474 86.1833 96.9881 86.1863C97.0101 86.6663 97.1759 87.1285 97.464 87.5129C97.7521 87.8974 98.1491 88.1864 98.6035 88.3423C98.8705 88.4304 99.1529 88.4618 99.4327 88.4345Z" fill="#F28F8F"/>
<path d="M98.3948 93.2256C95.2929 92.857 88.8987 91.0758 87.8607 88.4775C88.2766 89.7818 89.0748 90.9309 90.1518 91.776C92.0805 93.4344 98.3948 95.1604 98.3948 95.1604V93.2256Z" fill="#F28F8F"/>
<path d="M85.5449 94.0855C84.7341 93.9196 84.0155 94.2759 83.3521 95.3938C82.6887 96.5117 81.233 98.8949 81.233 98.8949C81.233 98.8949 80.4775 106.751 81.233 108.723C81.8841 110.418 89.0645 116.775 89.0645 116.775C89.0645 116.775 87.1911 123.833 87.1235 126.149C87.056 128.464 91.4232 137.254 91.9514 141.75C91.9514 141.75 93.5054 127.623 92.8359 122.531C91.6811 113.704 87.5412 102.304 85.5879 98.68L85.5449 94.0855Z" fill="#EBEBEB"/>
<path d="M89.9366 123.323C89.4574 122.183 88.8927 121.08 88.2475 120.025C87.2278 118.336 85.9686 116.714 84.8323 116.297C84.66 116.228 84.4771 116.191 84.2918 116.186H84.2304C84.0433 116.197 83.8599 116.242 83.6898 116.321C82.793 116.72 81.8471 117.943 81.0793 119.349C80.293 120.762 79.6451 122.247 79.1445 123.784C78.8496 124.736 78.9786 126.757 79.3287 129.067C80.0167 133.55 81.5461 139.152 82.3999 140.258C83.0257 141.03 83.765 141.704 84.5927 142.254C84.086 142.589 83.5391 142.86 82.965 143.059C82.6403 143.177 82.2972 143.238 81.9515 143.237V144.042H82.0498C82.415 144.036 82.7772 143.976 83.1247 143.864C83.9298 143.602 84.6901 143.219 85.379 142.727C86.1062 143.16 86.8954 143.479 87.7192 143.673C88.1071 143.766 88.5082 143.791 88.9047 143.747L88.8064 142.948C88.4624 142.977 88.116 142.95 87.7806 142.868C87.1897 142.714 86.6203 142.487 86.0853 142.193C86.8649 141.572 87.548 140.84 88.1123 140.018C88.5914 139.287 89.1811 136.769 89.6233 133.876C89.8936 132.15 90.1147 130.295 90.2376 128.606C90.3727 126.247 90.3113 124.226 89.9366 123.323ZM87.3998 139.576C86.8235 140.407 86.1162 141.14 85.3053 141.744C84.4438 141.212 83.676 140.542 83.0326 139.76C82.2341 138.722 80.7599 133.256 80.0965 128.944C79.7587 126.763 79.6359 124.877 79.9061 124.03C80.407 122.474 81.0699 120.975 81.884 119.558C82.7316 118.096 83.6345 117.021 84.2611 116.997C85.0043 116.997 86.2082 118.342 87.3322 120.068C87.5595 120.406 87.7745 120.774 87.9833 121.143C88.4415 121.937 88.8518 122.757 89.2118 123.6C89.5496 124.435 89.5865 126.321 89.4329 128.514C89.3469 129.742 89.2118 131.026 89.0398 132.304C88.573 135.639 87.9158 138.765 87.3998 139.558V139.576Z" fill="#455A64"/>
<path d="M90.0044 143.274C90.0139 143.508 89.9537 143.74 89.8313 143.941C89.7089 144.141 89.5299 144.3 89.3168 144.398C89.1038 144.497 88.8663 144.53 88.6346 144.493C88.4028 144.456 88.1871 144.352 88.0149 144.192C87.8426 144.033 87.7215 143.826 87.6669 143.598C87.6123 143.37 87.6267 143.131 87.7082 142.91C87.7897 142.69 87.9346 142.5 88.1247 142.362C88.3148 142.224 88.5414 142.146 88.7759 142.138C89.0893 142.126 89.3946 142.239 89.6249 142.452C89.8551 142.665 89.9916 142.96 90.0044 143.274Z" fill="#263238"/>
<path d="M83.1186 143.593C83.1294 143.828 83.0702 144.06 82.9486 144.261C82.827 144.462 82.6484 144.623 82.4355 144.722C82.2226 144.821 81.9851 144.855 81.7529 144.819C81.5208 144.783 81.3046 144.679 81.1317 144.52C80.9588 144.361 80.8371 144.154 80.782 143.926C80.7269 143.698 80.7408 143.458 80.8221 143.238C80.9033 143.017 81.0482 142.826 81.2384 142.688C81.4285 142.55 81.6554 142.472 81.8901 142.463C82.045 142.456 82.1997 142.48 82.3453 142.534C82.4909 142.587 82.6246 142.668 82.7387 142.773C82.8528 142.878 82.9451 143.005 83.0103 143.145C83.0754 143.286 83.1122 143.438 83.1186 143.593Z" fill="#263238"/>
<path d="M90.1392 128.593L89.4574 128.544C89.3879 128.538 89.3235 128.505 89.2777 128.452C89.2319 128.4 89.2083 128.331 89.2118 128.262C89.353 126.007 89.2793 124.349 89.0029 123.686C87.8113 120.774 85.3175 117.126 84.2671 117.169C83.2168 117.212 81.0424 121.063 80.0965 124.06C79.8815 124.748 79.9491 126.407 80.2746 128.642C80.2853 128.711 80.2688 128.781 80.2286 128.837C80.1884 128.893 80.1277 128.931 80.0596 128.943L79.384 129.048C79.3132 129.057 79.2418 129.037 79.1854 128.993C79.129 128.949 79.0922 128.885 79.083 128.814C78.7083 126.308 78.6653 124.588 78.9479 123.698C79.4515 122.089 81.8286 116.063 84.218 115.965C86.6074 115.866 89.4882 121.665 90.127 123.231C90.4771 124.091 90.5815 125.811 90.4218 128.335C90.4171 128.406 90.385 128.473 90.3324 128.521C90.2797 128.569 90.2105 128.595 90.1392 128.593Z" fill="#0071CD"/>
<path d="M75.4098 99.9269C70.9136 99.8532 68.8375 101.37 65.9875 105.185C63.7271 108.213 54.9312 124.576 52.0136 129.355L36.1294 120.866C32.917 118.649 31.8789 115.148 29.8458 113.102C27.8127 111.057 25.7058 110.645 23.47 108.956C21.2342 107.267 20.3251 105.953 19.6802 107.531C19.0352 109.11 21.5229 111.665 21.9958 112.298C22.4688 112.93 24.9626 114.337 21.7256 114.386C18.4886 114.435 12.0821 111.081 10.5219 110.486C8.96174 109.89 9.05388 111.751 9.82167 112.943C10.5895 114.134 10.5526 117.5 11.8487 119.447C13.2184 121.511 13.9678 122.408 17.0205 123.747C19.8583 124.975 25.8164 125.467 28.8323 127.353C31.8482 129.238 39.3235 135.884 43.8688 139.871C49.6488 144.938 53.6352 145.866 56.8538 142.825C59.9802 139.551 63.1497 135.712 64.6976 133.765C68.8682 128.513 75.4651 116.567 75.4651 116.567C75.4651 116.567 78.3213 110.424 75.4098 99.9269Z" fill="#FFA8A7"/>
<path d="M76.0303 99.4785C69.4088 99.4785 67.431 101.874 64.0404 107.408C60.6498 112.943 51.9522 128.784 51.9522 128.784L39.428 122.224C39.428 122.224 37.1737 127.187 34.7782 132.303C34.7782 132.303 41.8665 138.446 45.2202 141.351C48.5739 144.256 53.021 146.535 57.1425 142.979C61.5466 139.183 75.8276 119.46 75.8276 119.46C79.2182 113.305 78.4627 103.975 76.0303 99.4785Z" fill="#F0F0F0"/>
<path d="M51.9525 128.784C53.9979 131.192 56.4733 133.9 56.3627 136.032C56.3627 136.032 57.7632 134.14 52.8431 127.168L51.9525 128.784Z" fill="#E0E0E0"/>
<path d="M28.261 69.7128L23.1383 72.6489L23.1567 66.7645L19.3239 64.5532L10.3868 69.7128V80.032L1.44962 85.1916V95.5107L5.28245 97.722L10.3868 94.7737V100.676L14.2196 102.888L23.1567 97.722V87.4028L32.0939 82.2432V71.9241L28.261 69.7128Z" fill="#0071CD"/>
<path d="M5.28258 87.4025V97.7217L14.2197 92.5621V102.887L23.1569 97.7217V87.4025L32.094 82.2429V71.9238L23.1261 77.1018L23.1569 66.7642L14.2197 71.9238V82.2429L5.28258 87.4025Z" fill="#0071CD"/>
<g opacity="0.2">
<path d="M5.28253 97.7213L1.44969 95.5101V85.1909L5.28253 87.4022V97.7213Z" fill="black"/>
<path d="M14.2198 71.9237L10.387 69.7124V80.0316L14.2198 82.2428V71.9237Z" fill="black"/>
<path d="M14.2198 102.887L10.387 100.676V94.7733L14.2198 92.562V102.887Z" fill="black"/>
</g>
<g opacity="0.5">
<path d="M14.2197 82.243L10.3868 80.0317L1.44969 85.1913L5.28253 87.4026L14.2197 82.243Z" fill="white"/>
<path d="M23.157 66.7645L19.3241 64.5532L10.387 69.7128L14.2198 71.9241L23.157 66.7645Z" fill="white"/>
<path d="M32.0942 71.9241L28.2613 69.7129L23.1386 72.6489L23.1263 77.1022L32.0942 71.9241Z" fill="white"/>
</g>
<path d="M175.26 49.0004C175.098 48.8599 174.923 48.7344 174.738 48.6258C174.087 48.2388 171.139 46.5435 170.985 46.4514C169.425 45.4563 166.956 45.6774 164.757 46.7892C161.606 48.3801 158.983 51.7399 156.98 57.3356C156.98 57.3356 154.953 55.8799 154.296 55.4929C152.668 54.6023 150.764 55.0322 148.621 56.4266C146.207 57.999 144.561 60.0383 143.056 63.1217V63.177C141.752 65.7952 141.039 68.6679 140.967 71.5921C140.967 78.06 143.615 81.1434 147.06 83.4591C148.043 84.1225 150.641 85.5168 150.899 85.6888C152.979 87.0618 155.279 88.0674 157.699 88.6617L161.096 89.4541L164.492 84.7429C166.965 81.2691 169.236 77.6555 171.292 73.92C174.738 67.6241 177.434 61.4572 177.385 55.0138C177.336 52.2559 176.544 50.2289 175.26 49.0004Z" fill="#0071CD"/>
<path opacity="0.3" d="M175.26 49.0004C175.098 48.8599 174.923 48.7344 174.738 48.6258C174.087 48.2388 171.139 46.5435 170.985 46.4514C169.425 45.4563 166.956 45.6774 164.757 46.7892C161.606 48.3801 158.983 51.7399 156.98 57.3356C156.98 57.3356 154.953 55.8799 154.296 55.4929C152.668 54.6023 150.764 55.0322 148.621 56.4266C146.207 57.999 144.561 60.0383 143.056 63.1217V63.177C141.752 65.7952 141.039 68.6679 140.967 71.5921C140.967 78.06 143.615 81.1434 147.06 83.4591C148.043 84.1225 150.641 85.5168 150.899 85.6888C152.979 87.0618 155.279 88.0674 157.699 88.6617L161.096 89.4541L164.492 84.7429C166.965 81.2691 169.236 77.6555 171.292 73.92C174.738 67.6241 177.434 61.4572 177.385 55.0138C177.336 52.2559 176.544 50.2289 175.26 49.0004Z" fill="black"/>
<path d="M175.26 49.0004C175.098 48.8599 174.923 48.7344 174.738 48.6258C174.087 48.2388 171.139 46.5435 170.985 46.4514C169.425 45.4563 166.956 45.6774 164.757 46.7892C161.606 48.3801 158.983 51.7399 156.981 57.3356C156.981 57.3356 154.954 55.8799 154.296 55.4929C152.669 54.6023 150.764 55.0322 148.621 56.4266C146.207 57.999 144.561 60.0383 143.056 63.1217V63.177C142.988 63.3122 142.933 63.4473 142.871 63.5824L168.669 78.4592C169.585 76.9728 170.475 75.4679 171.323 73.92C174.769 67.6241 177.465 61.4572 177.416 55.0138C177.336 52.2559 176.544 50.2289 175.26 49.0004Z" fill="#0071CD"/>
<path opacity="0.15" d="M175.26 49.0004C175.098 48.8599 174.923 48.7344 174.738 48.6258C174.087 48.2388 171.139 46.5435 170.985 46.4514C169.425 45.4563 166.956 45.6774 164.757 46.7892C161.606 48.3801 158.983 51.7399 156.981 57.3356C156.981 57.3356 154.954 55.8799 154.296 55.4929C152.669 54.6023 150.764 55.0322 148.621 56.4266C146.207 57.999 144.561 60.0383 143.056 63.1217V63.177C142.988 63.3122 142.933 63.4473 142.871 63.5824L168.669 78.4592C169.585 76.9728 170.475 75.4679 171.323 73.92C174.769 67.6241 177.465 61.4572 177.416 55.0138C177.336 52.2559 176.544 50.2289 175.26 49.0004Z" fill="black"/>
<path d="M156.962 57.311L160.414 61.8134L165.979 55.2288L159.689 51.5986C158.569 53.3946 157.654 55.3108 156.962 57.311Z" fill="#0071CD"/>
<path opacity="0.3" d="M156.962 57.311L160.414 61.8134L165.979 55.2288L159.689 51.5986C158.569 53.3946 157.654 55.3108 156.962 57.311Z" fill="black"/>
<path d="M175.26 49.0008C173.755 47.6556 171.016 47.7723 168.596 49.0008C165.297 50.6715 162.57 54.2771 160.531 60.3826C158.491 56.6357 155.764 56.519 152.466 58.6627C150.046 60.2352 148.4 62.2744 146.901 65.3579L146.87 65.4132C145.571 68.035 144.86 70.9091 144.788 73.8343C144.788 80.3022 147.441 83.3857 150.881 85.7014C152.961 87.0745 155.261 88.08 157.681 88.6743L161.077 89.4667L164.474 84.7555C166.947 81.2817 169.217 77.6681 171.274 73.9326C174.72 67.6367 177.416 61.4698 177.367 55.0264C177.336 52.2562 176.544 50.2292 175.26 49.0008Z" fill="#0071CD"/>
<g opacity="0.07">
<path d="M172.361 48.3861C173.308 48.3428 174.239 48.6414 174.984 49.2276C174.997 49.2541 175.016 49.2772 175.039 49.2952C176.304 50.4499 177.011 52.5015 177.017 55.0567C177.017 61.7826 173.946 68.3119 170.967 73.8032C168.926 77.5266 166.67 81.128 164.21 84.5892L160.948 89.1284L157.773 88.3852C155.389 87.7995 153.122 86.8107 151.072 85.4614C148 83.373 145.101 80.5475 145.126 73.8646C145.191 70.9908 145.88 68.1655 147.147 65.5847V65.5294C148.658 62.4275 150.285 60.4681 152.595 58.9694C153.668 58.1737 154.947 57.7045 156.28 57.6181C157.84 57.6181 159.124 58.5824 160.205 60.5664C160.232 60.6195 160.273 60.6639 160.325 60.6944C160.376 60.7248 160.434 60.7401 160.494 60.7384H160.525C160.588 60.7325 160.648 60.7085 160.698 60.6693C160.748 60.6301 160.786 60.5773 160.807 60.5173C162.754 54.6882 165.34 51.0273 168.706 49.3259C169.83 48.7372 171.074 48.4156 172.343 48.3861M172.343 48.0605C171.023 48.0878 169.728 48.4199 168.559 49.031C165.26 50.7018 162.533 54.3073 160.494 60.4128C159.315 58.2384 157.902 57.2864 156.28 57.2864C154.888 57.3779 153.552 57.866 152.429 58.693C150.009 60.2654 148.363 62.3047 146.864 65.3882L146.833 65.4434C145.534 68.0652 144.823 70.9394 144.751 73.8646C144.751 80.3325 147.405 83.416 150.844 85.7317C152.924 87.1047 155.224 88.1103 157.644 88.7046L161.041 89.4969L164.437 84.7857C166.91 81.312 169.181 77.6984 171.237 73.9629C174.683 67.667 177.379 61.5 177.33 55.0567C177.33 52.2865 176.525 50.2288 175.242 49.0495C174.431 48.389 173.406 48.0501 172.361 48.0974L172.343 48.0605Z" fill="black"/>
</g>
<path d="M174.885 66.414L168.276 70.2346L165.819 61.2974C165.785 61.1623 165.705 61.043 165.593 60.9593C165.481 60.8755 165.345 60.8323 165.205 60.8367C165.061 60.8338 164.921 60.8814 164.809 60.9712C164.697 61.061 164.62 61.1873 164.591 61.3281L160.764 78.8093L157.546 70.0011C157.539 69.8382 157.468 69.6846 157.348 69.574C157.228 69.4634 157.07 69.405 156.907 69.4115C156.744 69.418 156.59 69.4889 156.48 69.6087C156.369 69.7285 156.311 69.8874 156.317 70.0503L154.143 77.7712L146.87 81.9726C147.109 82.3204 147.368 82.6546 147.644 82.9738L155.015 78.7294C155.157 78.6468 155.263 78.5127 155.31 78.3547L157.023 72.2615L160.322 81.2662C160.366 81.3922 160.449 81.5005 160.56 81.5748C160.671 81.649 160.803 81.6852 160.936 81.6778C161.072 81.6709 161.203 81.6189 161.306 81.53C161.409 81.441 161.48 81.3201 161.507 81.1864L165.254 64.0983L167.232 71.3525C167.256 71.4458 167.301 71.5323 167.364 71.605C167.427 71.6777 167.506 71.7346 167.595 71.771C167.684 71.8075 167.78 71.8225 167.876 71.8149C167.972 71.8073 168.065 71.7772 168.147 71.7271L174.019 68.3427C174.357 67.6978 174.627 67.0589 174.885 66.414Z" fill="white"/>
<path d="M202.624 230.686C202.373 231.518 202.351 232.403 202.563 233.247C202.809 233.763 204.344 235.458 207.477 236.072C210.609 236.687 214.915 236.072 216.77 235.962C218.625 235.851 224.448 236.576 226.297 236.809C229.209 237.203 231.444 236.564 232.532 235.513C232.708 235.302 232.837 235.056 232.913 234.792C232.988 234.527 233.006 234.25 232.968 233.978C232.961 233.277 232.858 232.58 232.661 231.908L202.624 230.686Z" fill="#263238"/>
<path d="M232.182 228.861C232.237 229.101 232.292 229.346 232.341 229.592C232.625 230.828 232.714 232.1 232.605 233.364C232.231 234.285 231.205 234.795 230.376 235.053C228.183 235.753 226.518 235.667 224.092 235.182C221.652 234.826 219.187 234.674 216.721 234.727C214.811 234.856 212.182 235.225 210.272 235.047C208.647 234.979 207.044 234.651 205.524 234.076C204.252 233.535 202.95 232.848 202.637 231.521C202.262 228.757 203.423 227.541 204.731 226.767C206.04 225.993 207.901 226.054 209.891 225.925C211.691 225.802 213.005 225.802 214.608 225.679C215.994 225.612 217.372 225.421 218.724 225.108C219.952 224.727 221.181 223.186 221.684 223.13C221.684 223.13 229.7 223.069 230.462 223.13C231.346 223.204 231.617 225.944 231.727 226.539C231.813 227.006 231.832 227.51 231.954 227.958C232.034 228.259 232.108 228.56 232.182 228.861Z" fill="#37474F"/>
<path d="M207.483 234.678C207.231 232.688 206.869 228.376 210.554 225.882H211.015C209.36 225.403 207.603 225.403 205.947 225.882C203.018 226.662 201.715 229.033 202.446 231.539C202.459 231.515 203.11 233.941 207.483 234.678Z" fill="#FAFAFA"/>
<path d="M218.177 225.249C216.991 226.3 216.58 228.689 216.58 228.689C216.426 229.586 214.805 229.721 214.958 228.855C215.206 227.664 215.684 226.533 216.365 225.526C216.921 225.232 217.559 225.135 218.177 225.249Z" fill="#FAFAFA"/>
<path d="M214.854 225.661C213.96 226.536 213.376 227.679 213.189 228.916C213.024 229.776 211.672 229.764 211.771 228.916C211.771 228.916 211.924 226.797 213.189 225.808C213.435 225.651 213.714 225.556 214.004 225.53C214.294 225.505 214.585 225.55 214.854 225.661Z" fill="#FAFAFA"/>
<path d="M230.707 217.301C230.707 217.301 230.492 222.455 230.21 224.144C230.038 225.151 228.717 226.208 225.431 226.097C223.122 226.017 221.303 226.208 221.396 224.402L221.598 219.138L230.707 217.301Z" fill="#FFA8A7"/>
<path d="M235.861 205.127C235.744 206.534 235.554 207.805 236.131 209.353C236.954 211.576 238.699 212.596 239.724 213.468C240.803 214.537 241.799 215.687 242.703 216.908C243.711 218.136 243.975 218.867 245.486 220.206C246.239 220.786 247.129 221.16 248.07 221.293C249.011 221.425 249.971 221.311 250.854 220.962C252.163 220.403 252.617 219.961 252.537 217.952C252.457 215.944 246.057 215.262 246.057 215.262L235.861 205.127Z" fill="#263238"/>
<path d="M251.708 211.97C252.255 212.166 252.39 213.155 252.476 215.121C252.537 216.607 253.195 218.806 251.039 219.721C249.3 220.477 246.524 219.973 245.351 218.573C243.889 216.822 242.894 215.28 240.805 213.149C238.963 211.306 237.12 210.692 236.303 206.976C235.781 204.593 236.193 203.61 237.876 202.928C240.191 201.988 243.821 205.053 245.639 205.538C247.2 205.95 251.161 211.773 251.708 211.97Z" fill="#37474F"/>
<path d="M245.639 205.539L245.332 205.434C244.297 205.473 243.289 205.782 242.41 206.33C241.531 206.879 240.81 207.647 240.32 208.561C240.013 209.205 240.934 209.709 241.549 209.206C242.838 206.749 245.492 206.22 246.555 206.104C246.293 205.852 245.981 205.66 245.639 205.539Z" fill="#FAFAFA"/>
<path d="M247.132 206.656C246.16 206.747 245.225 207.078 244.413 207.62C243.6 208.161 242.935 208.896 242.476 209.758C242.169 210.372 243.121 210.907 243.705 210.372C244.143 209.604 244.744 208.94 245.465 208.428C246.187 207.915 247.011 207.566 247.881 207.406C247.617 207.16 247.372 206.896 247.132 206.656Z" fill="#FAFAFA"/>
<path d="M252.021 208.419L251.708 212.566C251.708 212.566 249.073 214.488 245.295 212.725C245.185 212.498 244.865 208.788 244.865 208.788L252.021 208.419Z" fill="#FFA8A7"/>
<path d="M237.366 209.709C237.366 209.709 237.544 205.305 243.803 204.697L244.165 204.887C243.453 203.783 242.36 202.979 241.094 202.627C239.018 202.093 237.372 202.627 236.278 203.941C235.185 205.256 236.285 208.855 237.366 209.709Z" fill="#FAFAFA"/>
<path d="M253.846 180.803C252.949 173.549 252.617 169.508 252.617 169.508C252.617 169.508 252.439 159.293 253.059 149.852C253.33 145.712 253.471 141.13 253.557 136.953C253.671 132.353 253.305 127.754 252.464 123.231C252.464 123.231 220.345 116.843 219.946 128.624C219.461 142.751 219.522 166.897 218.975 176.117C218.674 181.295 219.197 185.588 219.522 195.649C219.786 203.991 219.706 224.519 219.706 224.519C223.244 229.377 231.598 225.673 231.598 225.673C231.598 225.673 234.178 196.847 234.559 190.889C234.964 184.483 234.288 181.239 234.288 181.239L237.599 151.394C237.599 151.394 237.851 160.97 238.133 166.135C238.416 171.301 239.172 174.477 240.517 184.114C241.684 192.48 244.165 213.831 244.165 213.831C248.465 216.374 252.617 213.831 252.617 213.831C252.617 213.831 254.742 188.058 253.846 180.803Z" fill="#455A64"/>
<path d="M249.46 139.582C249.46 139.582 245.437 144.717 240.246 146.922C240.246 146.922 237.998 164.975 238.017 164.618L237.433 146.449C237.433 146.449 245.16 143.034 249.46 139.582Z" fill="#37474F"/>
<path d="M249.35 81.5549C252.808 80.7809 256.72 83.2502 259.325 88.7599C261.843 94.03 268.723 107.341 268.888 111.069C269.067 114.932 251.88 126.652 252.304 126.425C252.439 126.357 249.337 117.561 249.337 117.561L257.685 110.651L253.146 101.303L249.35 81.5549Z" fill="#FFA8A7"/>
<path d="M247.531 80.7259C250.443 80.3696 255.719 81.4691 257.734 84.9702C260.657 90.0377 263.323 95.8975 266.72 103.471C266.72 103.471 264.202 108.925 256.954 109.441L252.611 101.825L247.531 80.7259Z" fill="#37474F"/>
<path d="M232.876 76.1621L233.379 86.9112L244.03 86.34L243.705 73.8525L232.876 76.1621Z" fill="#FFA8A7"/>
<path d="M254.49 86.1373C253.594 83.2074 250.498 80.7935 246.585 80.6768C245.713 80.6768 243.883 80.6768 243.883 80.6768C243.44 82.4888 237.894 83.1337 233.152 82.0465C231.721 82.4273 225.781 83.8892 224.553 84.2577C221.144 85.3879 220.093 88.8645 219.565 99.9822C219.565 99.9822 219.669 121.898 219.565 132.359C225.56 135.522 234.823 135.129 241.413 134.459C251.769 133.415 253.311 129.662 253.311 129.662C252.875 123.563 253.139 121.265 253.311 115.246C253.44 110.719 254.742 105.934 255.154 100.805C255.762 93.1826 255.099 88.152 254.49 86.1373Z" fill="#0071CD"/>
<path d="M231.211 78.2013C228.754 78.0293 225.683 79.9888 224.891 84.184L226.893 83.6496L231.211 78.2013Z" fill="#0071CD"/>
<path opacity="0.3" d="M231.211 78.2013C228.754 78.0293 225.683 79.9888 224.891 84.184L226.893 83.6496L231.211 78.2013Z" fill="black"/>
<path d="M233.011 79.0979C234.853 79.7121 240.228 79.6261 242.028 79.0979C243.827 78.5696 243.809 77.7711 243.809 77.7711V76.8682C244.847 76.8653 245.861 77.1804 246.714 77.7711C247.863 78.7048 249.841 82.0708 249.785 83.6862C249.73 85.3017 246.278 89.5644 239.62 89.46C232.962 89.3556 229.221 86.8925 228.072 85.2709L226.917 83.6432C226.917 83.6432 228.496 80.4 230.05 79.0364C230.847 78.2641 231.869 77.7651 232.968 77.6114L233.011 79.0979Z" fill="#0071CD"/>
<path opacity="0.2" d="M233.011 79.0979C234.853 79.7121 240.228 79.6261 242.028 79.0979C243.827 78.5696 243.809 77.7711 243.809 77.7711V76.8682C244.847 76.8653 245.861 77.1804 246.714 77.7711C247.863 78.7048 249.841 82.0708 249.785 83.6862C249.73 85.3017 246.278 89.5644 239.62 89.46C232.962 89.3556 229.221 86.8925 228.072 85.2709L226.917 83.6432C226.917 83.6432 228.496 80.4 230.05 79.0364C230.847 78.2641 231.869 77.7651 232.968 77.6114L233.011 79.0979Z" fill="black"/>
<path d="M225.707 62.9805C225.707 62.9805 223.171 66.8317 223.459 67.2064C223.748 67.5811 225.615 67.9312 225.615 67.9312L225.707 62.9805Z" fill="#F28F8F"/>
<path d="M232.759 52.3174C227.624 53.4046 225.572 54.9095 225.253 63.6869C224.946 72.2248 226.021 75.038 227.139 76.1866C227.894 76.9606 232.102 77.1018 234.221 76.5122C236.874 75.7812 242.875 73.656 245.682 69.3686C248.987 64.3196 249.853 57.477 246.297 54.6699C241.34 50.7204 234.853 51.8751 232.759 52.3174Z" fill="#FFA8A7"/>
<path d="M227.138 76.1804C227.753 76.7947 230.695 77.0281 232.906 76.7578L232.875 75.4863C231.043 76.1622 229.079 76.3999 227.138 76.1804Z" fill="#F28F8F"/>
<path d="M224.571 55.6157C225.85 56.5328 227.437 56.9141 228.994 56.6783C228.963 57.3665 229.148 58.0472 229.522 58.6254C230.043 59.414 230.834 59.9859 231.745 60.2347C231.183 61.3366 230.885 62.5541 230.873 63.7912C230.839 64.1794 230.922 64.5691 231.113 64.9091C231.172 65.0326 231.264 65.1369 231.38 65.21C231.496 65.283 231.63 65.3218 231.767 65.3218C231.904 65.3218 232.038 65.283 232.154 65.21C232.269 65.1369 232.362 65.0326 232.421 64.9091C232.71 64.2556 233.073 63.6374 233.502 63.0664C234.059 62.4001 234.842 61.9626 235.701 61.8379C238.926 61.4878 239.331 65.7076 238.041 67.4582C235.928 70.3205 234.135 68.3795 234.135 68.3795C234.052 69.7213 234.256 71.0652 234.733 72.3222C235.209 73.5792 235.948 74.7205 236.899 75.6705C239.191 76.3459 241.621 76.4073 243.944 75.8486C246.807 71.9114 248.606 69.9949 250.136 66.5982C253.367 59.4055 251.806 54.8909 249.306 52.9867C248.815 49.676 246.205 48.1896 243.226 47.5078C238.778 46.482 234.626 49.1232 230.216 48.122C229.492 47.9705 228.777 47.7819 228.072 47.5569C227.801 47.4297 227.492 47.4099 227.206 47.5016C227.048 47.6066 226.924 47.7557 226.85 47.9304C226.776 48.1051 226.754 48.2977 226.789 48.4844C226.844 49.332 227.704 50.2718 228.14 50.7264C227.177 50.8145 226.206 50.7586 225.259 50.5605C224.93 50.4989 224.593 50.4989 224.264 50.5605C223.903 50.7075 223.598 50.965 223.393 51.2961C223.188 51.6271 223.093 52.0147 223.122 52.4032C223.125 53.0103 223.256 53.6098 223.506 54.1631C223.755 54.7164 224.118 55.2113 224.571 55.6157Z" fill="#263238"/>
<path d="M249.386 54.0554L252.457 52.2127C252.213 51.8054 251.817 51.5119 251.356 51.3967C250.895 51.2815 250.408 51.3541 250 51.5985C249.593 51.8428 249.3 52.239 249.184 52.6997C249.069 53.1605 249.142 53.6482 249.386 54.0554Z" fill="#263238"/>
<path d="M209.363 102.439C208.667 99.7034 207.995 96.9639 207.348 94.2203C206.734 91.6958 205.788 88.772 206.654 86.1922C207.146 85.0655 207.764 83.9981 208.497 83.0105C209.13 81.9694 209.665 80.8713 210.094 79.7304C210.309 79.1776 210.505 78.6125 210.708 78.0536C210.911 77.4946 211.199 77.1752 211.064 76.6408C210.616 74.8903 208.355 77.1875 207.895 77.9061C207.69 78.2834 207.452 78.6411 207.182 78.9749C206.887 79.2882 206.169 79.6813 205.825 79.2206C205.71 79.0358 205.646 78.8238 205.64 78.6064C205.407 75.9099 206.377 73.4959 207.182 70.9776C207.309 70.6469 207.386 70.2991 207.409 69.9457C207.424 69.7692 207.4 69.5916 207.34 69.4252C207.279 69.2587 207.184 69.1073 207.059 68.9813C206.859 68.8277 206.622 68.7297 206.372 68.6974C206.121 68.665 205.867 68.6994 205.634 68.797C205.18 68.9506 204.787 69.2393 204.332 69.3805C203.878 69.5218 203.54 69.5218 203.14 69.6262C202.193 69.8374 201.281 70.1828 200.432 70.652C198.957 71.5181 198.306 72.7834 197.919 74.3927C197.454 76.3694 197.297 78.406 197.453 80.4307C197.557 81.7758 197.797 83.1026 197.962 84.4293L198.515 88.8703C198.89 91.8309 199 106.622 199.51 109.564C200.02 112.506 201.003 114.478 203.331 115.454C206.709 116.83 212.17 110.614 215.272 107.396L209.363 102.439Z" fill="#FFA8A7"/>
<path d="M208.128 100.762C205.954 102.39 203.245 105.099 202.698 107.814C202.698 107.814 202.158 102.93 208.128 98.6001V100.762Z" fill="#F28F8F"/>
<path d="M224.381 84.3252C222.292 84.5218 218.853 84.5955 215.351 88.3607C211.291 92.7587 205.032 101.432 205.032 101.432C205.032 101.432 205.849 108.336 212.495 110.811C212.495 110.811 222.157 101.598 224.233 97.6296C226.309 93.6616 226.776 87.0831 224.381 84.3252Z" fill="#37474F"/>
<path d="M221.598 69.7305L218.957 68.3116L220.474 67.0156L214.989 64.4481L217.384 63.0599L211.475 59.915L214.989 63.0169L212.133 64.4481L218.576 67.2367L216.985 68.8276L221.598 69.7305Z" fill="#0071CD"/>
<path d="M222.943 66.248L221.224 64.6018L222.163 63.9077L220.652 62.1142L222.102 61.6228L221.598 59.3501L222.618 61.8009L221.598 62.2431L223.232 64.0367L222.127 64.8229L222.943 66.248Z" fill="#0071CD"/>
<path d="M221.942 72.3287L218.699 74.8594L217.501 73.0965L214.663 74.6383L213.503 72.4577L209.111 73.5818L214.191 71.1494L215.646 73.158L218.005 71.8926L218.988 73.5818L221.942 72.3287Z" fill="#0071CD"/>
<path d="M199.394 117.617C199.492 117.535 199.62 117.495 199.747 117.507C199.875 117.518 199.993 117.58 200.076 117.678C200.704 118.384 201.519 118.896 202.428 119.154C203.336 119.413 204.299 119.408 205.204 119.14C205.266 119.118 205.332 119.109 205.397 119.114C205.462 119.118 205.526 119.135 205.585 119.165C205.643 119.194 205.695 119.235 205.737 119.285C205.779 119.336 205.811 119.394 205.83 119.456C205.849 119.519 205.855 119.585 205.848 119.65C205.841 119.715 205.821 119.778 205.789 119.835C205.757 119.892 205.714 119.942 205.662 119.982C205.61 120.022 205.55 120.051 205.487 120.068C204.401 120.389 203.246 120.393 202.158 120.08C201.069 119.766 200.093 119.148 199.345 118.299C199.303 118.251 199.27 118.195 199.25 118.135C199.23 118.075 199.222 118.011 199.226 117.947C199.231 117.884 199.248 117.822 199.277 117.765C199.306 117.709 199.345 117.658 199.394 117.617Z" fill="#E0E0E0"/>
<path d="M199.885 120.866C199.971 120.794 200.08 120.755 200.192 120.755C200.304 120.755 200.413 120.794 200.499 120.866C200.999 121.228 201.572 121.476 202.178 121.592C202.784 121.709 203.408 121.692 204.006 121.542C204.133 121.518 204.265 121.546 204.371 121.618C204.478 121.691 204.552 121.802 204.578 121.929C204.59 121.991 204.59 122.055 204.578 122.117C204.565 122.179 204.541 122.238 204.505 122.291C204.47 122.344 204.424 122.389 204.371 122.423C204.318 122.458 204.259 122.482 204.197 122.494C203.457 122.666 202.688 122.673 201.945 122.515C201.202 122.357 200.503 122.037 199.897 121.579C199.849 121.538 199.809 121.487 199.78 121.43C199.751 121.374 199.734 121.312 199.73 121.248C199.725 121.185 199.733 121.121 199.754 121.061C199.774 121 199.806 120.945 199.848 120.897C199.859 120.885 199.871 120.875 199.885 120.866Z" fill="#E0E0E0"/>
<path d="M260.197 83.6369C260.14 83.6663 260.078 83.6841 260.014 83.6892C259.951 83.6943 259.887 83.6866 259.826 83.6666C259.765 83.6466 259.709 83.6146 259.661 83.5726C259.613 83.5306 259.574 83.4793 259.546 83.4219C259.097 82.5908 258.423 81.9037 257.6 81.4406C256.777 80.9774 255.839 80.7572 254.896 80.8053C254.832 80.8089 254.768 80.8 254.708 80.7789C254.648 80.7579 254.592 80.7252 254.545 80.6827C254.448 80.5969 254.39 80.4764 254.383 80.3477C254.376 80.219 254.42 80.0927 254.506 79.9965C254.591 79.9003 254.712 79.8421 254.841 79.8348C255.973 79.7756 257.098 80.0406 258.085 80.5987C259.072 81.1569 259.879 81.985 260.412 82.9858C260.468 83.101 260.477 83.2335 260.437 83.3551C260.396 83.4767 260.31 83.5778 260.197 83.6369Z" fill="#E0E0E0"/>
<path d="M260.467 80.3816C260.364 80.4357 260.245 80.4505 260.132 80.4234C260.019 80.3963 259.92 80.329 259.853 80.2342C259.456 79.7709 258.965 79.3984 258.411 79.1419C257.858 78.8854 257.256 78.751 256.647 78.7477C256.583 78.7453 256.52 78.7303 256.462 78.7037C256.404 78.6771 256.352 78.6393 256.309 78.5925C256.265 78.5458 256.232 78.4909 256.21 78.4311C256.187 78.3713 256.177 78.3077 256.18 78.244C256.182 78.1803 256.197 78.1177 256.224 78.0597C256.25 78.0018 256.288 77.9496 256.335 77.9063C256.382 77.8629 256.436 77.8292 256.496 77.8071C256.556 77.7849 256.62 77.7748 256.683 77.7772C257.441 77.7848 258.187 77.9581 258.871 78.2849C259.554 78.6117 260.158 79.0842 260.639 79.669C260.708 79.773 260.734 79.8999 260.711 80.0226C260.688 80.1454 260.618 80.2544 260.516 80.3263L260.467 80.3816Z" fill="#E0E0E0"/>
<path d="M269.054 115.786C268.992 115.674 268.978 115.541 269.014 115.418C269.049 115.295 269.132 115.191 269.244 115.129C270.053 114.642 270.707 113.936 271.13 113.092C271.554 112.248 271.728 111.302 271.634 110.362C271.626 110.299 271.631 110.235 271.649 110.173C271.666 110.112 271.696 110.054 271.736 110.005C271.776 109.955 271.826 109.914 271.882 109.883C271.938 109.853 272 109.834 272.064 109.828C272.192 109.814 272.32 109.852 272.42 109.932C272.52 110.013 272.584 110.13 272.598 110.258C272.708 111.381 272.496 112.512 271.989 113.52C271.481 114.528 270.698 115.371 269.73 115.952C269.675 115.986 269.613 116.009 269.549 116.02C269.485 116.03 269.42 116.027 269.357 116.012C269.294 115.996 269.235 115.968 269.183 115.93C269.131 115.891 269.087 115.842 269.054 115.786Z" fill="#E0E0E0"/>
<path d="M272.316 115.903C272.261 115.803 272.242 115.687 272.264 115.575C272.285 115.463 272.345 115.362 272.432 115.289C272.878 114.872 273.228 114.363 273.458 113.798C273.688 113.233 273.793 112.625 273.765 112.015C273.765 111.886 273.816 111.763 273.907 111.672C273.998 111.581 274.122 111.53 274.25 111.53C274.379 111.53 274.503 111.581 274.594 111.672C274.685 111.763 274.736 111.886 274.736 112.015C274.762 112.771 274.624 113.524 274.331 114.222C274.039 114.92 273.598 115.546 273.04 116.057C272.99 116.096 272.933 116.126 272.872 116.143C272.81 116.16 272.746 116.165 272.683 116.158C272.62 116.151 272.558 116.131 272.503 116.1C272.447 116.069 272.398 116.027 272.359 115.977L272.316 115.903Z" fill="#E0E0E0"/>
<path d="M215.812 174.305C215.927 174.363 216.014 174.463 216.056 174.585C216.097 174.707 216.089 174.84 216.033 174.956C215.644 175.816 215.508 176.769 215.641 177.703C215.774 178.637 216.17 179.515 216.783 180.232C216.866 180.331 216.906 180.459 216.896 180.587C216.886 180.716 216.825 180.836 216.727 180.92C216.63 181.003 216.504 181.045 216.376 181.036C216.249 181.027 216.13 180.967 216.046 180.871C215.309 180.007 214.835 178.951 214.678 177.827C214.521 176.703 214.689 175.558 215.161 174.526C215.219 174.411 215.32 174.324 215.442 174.282C215.563 174.241 215.696 174.249 215.812 174.305Z" fill="#E0E0E0"/>
<path d="M213.06 176.055C213.165 176.105 213.249 176.19 213.296 176.296C213.344 176.402 213.351 176.521 213.318 176.632C213.189 177.229 213.191 177.847 213.324 178.443C213.456 179.039 213.716 179.599 214.086 180.084C214.159 180.19 214.187 180.32 214.165 180.446C214.143 180.572 214.073 180.685 213.969 180.76C213.864 180.834 213.734 180.863 213.607 180.842C213.481 180.82 213.368 180.748 213.294 180.643C212.838 180.036 212.521 179.337 212.364 178.594C212.207 177.851 212.214 177.083 212.385 176.344C212.404 176.282 212.434 176.225 212.476 176.175C212.517 176.126 212.568 176.085 212.625 176.055C212.682 176.025 212.744 176.007 212.809 176.002C212.873 175.997 212.938 176.004 212.999 176.024L213.06 176.055Z" fill="#E0E0E0"/>
<path d="M179.713 5.66602C179.683 5.09326 179.518 4.53581 179.231 4.03934C178.943 3.54288 178.543 3.12153 178.061 2.80982L176.722 2.02974C176.21 1.77353 175.645 1.64014 175.073 1.64014C174.5 1.64014 173.936 1.77353 173.424 2.02974L142.313 20.0084C141.832 20.3209 141.432 20.7424 141.144 21.2387C140.857 21.735 140.691 22.2921 140.66 22.8646V38.9515C140.692 39.5239 140.858 40.0808 141.145 40.577C141.432 41.0733 141.832 41.4949 142.313 41.8077L143.658 42.5816C144.168 42.8421 144.734 42.9779 145.307 42.9779C145.88 42.9779 146.445 42.8421 146.956 42.5816L178.061 24.6091C178.543 24.2974 178.943 23.876 179.231 23.3796C179.518 22.8831 179.683 22.3256 179.713 21.7529V5.66602Z" fill="#0071CD"/>
<path opacity="0.5" d="M179.713 5.66602C179.683 5.09326 179.518 4.53581 179.231 4.03934C178.943 3.54288 178.543 3.12153 178.061 2.80982L176.722 2.02974C176.21 1.77353 175.645 1.64014 175.073 1.64014C174.5 1.64014 173.936 1.77353 173.424 2.02974L142.313 20.0084C141.832 20.3209 141.432 20.7424 141.144 21.2387C140.857 21.735 140.691 22.2921 140.66 22.8646V38.9515C140.692 39.5239 140.858 40.0808 141.145 40.577C141.432 41.0733 141.832 41.4949 142.313 41.8077L143.658 42.5816C144.168 42.8421 144.734 42.9779 145.307 42.9779C145.88 42.9779 146.445 42.8421 146.956 42.5816L178.061 24.6091C178.543 24.2974 178.943 23.876 179.231 23.3796C179.518 22.8831 179.683 22.3256 179.713 21.7529V5.66602Z" fill="white"/>
<path opacity="0.2" d="M140.66 38.9514C140.692 39.5238 140.858 40.0807 141.145 40.5769C141.432 41.0732 141.832 41.4948 142.313 41.8076L143.658 42.5815C144.122 42.8157 144.631 42.9488 145.151 42.9721C145.671 42.9954 146.19 42.9083 146.674 42.7167C145.894 43.0115 145.304 42.5754 145.304 41.6295V25.5426C145.324 24.9675 145.491 24.4071 145.789 23.9149L141.145 21.2368C140.846 21.7287 140.679 22.2893 140.66 22.8645V38.9514Z" fill="black"/>
<path opacity="0.3" d="M179.658 5.19923C179.468 4.499 178.829 4.27173 178.067 4.71398L146.956 22.6865C146.466 22.987 146.064 23.4105 145.789 23.915L141.151 21.2369C141.426 20.7341 141.826 20.3108 142.312 20.0085L173.417 2.03591C173.928 1.77544 174.493 1.63965 175.067 1.63965C175.64 1.63965 176.205 1.77544 176.716 2.03591L178.067 2.80985C178.48 3.07986 178.834 3.43082 179.107 3.84151C179.381 4.2522 179.568 4.71408 179.658 5.19923Z" fill="white"/>
<path d="M145.31 30.7455L140.673 28.0674L135.083 33.4481C134.999 33.5327 134.935 33.6354 134.897 33.7483C134.858 33.8612 134.846 33.9814 134.861 34.0997C134.875 34.2181 134.917 34.3315 134.982 34.4315C135.047 34.5314 135.134 34.6152 135.237 34.6766L139.8 37.3301C139.989 37.4289 140.202 37.4736 140.415 37.4591L145.329 36.5193V30.7455H145.31Z" fill="#0071CD"/>
<path opacity="0.5" d="M145.31 30.7455L140.673 28.0674L135.083 33.4481C134.999 33.5327 134.935 33.6354 134.897 33.7483C134.858 33.8612 134.846 33.9814 134.861 34.0997C134.875 34.2181 134.917 34.3315 134.982 34.4315C135.047 34.5314 135.134 34.6152 135.237 34.6766L139.8 37.3301C139.989 37.4289 140.202 37.4736 140.415 37.4591L145.329 36.5193V30.7455H145.31Z" fill="white"/>
<path opacity="0.3" d="M139.8 37.3299L137.343 35.9233L137.055 35.7328L135.74 34.9712L135.58 34.8729L135.23 34.6702C135.128 34.6089 135.041 34.5251 134.976 34.4251C134.911 34.3252 134.869 34.2117 134.854 34.0934C134.84 33.975 134.852 33.8548 134.89 33.7419C134.929 33.629 134.993 33.5264 135.077 33.4417L140.666 28.061L145.31 30.7452L139.72 36.1014C139.632 36.1802 139.562 36.2783 139.517 36.3882C139.472 36.498 139.452 36.6167 139.46 36.7351C139.468 36.8536 139.502 36.9688 139.561 37.0718C139.62 37.1749 139.702 37.2632 139.8 37.3299Z" fill="white"/>
<path d="M154.394 25.8009C153.753 26.2184 153.219 26.7814 152.835 27.4442C152.452 28.107 152.231 28.8509 152.189 29.6153C152.189 31.0158 153.178 31.587 154.394 30.8868C155.035 30.469 155.569 29.9058 155.951 29.243C156.333 28.5801 156.553 27.8364 156.593 27.0724C156.593 25.6596 155.611 25.1007 154.394 25.8009Z" fill="white"/>
<path d="M162.508 21.1082C161.867 21.5259 161.334 22.0892 160.952 22.752C160.57 23.4148 160.35 24.1585 160.309 24.9226C160.309 26.323 161.292 26.8943 162.508 26.1879C163.149 25.7708 163.681 25.2085 164.063 24.5468C164.446 23.8851 164.666 23.1426 164.707 22.3796C164.695 20.973 163.725 20.4018 162.508 21.1082Z" fill="white"/>
<path d="M170.623 16.4092C169.983 16.8281 169.45 17.3915 169.068 18.0541C168.686 18.7168 168.465 19.4599 168.424 20.2236C168.424 21.6302 169.406 22.1953 170.623 21.4951C171.265 21.077 171.8 20.5131 172.183 19.8491C172.566 19.1852 172.787 18.4401 172.828 17.6745C172.828 16.2802 171.839 15.709 170.623 16.4092Z" fill="white"/>
<path d="M239.595 37.2006L237.365 33.03L239.159 27.852V24.6641L233.668 27.8335V31.003L236.026 35.0938C236.065 35.1549 236.121 35.2039 236.186 35.2351L239.595 37.2006Z" fill="#0071CD"/>
<path opacity="0.2" d="M239.595 37.2006L237.365 33.03L239.159 27.852V24.6641L233.668 27.8335V31.003L236.026 35.0938C236.065 35.1549 236.121 35.2039 236.186 35.2351L239.595 37.2006Z" fill="black"/>
<path d="M256.272 4.02605C256.241 3.4549 256.076 2.89903 255.79 2.40375C255.504 1.90846 255.105 1.48778 254.626 1.176L253.287 0.402061C252.777 0.141645 252.213 0.00585938 251.64 0.00585938C251.068 0.00585938 250.504 0.141645 249.994 0.402061L218.957 18.3316C218.48 18.6472 218.082 19.0696 217.797 19.5654C217.511 20.0611 217.345 20.6166 217.311 21.1878V37.2378C217.341 37.809 217.506 38.3648 217.792 38.8601C218.078 39.3554 218.477 39.7761 218.957 40.0879L220.296 40.8618C220.807 41.117 221.371 41.2499 221.942 41.2499C222.513 41.2499 223.077 41.117 223.588 40.8618L237.101 32.9996L239.46 37.0781C239.494 37.1327 239.543 37.1766 239.6 37.205C239.658 37.2333 239.722 37.245 239.786 37.2386C239.85 37.2322 239.911 37.208 239.962 37.1688C240.013 37.1296 240.052 37.0769 240.074 37.0167L242.568 29.8363L254.595 22.9261C255.074 22.6143 255.473 22.1936 255.759 21.6984C256.046 21.2031 256.211 20.6472 256.241 20.0761L256.272 4.02605Z" fill="#0071CD"/>
<path d="M226.61 24.2956L251.425 9.96542C252.163 9.5416 252.758 9.84257 252.758 10.6411C252.725 11.0875 252.587 11.5198 252.355 11.9029C252.124 12.286 251.805 12.6091 251.425 12.8462L226.61 27.1763C225.879 27.6001 225.284 27.2992 225.284 26.5007C225.317 26.0549 225.454 25.6232 225.685 25.2402C225.915 24.8572 226.232 24.5337 226.61 24.2956Z" fill="white"/>
<path d="M226.61 30.6773L251.425 16.3533C252.163 15.9295 252.758 16.2304 252.758 17.0228C252.726 17.4703 252.588 17.9038 252.357 18.288C252.125 18.6723 251.806 18.9964 251.425 19.2341L226.61 33.5581C225.879 33.988 225.284 33.6809 225.284 32.8885C225.316 32.4417 225.453 32.0088 225.683 31.6247C225.914 31.2405 226.231 30.916 226.61 30.6773Z" fill="white"/>
<path opacity="0.2" d="M217.311 37.2373C217.341 37.8084 217.506 38.3643 217.792 38.8596C218.078 39.3549 218.477 39.7756 218.957 40.0873L220.296 40.8613C220.76 41.0945 221.268 41.2272 221.786 41.2505C222.305 41.2737 222.823 41.1872 223.306 40.9964C222.532 41.2851 221.942 40.849 221.942 39.9092V23.8592C221.962 23.2868 222.127 22.7288 222.421 22.2376L217.79 19.5596C217.495 20.053 217.33 20.613 217.311 21.1873V37.2373Z" fill="black"/>
<path opacity="0.2" d="M256.216 3.54678C256.026 2.84655 255.387 2.62543 254.625 3.06154L223.588 20.9972C223.1 21.2972 222.699 21.721 222.427 22.2257L217.796 19.5538C218.071 19.0517 218.471 18.6288 218.957 18.3253L249.988 0.389608C250.5 0.133395 251.065 0 251.637 0C252.21 0 252.774 0.133395 253.286 0.389608L254.625 1.16354C255.039 1.43152 255.393 1.78114 255.667 2.19095C255.94 2.60076 256.127 3.06214 256.216 3.54678Z" fill="white"/>
</svg>
