<svg width="290" height="272" viewBox="0 0 290 272" fill="none" xmlns="http://www.w3.org/2000/svg">
<path d="M50.0738 51.103C62.2006 51.103 72.0313 41.2723 72.0313 29.1455C72.0313 17.0187 62.2006 7.18799 50.0738 7.18799C37.947 7.18799 28.1163 17.0187 28.1163 29.1455C28.1163 41.2723 37.947 51.103 50.0738 51.103Z" fill="#EBEBEB"/>
<path d="M65.892 44.4486C74.0748 36.2658 74.0748 22.9989 65.892 14.8161C57.7092 6.63326 44.4422 6.63326 36.2594 14.8161C28.0766 22.9989 28.0766 36.2658 36.2594 44.4486C44.4422 52.6314 57.7092 52.6314 65.892 44.4486Z" fill="#DBDBDB"/>
<path d="M58.4549 47.8238C68.5001 43.749 73.34 32.3025 69.2651 22.2573C65.1903 12.2121 53.7438 7.37222 43.6986 11.4471C33.6535 15.5219 28.8136 26.9684 32.8884 37.0136C36.9632 47.0587 48.4097 51.8986 58.4549 47.8238Z" fill="white"/>
<path d="M51.3323 11.4321H50.8303V14.4044H51.3323V11.4321Z" fill="#EBEBEB"/>
<path d="M42.1897 13.749L41.7549 14L43.2406 16.5743L43.6754 16.3234L42.1897 13.749Z" fill="#EBEBEB"/>
<path d="M35.4327 20.3088L35.1818 20.7437L37.7561 22.2294L38.0071 21.7945L35.4327 20.3088Z" fill="#EBEBEB"/>
<path d="M35.8483 29.3867H32.876V29.8888H35.8483V29.3867Z" fill="#EBEBEB"/>
<path d="M37.9987 37.3303L35.4128 38.8164L35.6638 39.2532L38.2497 37.7671L37.9987 37.3303Z" fill="#EBEBEB"/>
<path d="M43.2445 42.7035L41.7597 45.2783L42.1947 45.5291L43.6795 42.9543L43.2445 42.7035Z" fill="#EBEBEB"/>
<path d="M51.3323 44.8638H50.8303V47.8361H51.3323V44.8638Z" fill="#EBEBEB"/>
<path d="M58.9103 42.7143L58.4755 42.9653L59.9616 45.5394L60.3965 45.2884L58.9103 42.7143Z" fill="#EBEBEB"/>
<path d="M64.3956 37.0344L64.1445 37.4692L66.7186 38.9554L66.9697 38.5206L64.3956 37.0344Z" fill="#EBEBEB"/>
<path d="M69.2866 29.3867H66.3076V29.8888H69.2866V29.3867Z" fill="#EBEBEB"/>
<path d="M67.0731 20.5451L64.4872 22.0312L64.7383 22.4681L67.3242 20.9819L67.0731 20.5451Z" fill="#EBEBEB"/>
<path d="M59.9649 13.7528L58.4801 16.3276L58.915 16.5784L60.3998 14.0036L59.9649 13.7528Z" fill="#EBEBEB"/>
<path d="M53.9902 23.3406L45.3799 40.2686L45.8274 40.4962L54.4377 23.5682L53.9902 23.3406Z" fill="#EBEBEB"/>
<path d="M50.0758 22.8876L49.4194 23.019L53.0908 41.3592L53.7472 41.2278L50.0758 22.8876Z" fill="#DBDBDB"/>
<path d="M286.7 22.7388H191.552V202.764H286.7V22.7388Z" fill="#EBEBEB"/>
<path d="M278.553 31.6963H199.7V145.996H278.553V31.6963Z" fill="white"/>
<path d="M204.734 220.879H198.448V202.764H209.634L204.734 220.879Z" fill="#EBEBEB"/>
<path d="M209.634 202.764L207.826 209.438H198.441V202.764H209.634Z" fill="#C7C7C7"/>
<path d="M273.512 220.879H279.798V202.764H268.611L273.512 220.879Z" fill="#EBEBEB"/>
<path d="M268.611 202.764L270.419 209.438H279.804V202.764H268.611Z" fill="#C7C7C7"/>
<path d="M278.553 154.156C272.641 154.277 266.737 154.344 260.833 154.39C254.928 154.437 249.017 154.444 243.113 154.477L243.434 154.156C243.434 157.122 243.434 160.094 243.434 163.066V171.977C243.367 177.921 243.307 183.859 243.159 189.804C243.005 183.859 242.945 177.921 242.878 171.977L242.845 163.066C242.845 160.094 242.845 157.122 242.845 154.156V153.828H243.166C249.071 153.862 254.975 153.828 260.886 153.915C266.797 154.002 272.641 154.029 278.553 154.156Z" fill="#C7C7C7"/>
<path d="M243.112 194.911C249.017 194.784 254.921 194.717 260.832 194.67C266.744 194.623 272.641 194.617 278.552 194.583L278.218 194.911C278.218 191.993 278.218 189.081 278.218 186.168L278.258 177.426C278.318 171.595 278.378 165.771 278.532 159.94C278.68 165.771 278.74 171.595 278.8 177.426L278.84 186.168C278.84 189.081 278.874 191.993 278.84 194.911V195.233H278.519C272.608 195.199 266.703 195.233 260.799 195.152C254.895 195.072 249.017 195.012 243.112 194.911Z" fill="#C7C7C7"/>
<path d="M247.076 179.039H249.76V168.757H247.076V179.039Z" fill="#C7C7C7"/>
<path d="M199.7 154.156C205.604 154.029 211.508 153.962 217.42 153.915C223.331 153.868 229.228 153.862 235.14 153.828H235.454V154.156C235.454 157.122 235.454 160.094 235.454 163.066L235.414 171.977C235.354 177.921 235.294 183.859 235.14 189.804C234.986 183.859 234.925 177.921 234.858 171.977L234.825 163.066C234.825 160.094 234.825 157.122 234.825 154.156L235.146 154.477C229.235 154.444 223.331 154.477 217.426 154.39C211.522 154.303 205.604 154.277 199.7 154.156Z" fill="#C7C7C7"/>
<path d="M235.14 194.911C229.228 195.032 223.324 195.099 217.42 195.152C211.515 195.206 205.604 195.199 199.7 195.233H199.378V194.911C199.378 191.993 199.378 189.081 199.378 186.168L199.418 177.426C199.479 171.595 199.539 165.771 199.693 159.94C199.84 165.771 199.9 171.595 199.961 177.426L200.001 186.168C200.001 189.081 200.034 191.993 200.001 194.911L199.679 194.583C205.584 194.583 211.488 194.583 217.399 194.67C223.311 194.757 229.228 194.764 235.14 194.911Z" fill="#C7C7C7"/>
<path d="M231.17 168.75H228.485V179.033H231.17V168.75Z" fill="#C7C7C7"/>
<path d="M278.553 68.2007H199.7V69.4258H278.553V68.2007Z" fill="#C7C7C7"/>
<path d="M278.553 93.0098H199.7V94.2348H278.553V93.0098Z" fill="#C7C7C7"/>
<path d="M278.553 117.819H199.7V119.044H278.553V117.819Z" fill="#C7C7C7"/>
<path d="M240.033 31.6963H238.219V145.996H240.033V31.6963Z" fill="#EBEBEB"/>
<path d="M94.7453 152.134L96.3453 161.741L107.197 220.343H108.944L101.058 161.741L99.8866 152.134H94.7453Z" fill="#EBEBEB"/>
<path d="M99.8866 152.134H94.7453L96.3453 161.741H101.058L99.8866 152.134Z" fill="#C7C7C7"/>
<path d="M60.6708 220.343H62.4181L73.2696 161.741L74.8696 152.134H69.7283L68.5568 161.741L60.6708 220.343Z" fill="#EBEBEB"/>
<path d="M69.7284 152.134L68.5569 161.741H73.2697L74.8697 152.134H69.7284Z" fill="#C7C7C7"/>
<path d="M28.123 220.343H29.8702L40.7218 161.741L42.3217 152.134H37.1804L36.0089 161.741L28.123 220.343Z" fill="#EBEBEB"/>
<path d="M36.0089 161.741H40.7217L42.3216 152.134H37.1804L36.0089 161.741Z" fill="#C7C7C7"/>
<path d="M30.8943 156.653H110.41V150.2L80.6402 148.272L70.6388 90.5732H33.9269L30.8943 156.653Z" fill="#EBEBEB"/>
<path d="M30.8943 156.653H35.2323L38.0573 90.5732H33.9269L30.8943 156.653Z" fill="#C7C7C7"/>
<path d="M145 271.133C195.038 271.133 235.602 264.333 235.602 255.944C235.602 247.555 195.038 240.754 145 240.754C94.9621 240.754 54.3984 247.555 54.3984 255.944C54.3984 264.333 94.9621 271.133 145 271.133Z" fill="#EBEBEB"/>
<path d="M37.1336 262.35C55.5826 262.35 70.5385 259.194 70.5385 255.301C70.5385 251.408 55.5826 248.252 37.1336 248.252C18.6846 248.252 3.7287 251.408 3.7287 255.301C3.7287 259.194 18.6846 262.35 37.1336 262.35Z" fill="#EBEBEB"/>
<path d="M245.683 262.35C264.132 262.35 279.088 259.194 279.088 255.301C279.088 251.408 264.132 248.252 245.683 248.252C227.234 248.252 212.278 251.408 212.278 255.301C212.278 259.194 227.234 262.35 245.683 262.35Z" fill="#EBEBEB"/>
<path d="M0 220.879L36.25 220.718L72.5 220.658L145 220.551L217.5 220.658L253.75 220.718L290 220.879L253.75 221.046L217.5 221.106L145 221.214L72.5 221.106L36.25 221.046L0 220.879Z" fill="#263238"/>
<path d="M160.826 126.348H109.426V220.778H160.826V126.348Z" fill="#455A64"/>
<path d="M160.826 126.348H109.426V132.506H160.826V126.348Z" fill="#263238"/>
<path d="M182.897 121.387H5.54962V126.354H182.897V121.387Z" fill="#455A64"/>
<path d="M16.5151 126.354L16.3477 132.507L14.1854 220.785H10.2558V126.354H16.5151Z" fill="#455A64"/>
<path d="M10.2558 126.354H16.5151L16.3477 132.507H10.2558V126.354Z" fill="#263238"/>
<path d="M178.244 126.348H160.826V220.778H178.244V126.348Z" fill="#37474F"/>
<path d="M178.244 126.348H160.826V132.506H178.244V126.348Z" fill="#263238"/>
<path d="M57.4578 182.433C55.1817 180.204 52.2429 177.513 48.7552 178.47C45.4883 179.374 44.2365 182.949 43.6473 185.921C42.8976 189.75 42.3085 193.62 41.6993 197.482C41.0901 201.345 40.5077 205.281 39.9454 209.184C39.633 211.389 39.3206 213.591 39.0082 215.791L38.5596 219.098C38.4124 220.183 38.2316 221.261 38.1714 222.352C38.1714 222.7 38.7002 222.754 38.7739 222.419C39.1956 220.578 39.3696 218.67 39.6374 216.802C39.9052 214.935 40.1797 213.053 40.4608 211.172C41.0053 207.446 41.5609 203.722 42.1277 199.999C42.6945 196.277 43.2747 192.553 43.8683 188.827C44.3703 185.667 44.6046 181.751 47.4029 179.669C48.1613 179.148 49.0401 178.829 49.9561 178.742C50.8722 178.655 51.7952 178.804 52.6379 179.173C54.4788 179.876 55.9851 181.182 57.3909 182.52C57.4377 182.541 57.498 182.474 57.4578 182.433Z" fill="#263238"/>
<path d="M54.345 180.184C54.345 180.184 49.6991 178.511 47.4029 181.898C45.1067 185.285 47.8514 193.948 69.0123 198.781C68.3893 192.167 66.6676 185.703 63.9179 179.655C59.3858 169.741 51.2789 173.49 54.345 180.184Z" fill="#407BFF"/>
<path d="M67.794 197.348C67.4752 196.753 67.1197 196.179 66.7296 195.628C66.3748 195.086 66.02 194.544 65.6585 194.001C65.384 193.593 65.1096 193.191 64.8284 192.79C64.8284 192.689 64.8284 192.589 64.8686 192.488C64.9087 192.388 64.9154 192.12 64.9422 191.939C64.9958 191.538 65.0493 191.143 65.1096 190.748C65.1698 190.353 65.2301 189.965 65.3104 189.57C65.3576 189.146 65.4496 188.729 65.5849 188.324C65.5849 188.264 65.5045 188.231 65.4911 188.324C65.4469 188.552 65.3842 188.776 65.3037 188.994L65.1631 189.529C65.0627 189.931 64.9623 190.333 64.8686 190.741C64.7749 191.149 64.7146 191.484 64.6543 191.866C64.6231 192.049 64.5963 192.229 64.574 192.408C64.1924 191.866 63.8109 191.337 63.4159 190.815C62.2912 189.335 61.0996 187.909 59.8746 186.517C59.8746 186.517 59.8746 186.517 59.8746 186.483C59.9884 184.254 59.9348 182.058 60.4302 179.869C60.4302 179.809 60.3499 179.776 60.3365 179.836C59.7771 181.897 59.5111 184.027 59.5465 186.162C59.1047 185.667 58.6629 185.178 58.2077 184.696C57.1767 183.585 56.1257 182.496 55.0546 181.429C55.0145 181.389 54.9475 181.429 54.9877 181.496C56.7684 183.411 58.4621 185.412 60.1089 187.447C58.8198 187.427 57.5305 187.474 56.2462 187.588C54.8069 187.695 53.3877 187.883 51.9618 188.077C51.9016 188.077 51.915 188.177 51.9618 188.17C53.3799 187.967 54.8078 187.839 56.2395 187.789C57.6253 187.729 58.9976 187.789 60.3766 187.789C61.267 188.893 62.1507 190.005 63.0142 191.136H61.8494C61.18 191.136 60.5574 191.196 59.9214 191.25C58.6067 191.356 57.3006 191.551 56.0119 191.832C55.9995 191.832 55.9876 191.837 55.9788 191.846C55.97 191.855 55.9651 191.867 55.9651 191.879C55.9651 191.892 55.97 191.903 55.9788 191.912C55.9876 191.921 55.9995 191.926 56.0119 191.926C57.3106 191.779 58.616 191.658 59.9214 191.611C60.544 191.611 61.1666 191.611 61.7959 191.611H62.7665C62.9463 191.637 63.1295 191.621 63.3021 191.565C63.8711 192.301 64.4401 193.044 65.0025 193.787C65.4488 194.376 65.895 194.972 66.3413 195.574C66.7899 196.19 67.1915 196.86 67.6802 197.435C67.7538 197.442 67.8141 197.395 67.794 197.348Z" fill="#263238"/>
<path d="M56.3666 184.964C55.6169 184.862 54.86 184.824 54.1039 184.85C53.3475 184.85 52.5977 184.85 51.8412 184.897C51.7743 184.897 51.7743 184.997 51.8412 184.991C52.6044 184.937 53.3675 184.924 54.1374 184.937C54.9072 184.95 55.6168 185.017 56.3599 184.997C56.3934 184.997 56.3934 184.964 56.3666 184.964Z" fill="#263238"/>
<path d="M63.0074 186.664C63.0945 185.941 63.1882 185.218 63.3422 184.508C63.3422 184.441 63.2551 184.415 63.2484 184.508C63.1413 185.218 63.0007 185.921 62.8936 186.637C62.8401 186.992 62.7932 187.347 62.7531 187.708C62.6873 188.039 62.6581 188.376 62.666 188.712C62.666 188.728 62.6724 188.744 62.6837 188.755C62.695 188.766 62.7103 188.773 62.7263 188.773C62.7423 188.773 62.7576 188.766 62.7689 188.755C62.7802 188.744 62.7865 188.728 62.7865 188.712C62.8512 188.379 62.8893 188.041 62.9003 187.702C62.9338 187.354 62.9673 187.012 63.0074 186.664Z" fill="#263238"/>
<path d="M61.6151 178.658C61.4343 179.327 61.2469 180.077 61.1197 180.793C61.0527 181.155 60.9992 181.516 60.9456 181.884C60.8799 182.237 60.8574 182.597 60.8787 182.956C60.8787 182.956 60.9255 182.956 60.9322 182.956C61.0156 182.621 61.0716 182.281 61.0996 181.938C61.1465 181.583 61.2 181.235 61.2603 180.887C61.3875 180.151 61.5213 179.421 61.7088 178.691C61.7222 178.631 61.6352 178.598 61.6151 178.658Z" fill="#263238"/>
<path d="M34.0677 221.569C33.9472 220.23 33.82 218.891 33.6794 217.552C33.4049 214.914 33.0769 212.284 32.7288 209.659C32.3807 207.035 32.0594 204.418 31.6176 201.807C31.4577 200.602 31.1866 199.414 30.8075 198.259C30.6684 197.758 30.4145 197.296 30.0659 196.91C29.7173 196.525 29.2836 196.225 28.7992 196.036C26.3089 195.173 24.6353 197.757 23.6245 199.584C23.6245 199.638 23.678 199.678 23.7115 199.631C24.314 198.761 25.9742 196.338 27.862 196.445C29.1339 196.525 30.1515 197.422 30.7607 200.595C32.2803 208.488 33.6526 224.508 33.8133 225.552C33.8936 226.107 34.2886 226.087 34.2953 225.492C34.3355 224.186 34.1815 222.874 34.0677 221.569Z" fill="#263238"/>
<path d="M24.3342 198.607C24.3342 198.607 26.5099 190.895 21.6966 194.764C13.6634 201.158 13.409 215.068 13.409 215.068C13.409 215.068 27.6412 206.801 29.4085 201.352C32.0461 193.231 24.3342 198.607 24.3342 198.607Z" fill="#407BFF"/>
<path d="M27.0252 202.376C25.9073 202.604 24.7759 202.751 23.6781 202.918L22.0714 203.139C21.7166 203.193 21.3484 203.226 20.9869 203.266C22.0446 201.807 23.1157 200.354 24.1333 198.861C24.1734 198.808 24.0797 198.748 24.0329 198.794C23.1897 199.664 22.3963 200.58 21.6564 201.539L21.0271 199.752C20.7861 199.082 20.525 198.379 20.3577 197.676C20.3577 197.616 20.2506 197.643 20.2639 197.676C20.4581 198.379 20.5987 199.096 20.7861 199.805C20.9735 200.515 21.1744 201.144 21.4154 201.814C20.8932 202.483 20.3911 203.186 19.9091 203.882C19.6614 203.213 19.3602 202.543 19.146 201.814C19.146 201.753 19.0322 201.814 19.0523 201.814C19.3066 202.597 19.4472 203.407 19.6882 204.19C19.3602 204.665 19.0188 205.147 18.7175 205.629C18.1485 206.513 17.6063 207.417 17.0707 208.307C17.0304 208.325 16.997 208.356 16.9754 208.394C16.9537 208.433 16.9449 208.477 16.9502 208.521C16.0465 210.081 15.1963 211.661 14.3528 213.248C14.3528 213.308 14.4064 213.355 14.4331 213.294C15.2766 211.721 16.2205 210.195 17.1979 208.689C17.35 208.64 17.5072 208.608 17.6665 208.595L18.1552 208.488C18.5234 208.408 18.8916 208.314 19.2531 208.227C19.9761 208.046 20.6924 207.872 21.4221 207.751C21.4823 207.751 21.4221 207.644 21.4221 207.658C20.5585 207.818 19.6949 207.919 18.8247 208.019C18.4163 208.066 18.0079 208.12 17.5996 208.187H17.5393C18.0481 207.41 18.5703 206.64 19.0924 205.877C19.6146 205.114 20.1434 204.384 20.679 203.648C21.1677 203.574 21.6564 203.447 22.1518 203.353L23.7986 203.032C24.9031 202.811 26.001 202.563 27.1056 202.363C27.1123 202.456 27.0855 202.363 27.0252 202.376Z" fill="#263238"/>
<path d="M18.4766 203.132C18.4163 202.932 18.3494 202.731 18.2891 202.523C18.1563 202.101 18.0468 201.672 17.9611 201.238C17.9611 201.178 17.854 201.205 17.8674 201.238C17.9611 201.673 18.0615 202.102 18.162 202.537C18.2541 202.972 18.3794 203.399 18.5368 203.815C18.5472 203.832 18.5628 203.845 18.5812 203.851C18.5996 203.858 18.6198 203.858 18.6383 203.852C18.6569 203.846 18.6729 203.834 18.6836 203.817C18.6943 203.801 18.6992 203.781 18.6975 203.762C18.6306 203.568 18.5435 203.353 18.4766 203.132Z" fill="#263238"/>
<path d="M28.5181 200.602C27.8487 200.696 27.1792 200.742 26.5567 200.796C25.9341 200.85 25.2178 200.95 24.6019 201.044V201.104C25.2713 201.057 25.9408 201.01 26.5633 200.923C27.1859 200.836 27.8621 200.742 28.5181 200.696C28.5181 200.689 28.5181 200.588 28.5181 200.602Z" fill="#263238"/>
<path d="M44.5378 211.842C44.2901 206.185 43.9286 200.542 43.3595 194.905C43.0784 192.1 42.7638 189.295 42.3688 186.504C42.0145 183.758 41.471 181.04 40.7421 178.37C40.2493 176.297 39.3381 174.347 38.0643 172.64C37.4304 171.81 36.5957 171.155 35.6389 170.737C34.6821 170.319 33.6345 170.151 32.595 170.25C30.1181 170.558 28.1232 172.117 26.4027 173.811C24.468 175.712 22.694 177.787 20.9066 179.836C20.4514 180.351 20.0029 180.867 19.5678 181.389C19.5276 181.436 19.5678 181.503 19.6414 181.456C21.3886 179.448 23.2095 177.486 25.1174 175.618C26.8713 173.891 28.6855 172.004 31.1423 171.287C32.2755 170.927 33.4883 170.899 34.6368 171.207C35.5491 171.496 36.3705 172.017 37.02 172.72C38.3161 174.225 39.2342 176.017 39.6977 177.948C41.224 183.15 41.7663 188.599 42.3286 193.968C42.8909 199.337 43.2926 204.893 43.5671 210.369C43.8415 215.845 44.0558 221.395 44.5846 226.884C44.6516 227.553 44.7386 228.223 44.8256 228.892C44.8859 229.347 45.5888 229.347 45.5553 228.892C45.0532 223.209 44.7921 217.532 44.5378 211.842Z" fill="#263238"/>
<path d="M26.0613 174.427C26.0613 174.427 29.2947 168.449 25.4789 166.527C21.6631 164.606 8.88355 178.845 5.15479 199.718C5.15479 199.718 25.7868 190.594 32.7958 181.496C39.8048 172.398 31.8653 170.397 26.0613 174.427Z" fill="#407BFF"/>
<path d="M29.1005 179.287C26.7776 179.287 24.468 179.113 22.1451 179.126L23.484 177.633C24.1331 176.972 24.7391 176.27 25.2981 175.531C25.2981 175.478 25.2981 175.411 25.2178 175.451C24.5871 175.99 24.0006 176.579 23.4639 177.212C22.8815 177.827 22.2991 178.443 21.73 179.066C20.8397 180.023 19.9694 181.001 19.1058 181.978C19.1058 181.884 19.1058 181.791 19.1058 181.697C19.1058 181.288 19.1058 180.887 19.1058 180.478V178.122C19.1058 176.522 19.1058 174.922 19.233 173.329C19.233 173.269 19.1393 173.275 19.1326 173.329C19.0255 174.929 18.8582 176.515 18.7778 178.122C18.7778 178.905 18.7243 179.695 18.7109 180.478C18.7109 180.887 18.7109 181.295 18.7109 181.697C18.7109 181.918 18.7109 182.152 18.7109 182.366C18.577 182.52 18.4364 182.667 18.2958 182.821C16.4482 184.937 14.6876 187.126 12.9738 189.348C12.9738 189.228 12.9738 189.101 12.9738 188.98L12.8935 188.244C12.8332 187.715 12.7596 187.186 12.6792 186.657C12.5989 186.128 12.5253 185.66 12.4449 185.164C12.3646 184.669 12.2106 184.04 12.1705 183.478C12.1705 183.465 12.1655 183.453 12.1568 183.444C12.148 183.436 12.136 183.431 12.1236 183.431C12.1112 183.431 12.0993 183.436 12.0905 183.444C12.0817 183.453 12.0768 183.465 12.0768 183.478C12.1748 184.04 12.2397 184.608 12.2709 185.178L12.4115 186.711C12.4583 187.22 12.5052 187.728 12.5588 188.244C12.5588 188.485 12.6056 188.733 12.6324 188.974L12.6726 189.342C12.684 189.446 12.7183 189.547 12.773 189.636L11.8893 190.788C10.7245 192.334 9.57306 193.901 8.42163 195.474C8.42163 195.521 8.42163 195.588 8.49527 195.541C9.57976 194.122 10.6977 192.729 11.8425 191.35C12.6926 191.35 13.5562 191.35 14.4064 191.31C15.2566 191.27 16.1938 191.31 17.0841 191.31C17.0966 191.31 17.1085 191.305 17.1173 191.296C17.1261 191.287 17.131 191.275 17.131 191.263C17.131 191.251 17.1261 191.239 17.1173 191.23C17.1085 191.221 17.0966 191.216 17.0841 191.216H14.4064C13.5897 191.216 12.7529 191.176 11.9429 191.216C12.9426 190.007 13.9467 188.8 14.9553 187.595C15.3235 187.159 15.6984 186.724 16.0666 186.256C16.4081 186.304 16.7537 186.315 17.0975 186.289H18.3226C19.0791 186.289 19.8422 186.289 20.6054 186.256C22.1786 186.256 23.7584 186.182 25.3316 186.175C25.344 186.175 25.356 186.17 25.3647 186.162C25.3735 186.153 25.3785 186.141 25.3785 186.128C25.3785 186.116 25.3735 186.104 25.3647 186.095C25.356 186.087 25.344 186.082 25.3316 186.082C23.7517 186.082 22.1786 185.995 20.5987 185.954C19.8355 185.954 19.0724 185.908 18.3092 185.901H17.0908C16.8565 185.901 16.6222 185.901 16.4214 185.901C17.285 184.877 18.1485 183.846 19.0188 182.821C19.0378 182.807 19.0538 182.789 19.0657 182.768C19.9092 181.768 20.7571 180.773 21.6095 179.782L21.9643 179.381C24.3676 179.454 26.7709 179.294 29.1742 179.34C29.1782 179.331 29.1788 179.32 29.1759 179.31C29.173 179.3 29.1669 179.291 29.1584 179.285C29.1499 179.279 29.1396 179.275 29.1291 179.276C29.1186 179.276 29.1085 179.28 29.1005 179.287Z" fill="#263238"/>
<path d="M27.909 183.384H27.3466C27.2931 183.384 27.2998 183.471 27.3466 183.471H27.909C27.9759 183.484 27.9759 183.384 27.909 183.384Z" fill="#263238"/>
<path d="M26.6638 183.39C25.9207 183.39 25.1777 183.39 24.4346 183.343L23.3166 183.31C22.9744 183.266 22.628 183.266 22.2857 183.31C22.2768 183.31 22.2683 183.314 22.262 183.32C22.2558 183.326 22.2522 183.335 22.2522 183.343C22.2522 183.352 22.2558 183.361 22.262 183.367C22.2683 183.373 22.2768 183.377 22.2857 183.377C22.6266 183.448 22.9757 183.473 23.3233 183.451H24.4346H26.6638C26.6699 183.442 26.6731 183.431 26.6731 183.42C26.6731 183.41 26.6699 183.399 26.6638 183.39Z" fill="#263238"/>
<path d="M20.177 190.353C18.667 190.106 17.1411 189.97 15.6114 189.944V189.978C17.131 190.125 18.6507 190.205 20.1502 190.446C20.1626 190.45 20.176 190.448 20.1873 190.442C20.1986 190.436 20.2069 190.425 20.2104 190.413C20.214 190.401 20.2125 190.387 20.2062 190.376C20.1999 190.365 20.1894 190.356 20.177 190.353Z" fill="#263238"/>
<path d="M13.9713 183.719C13.9713 183.585 13.9713 183.451 13.9244 183.317C13.8909 183.023 13.8441 182.721 13.7972 182.427C13.7035 181.858 13.6031 181.295 13.496 180.733C13.496 180.68 13.3955 180.693 13.4022 180.733C13.4759 181.315 13.5361 181.898 13.5964 182.487C13.5964 182.775 13.6432 183.063 13.67 183.344C13.6586 183.634 13.6994 183.925 13.7905 184.201C13.8307 184.288 13.9646 184.248 13.9913 184.167C14.0177 184.018 14.0108 183.865 13.9713 183.719Z" fill="#263238"/>
<path d="M44.3369 166.748C43.6005 165.369 42.6566 163.555 40.8157 163.669C39.2961 163.769 38.6065 165.322 38.2852 166.601C37.2744 170.571 37.2208 174.761 37.0133 178.845C36.5982 187.447 36.2234 196.056 36.1698 204.665C36.1698 207.048 36.1698 209.438 36.1698 211.821C36.1698 214.204 36.1698 216.708 36.3372 219.138C36.3452 219.179 36.3673 219.216 36.3996 219.243C36.432 219.27 36.4726 219.284 36.5146 219.284C36.5565 219.284 36.5971 219.27 36.6295 219.243C36.6618 219.216 36.6839 219.179 36.692 219.138C36.692 217.056 36.6317 214.974 36.625 212.892C36.6183 210.81 36.625 208.829 36.6652 206.794C36.7321 202.683 36.8415 198.571 36.9932 194.456C37.1472 190.366 37.3279 186.282 37.502 182.192L37.7631 176.067C37.8568 174.058 37.9371 172.104 38.1647 170.135C38.2919 169.031 38.4593 167.933 38.6869 166.842C38.8027 166.036 39.1308 165.276 39.6375 164.639C39.9892 164.296 40.4508 164.089 40.9409 164.053C41.4309 164.017 41.9177 164.156 42.3152 164.445C43.1642 165.037 43.8355 165.85 44.2566 166.795C44.2834 166.849 44.3637 166.795 44.3369 166.748Z" fill="#263238"/>
<path d="M43.8416 166.126C43.8416 166.126 42.322 160.77 45.6759 163.448C51.2523 167.9 51.4464 177.593 51.4464 177.593C51.4464 177.593 41.532 171.836 40.3003 168.034C38.466 162.343 43.8416 166.126 43.8416 166.126Z" fill="#407BFF"/>
<path d="M49.3643 173.583L49.0832 173.148C49.0932 172.996 49.0932 172.844 49.0832 172.693C49.0832 172.458 49.0832 172.231 49.0832 172.023C49.0832 171.568 49.0832 171.12 49.13 170.684C49.13 170.624 49.043 170.624 49.0363 170.684C49.0363 171.133 48.9961 171.575 48.9828 172.023V172.693C48.9828 172.773 48.9828 172.873 48.9828 172.974C48.5945 172.371 48.1928 171.776 47.7778 171.186C47.6573 171.012 47.5368 170.845 47.4096 170.678C47.3627 170.096 47.3627 169.512 47.4096 168.93C47.4096 168.308 47.4096 167.685 47.4096 167.069C47.4096 167.003 47.3159 167.009 47.3159 167.069C47.3159 167.739 47.269 168.361 47.2355 169.011C47.1954 169.469 47.182 169.93 47.1954 170.39C46.2381 169.091 45.2205 167.833 44.1963 166.587C44.1628 166.547 44.0892 166.587 44.1226 166.648C44.7586 167.451 45.3678 168.281 45.9636 169.118C44.7988 168.843 43.6139 168.689 42.429 168.515C42.3687 168.515 42.3419 168.602 42.429 168.609C43.6875 168.797 44.9193 169.111 46.1577 169.386C46.6263 170.055 47.1016 170.725 47.5635 171.394C47.7577 171.668 47.9384 171.95 48.1259 172.224H48.0723L47.6907 172.171C47.4163 172.137 47.1418 172.117 46.8673 172.097C46.2916 172.05 45.7226 172.023 45.1469 171.99C45.1345 171.99 45.1225 171.995 45.1137 172.004C45.105 172.012 45.1 172.024 45.1 172.037C45.1 172.049 45.105 172.061 45.1137 172.07C45.1225 172.079 45.1345 172.084 45.1469 172.084C45.7159 172.084 46.2715 172.144 46.8339 172.204C47.1284 172.204 47.423 172.278 47.7242 172.311L48.1058 172.358H48.2196L49.1769 173.764C49.7325 174.587 50.2346 175.478 50.8304 176.274C50.8706 176.321 50.9375 176.274 50.9107 176.227C50.4449 175.318 49.9286 174.435 49.3643 173.583Z" fill="#263238"/>
<path d="M46.8942 167.538C46.8942 167.331 46.8942 167.123 46.8942 166.916C46.8842 166.469 46.9021 166.021 46.9478 165.577C46.9478 165.564 46.9428 165.552 46.934 165.544C46.9252 165.535 46.9133 165.53 46.9009 165.53C46.8885 165.53 46.8765 165.535 46.8678 165.544C46.859 165.552 46.854 165.564 46.854 165.577C46.854 166.005 46.8072 166.44 46.7871 166.875C46.7871 167.09 46.7871 167.31 46.7871 167.545C46.7871 167.645 46.7871 167.746 46.7871 167.846C46.7702 167.948 46.7702 168.052 46.7871 168.154C46.7871 168.165 46.7913 168.175 46.7988 168.182C46.8064 168.19 46.8166 168.194 46.8273 168.194C46.8379 168.194 46.8481 168.19 46.8557 168.182C46.8632 168.175 46.8674 168.165 46.8674 168.154C46.884 168.059 46.884 167.961 46.8674 167.866L46.8942 167.538Z" fill="#263238"/>
<path d="M45.6691 169.761C45.2987 169.703 44.9255 169.665 44.5511 169.647C44.1427 169.607 43.7344 169.574 43.326 169.52C43.2591 169.52 43.2457 169.614 43.326 169.614C44.1093 169.667 44.8925 169.808 45.6758 169.835C45.6827 169.831 45.6884 169.825 45.6921 169.818C45.6959 169.811 45.6975 169.803 45.6968 169.796C45.6961 169.788 45.6931 169.78 45.6881 169.774C45.6832 169.768 45.6766 169.763 45.6691 169.761Z" fill="#263238"/>
<path d="M48.782 169.787C48.7954 169.856 48.7954 169.926 48.782 169.995V170.142C48.782 170.269 48.782 170.39 48.782 170.517V170.892C48.7618 171 48.7618 171.112 48.782 171.22C48.782 171.22 48.782 171.22 48.8222 171.22C48.8352 171.167 48.8352 171.112 48.8222 171.059V170.892C48.8222 170.765 48.8222 170.638 48.8222 170.517V169.968C48.8222 169.915 48.8222 169.807 48.8222 169.761C48.8222 169.714 48.7218 169.7 48.782 169.787Z" fill="#263238"/>
<path d="M44.5846 195.3C42.496 193.74 40.6215 191.491 37.8166 191.377C35.507 191.29 33.8803 193.031 32.9565 194.972C32.491 196.004 32.1104 197.072 31.8184 198.165C31.4034 199.629 31.0106 201.102 30.6402 202.584C29.9038 205.502 29.279 208.434 28.7658 211.38C28.4846 213.027 28.2236 214.674 28.016 216.334C27.7531 218.014 27.59 219.708 27.5273 221.408C27.5322 221.47 27.5584 221.528 27.6015 221.573C27.6446 221.618 27.7019 221.646 27.7636 221.653C27.8253 221.66 27.8876 221.646 27.9397 221.612C27.9919 221.578 28.0307 221.528 28.0495 221.468C28.3307 220.083 28.4445 218.65 28.652 217.251C28.8595 215.852 29.067 214.433 29.3214 213.027C29.7945 210.215 30.3479 207.421 30.9816 204.645C31.5774 202.021 32.1665 199.357 32.9899 196.8C33.5924 194.972 34.5698 192.83 36.5447 192.174C39.5571 191.17 42.2884 193.72 44.4909 195.374C44.5846 195.407 44.6181 195.34 44.5846 195.3Z" fill="#263238"/>
<path d="M42.4089 193.807C42.4089 193.807 40.4877 188.317 43.2658 187.24C47.4364 185.626 58.3415 197.91 56.206 216.695C56.206 216.695 47.7778 212.056 41.5588 206.834C35.3397 201.612 33.7464 194.784 36.4844 193.03C39.2224 191.276 42.4089 193.807 42.4089 193.807Z" fill="#407BFF"/>
<path d="M54.9475 212.692C54.6549 212.036 54.3149 211.403 53.93 210.797C53.5752 210.128 53.2137 209.512 52.8455 208.876C52.1225 207.637 51.3995 206.392 50.6564 205.167L50.2949 204.571C50.2949 204.498 50.2949 204.424 50.3418 204.35L50.4623 203.808C50.556 203.4 50.6296 202.985 50.7033 202.576C50.8572 201.773 50.9911 200.956 51.212 200.166C51.212 200.154 51.2071 200.142 51.1983 200.133C51.1895 200.125 51.1776 200.12 51.1652 200.12C51.1528 200.12 51.1408 200.125 51.1321 200.133C51.1233 200.142 51.1183 200.154 51.1183 200.166C50.9443 200.97 50.6899 201.766 50.4489 202.55C50.3284 202.938 50.2079 203.326 50.1008 203.721C50.1008 203.855 50.0338 203.989 49.9937 204.123C49.1033 202.65 48.1929 201.191 47.2088 199.778C47.2718 199.584 47.3035 199.38 47.3025 199.176L47.403 198.352C47.4766 197.73 47.5435 197.114 47.6373 196.498C47.7969 195.284 48.0203 194.08 48.3067 192.89C48.3067 192.829 48.2331 192.816 48.213 192.89C47.9184 194.075 47.5904 195.259 47.3628 196.458C47.2557 197.047 47.1486 197.643 47.0682 198.232C47.0281 198.533 47.0013 198.828 46.9678 199.129C46.9678 199.216 46.9678 199.31 46.9678 199.397C46.6666 198.968 46.3653 198.546 46.044 198.131C45.0867 196.866 44.0892 195.628 43.0784 194.396C43.0784 194.349 42.9646 194.396 43.0048 194.449C44.7279 196.654 46.3088 198.966 47.7377 201.371C48.0188 201.813 48.2866 202.255 48.5611 202.71L48.2866 202.677C47.9385 202.637 47.577 202.61 47.2289 202.576L45.1001 202.396C43.6809 202.282 42.255 202.195 40.8425 202.041C40.7822 202.041 40.7621 202.128 40.8425 202.135C42.2818 202.302 43.7077 202.53 45.1336 202.737C45.803 202.838 46.5394 202.931 47.249 203.018C47.7824 203.126 48.3249 203.182 48.869 203.186C49.4313 204.078 49.9892 204.984 50.5426 205.904C50.4179 205.893 50.2925 205.893 50.1677 205.904H48.1594C47.2423 205.904 46.3319 205.904 45.4147 205.904C45.3545 205.904 45.3679 205.997 45.4147 205.997C46.3385 205.997 47.2624 206.058 48.1862 206.104C48.628 206.104 49.0632 206.151 49.5251 206.185L50.1945 206.232C50.3843 206.272 50.5804 206.272 50.7702 206.232C51.2455 207.001 51.7275 207.771 52.1961 208.541C52.6647 209.311 53.0731 209.96 53.535 210.663C53.9587 211.414 54.4375 212.132 54.9676 212.812C54.9755 212.811 54.9831 212.808 54.9899 212.804C54.9967 212.799 55.0026 212.794 55.0072 212.787C55.0119 212.781 55.0152 212.773 55.0171 212.766C55.0189 212.758 55.0191 212.75 55.0178 212.742C55.0165 212.734 55.0136 212.726 55.0094 212.72C55.0051 212.713 54.9996 212.707 54.993 212.702C54.9865 212.697 54.9791 212.694 54.9713 212.692C54.9635 212.691 54.9554 212.69 54.9475 212.692Z" fill="#263238"/>
<path d="M50.9309 197.482C50.8459 198.088 50.7206 198.687 50.556 199.276C50.3953 199.885 50.2213 200.488 50.0204 201.084C50.0178 201.091 50.0167 201.099 50.0171 201.107C50.0175 201.115 50.0195 201.123 50.0229 201.13C50.0263 201.137 50.0311 201.143 50.037 201.149C50.0429 201.154 50.0498 201.158 50.0573 201.161C50.0647 201.163 50.0726 201.165 50.0806 201.164C50.0885 201.164 50.0962 201.162 50.1034 201.158C50.1105 201.155 50.1169 201.15 50.1222 201.144C50.1275 201.138 50.1316 201.131 50.1342 201.124C50.3217 200.528 50.489 199.932 50.6363 199.323C50.7836 198.714 50.8773 198.105 51.0246 197.502C51.038 197.442 50.9376 197.422 50.9309 197.482Z" fill="#263238"/>
<path d="M44.7385 201.157C44.6109 201.05 44.4499 200.991 44.2833 200.99L43.4867 200.883L42.0072 200.702C40.9763 200.582 39.9521 200.481 38.9211 200.354C38.8609 200.354 38.8475 200.441 38.9211 200.448C39.8918 200.562 40.8491 200.709 41.8198 200.836L43.239 201.023L43.9084 201.097C44.173 201.097 44.4356 201.143 44.685 201.231C44.7385 201.258 44.772 201.191 44.7385 201.157Z" fill="#263238"/>
<path d="M50.9175 209.438C50.4288 209.392 49.9401 209.378 49.4581 209.365H48.7217H48.3669C48.2155 209.378 48.0631 209.378 47.9117 209.365C47.8381 209.365 47.8314 209.472 47.9117 209.458C48.0542 209.445 48.1976 209.445 48.3401 209.458H48.7217L49.4581 209.505C49.9468 209.505 50.4355 209.566 50.9175 209.566C50.971 209.539 50.9777 209.438 50.9175 209.438Z" fill="#263238"/>
<path d="M53.883 207.329C53.9455 207.053 53.999 206.778 54.0437 206.506L54.3449 204.873C54.3449 204.86 54.34 204.848 54.3312 204.839C54.3224 204.831 54.3105 204.826 54.2981 204.826C54.2856 204.826 54.2737 204.831 54.2649 204.839C54.2561 204.848 54.2512 204.86 54.2512 204.873L53.8897 206.459C53.8295 206.72 53.7759 206.988 53.7157 207.249C53.7157 207.376 53.6688 207.497 53.642 207.617C53.6023 207.743 53.5886 207.875 53.6018 208.006C53.6018 208.052 53.6755 208.086 53.7023 208.006C53.8043 207.793 53.8656 207.564 53.883 207.329Z" fill="#263238"/>
<path d="M52.7651 223.55L52.2964 231.329L50.9107 254.29H22.5199L21.1342 231.329L20.6656 223.55H52.7651Z" fill="#455A64"/>
<path d="M52.7651 223.55L52.2964 231.329H21.1342L20.6656 223.55H52.7651Z" fill="#263238"/>
<path d="M54.9407 218.047H18.4966V225.833H54.9407V218.047Z" fill="#455A64"/>
<path d="M140.729 216.052C140.729 216.052 136.813 244.872 136.813 244.892C136.739 250.408 136.578 255.241 136.264 257.731C136.267 257.745 136.267 257.758 136.264 257.772C136.258 258.362 136.111 258.943 135.835 259.465L135.802 259.505C134.148 260.59 90.0793 261.313 88.5329 260.844C86.9865 260.376 88.2719 255.911 89.9588 254.518C91.6458 253.126 108.402 245.3 108.402 245.3L112.592 216.514L140.729 216.052Z" fill="#AD6359"/>
<path d="M136.752 248.466C136.665 252.483 136.511 255.83 136.264 257.758C136.267 257.771 136.267 257.785 136.264 257.798C136.258 258.389 136.111 258.97 135.835 259.492C135.835 259.492 135.835 259.492 135.835 259.525C134.175 260.617 90.1061 261.333 88.5597 260.864C87.0133 260.396 88.2986 255.931 89.9856 254.538C90.7956 253.869 95.0532 251.74 99.2707 249.691C97.9318 250.742 96.5929 252.034 97.2021 252.557C98.2531 253.427 124.977 252.483 136.752 248.466Z" fill="#0071CD"/>
<path d="M101.721 248.466C101.721 248.466 109.52 244.918 122.895 251.338L101.721 248.466Z" fill="#0071CD"/>
<path d="M147.316 235.915L108.911 235.299L128.237 91.1958H154.272L147.316 235.915Z" fill="#37474F"/>
<path d="M154.272 91.1958L149.338 193.847L136.391 91.1958H154.272Z" fill="#37474F"/>
<path d="M145.469 229.24C144.31 229.113 143.125 229.12 141.961 229.073C140.796 229.026 139.725 229.013 138.613 228.993C136.297 228.952 133.988 228.912 131.671 228.886C127.099 228.845 122.527 228.812 117.955 228.825C115.357 228.825 112.773 228.912 110.176 229.026C110.162 229.03 110.151 229.039 110.142 229.05C110.134 229.062 110.13 229.076 110.13 229.09C110.13 229.104 110.134 229.118 110.142 229.129C110.151 229.14 110.162 229.149 110.176 229.153C114.775 229.428 119.367 229.501 123.973 229.562C128.579 229.622 133.117 229.635 137.69 229.629C138.975 229.629 140.254 229.629 141.539 229.629C142.824 229.629 144.176 229.629 145.469 229.508C145.504 229.508 145.538 229.494 145.563 229.469C145.588 229.444 145.602 229.41 145.602 229.374C145.602 229.339 145.588 229.305 145.563 229.28C145.538 229.254 145.504 229.24 145.469 229.24Z" fill="#455A64"/>
<path d="M133.151 98.7067C130.888 115.074 128.793 131.456 126.57 147.83C124.348 164.204 122.005 180.411 119.635 196.699C118.296 205.837 116.91 214.961 115.685 224.146C115.685 224.286 115.879 224.34 115.906 224.199C118.899 207.952 121.262 191.584 123.638 175.237C126.015 158.889 128.19 142.649 130.205 126.321C131.337 117.15 132.435 107.972 133.365 98.7804C133.379 98.613 133.171 98.5862 133.151 98.7067Z" fill="#455A64"/>
<path d="M154.305 216.474C154.305 216.474 158 243.954 158 243.974C158.034 249.484 158.161 254.317 158.462 256.814C158.46 256.827 158.46 256.841 158.462 256.854C158.471 257.445 158.613 258.026 158.877 258.555C158.877 258.555 158.877 258.555 158.911 258.588C160.558 259.686 199.907 260.69 201.46 260.208C203.013 259.726 201.755 255.275 200.074 253.869C198.394 252.463 186.405 244.537 186.405 244.537L181.779 215.751L154.305 216.474Z" fill="#AD6359"/>
<path d="M201.467 260.208C199.92 260.69 160.571 259.686 158.917 258.588C158.917 258.588 158.917 258.588 158.917 258.548C158.644 258.023 158.5 257.44 158.496 256.848C158.493 256.835 158.493 256.821 158.496 256.808C158.175 253.918 158.037 251.012 158.081 248.105C164.507 252.182 181.149 253.996 186.438 252.838C191.124 251.807 190.093 248.031 189.116 246.331C192.744 248.748 198.936 252.905 200.121 253.889C201.761 255.268 203.02 259.726 201.467 260.208Z" fill="#0071CD"/>
<path d="M189.076 246.311C189.076 246.311 175.834 244.155 166.777 251.311L189.076 246.311Z" fill="#0071CD"/>
<path d="M130.881 91.1489C130.995 91.6845 132.816 100.133 134.704 107.389C136.076 112.691 137.489 117.351 138.299 117.833C139.216 118.375 143.688 120.356 145.187 120.979L151.025 235.647L190.763 234.756L170.01 109.732L166.516 91.1489H130.881Z" fill="#37474F"/>
<path d="M135.929 116.694C139.12 117.856 142.204 119.292 145.147 120.985C145.17 120.999 145.187 121.02 145.194 121.045C145.202 121.07 145.201 121.097 145.19 121.121C145.179 121.145 145.16 121.164 145.136 121.175C145.112 121.186 145.085 121.187 145.06 121.18C141.954 119.841 138.788 118.569 135.762 117.063C135.713 117.04 135.675 117 135.656 116.949C135.637 116.899 135.639 116.844 135.661 116.795C135.684 116.746 135.724 116.708 135.774 116.689C135.825 116.67 135.88 116.672 135.929 116.694Z" fill="#455A64"/>
<path d="M134.992 95.4266C134.992 95.3195 135.186 95.2927 135.186 95.4266C135.186 99.1152 135.4 102.362 135.708 105.803C135.855 107.403 137.141 116.246 139.912 115.603C140.381 115.49 140.582 115.034 140.689 114.338C140.679 113.423 140.555 112.512 140.321 111.627C140.013 109.773 139.765 107.918 139.604 106.051C139.284 102.568 139.322 99.0619 139.718 95.5873C139.724 95.5675 139.735 95.55 139.752 95.5375C139.768 95.5251 139.788 95.5184 139.808 95.5184C139.829 95.5184 139.849 95.5251 139.865 95.5375C139.882 95.55 139.893 95.5675 139.899 95.5873C139.814 100.413 140.096 105.238 140.742 110.02C141.09 112.323 142.249 115.784 139.845 116.139C137.442 116.494 135.829 110.703 135.507 109.117C134.747 104.594 134.573 99.9931 134.992 95.4266Z" fill="#455A64"/>
<path d="M139.839 115.817C140.089 116.413 140.297 117.026 140.461 117.652C140.64 118.133 140.729 118.644 140.722 119.158C140.718 119.179 140.708 119.198 140.693 119.213C140.678 119.228 140.659 119.239 140.639 119.243C140.618 119.247 140.596 119.245 140.576 119.237C140.557 119.229 140.54 119.216 140.528 119.198C140.233 118.745 140.007 118.251 139.859 117.732C139.651 117.163 139.423 116.601 139.229 116.032C139.201 115.951 139.206 115.862 139.243 115.785C139.28 115.708 139.346 115.648 139.427 115.62C139.508 115.591 139.596 115.596 139.674 115.633C139.751 115.67 139.81 115.737 139.839 115.817Z" fill="#455A64"/>
<path d="M188.513 229.28C187.355 229.187 186.164 229.22 184.999 229.207C183.834 229.193 182.77 229.207 181.652 229.207C179.342 229.207 177.026 229.26 174.716 229.3C170.144 229.387 165.572 229.488 160.999 229.628C158.402 229.709 155.818 229.863 153.234 230.05C153.221 230.055 153.209 230.063 153.201 230.074C153.192 230.086 153.188 230.1 153.188 230.114C153.188 230.128 153.192 230.142 153.201 230.153C153.209 230.164 153.221 230.173 153.234 230.177C157.84 230.325 162.432 230.264 167.038 230.177C171.644 230.09 176.182 229.99 180.748 229.856L184.597 229.722C185.896 229.669 187.235 229.648 188.52 229.488C188.538 229.477 188.552 229.461 188.562 229.442C188.572 229.424 188.577 229.403 188.576 229.382C188.575 229.361 188.569 229.341 188.558 229.323C188.547 229.305 188.532 229.29 188.513 229.28Z" fill="#455A64"/>
<path d="M171.108 213.85C170.767 210.349 170.392 206.848 170.03 203.346C169.307 196.411 168.562 189.48 167.794 182.554C166.272 168.696 164.71 154.839 163.108 140.982C162.218 133.209 161.481 125.411 160.471 117.652C160.471 117.585 160.35 117.585 160.357 117.652C160.959 124.667 161.816 131.656 162.526 138.659C163.235 145.661 163.918 152.523 164.641 159.451C166.078 173.318 167.555 187.177 169.073 201.03C169.501 204.92 169.93 208.809 170.412 212.698C170.894 216.588 171.409 220.471 171.898 224.36C171.898 224.454 172.059 224.454 172.045 224.36C171.71 220.852 171.449 217.351 171.108 213.85Z" fill="#455A64"/>
<path d="M127.929 107.001L134.711 107.436L154.479 108.722L170.023 109.732L166.516 91.1489H130.881H128.204L127.929 107.001Z" fill="#263238"/>
<path d="M137.422 18.6755C130.928 24.2386 132.736 32.3588 130.025 36.7503C128.364 39.4281 122.969 42.2866 121.891 45.3861C120.13 50.4872 124.448 52.3147 123.484 55.0862C122.145 59.0091 116.863 58.7079 115.913 65.1278C114.962 71.5476 122.031 78.3759 138.801 80.2302C155.57 82.0846 164.775 75.9392 165.378 70.4899C165.98 65.0407 160.404 63.2332 160.022 59.1631C159.781 56.5657 163.222 54.7515 163.369 49.9717C163.516 45.1919 158.884 43.6321 158.215 39.5687C157.545 35.5052 159.701 25.631 153.729 20.5901C147.758 15.5493 140.622 15.9308 137.422 18.6755Z" fill="#263238"/>
<path d="M138.172 18.8494C136.356 20.1344 134.877 21.8383 133.861 23.8166C132.81 25.9146 132.005 28.1273 131.464 30.4105C131.184 31.7705 130.748 33.0936 130.165 34.3535C129.586 35.4055 128.824 36.3462 127.916 37.1317C126.102 38.7718 123.933 40.0237 122.306 41.8646C120.679 43.7056 119.561 45.9482 120.177 48.3247C120.512 49.6167 121.369 50.6744 121.898 51.8794C122.427 53.0844 122.567 54.45 121.623 55.4006C120.78 56.2106 119.568 56.5855 118.617 57.2483C117.678 57.9027 116.85 58.7053 116.167 59.6248C115.477 60.5333 114.982 61.5756 114.716 62.6854C114.45 63.7953 114.417 64.9484 114.621 66.0714C115.612 71.2864 120.505 74.252 125.024 76.113C125.653 76.3741 126.283 76.6285 126.918 76.8761C127.019 76.9163 127.099 76.7757 126.999 76.7356C122.467 74.7273 117.205 72.324 115.464 67.2497C115.061 66.1431 114.919 64.9584 115.049 63.7879C115.179 62.6174 115.578 61.4928 116.214 60.5017C116.856 59.5258 117.667 58.6732 118.611 57.9846C119.521 57.3152 120.579 56.8935 121.503 56.2575C121.963 55.9653 122.338 55.5559 122.589 55.0713C122.839 54.5867 122.957 54.0442 122.929 53.4994C122.786 52.3004 122.359 51.1528 121.683 50.1522C120.979 49.1187 120.605 47.8952 120.612 46.6444C120.749 45.4283 121.211 44.2717 121.951 43.2972C123.364 41.2889 125.452 39.9902 127.307 38.4773C129.226 37.0711 130.655 35.0969 131.39 32.8339C131.738 31.6356 131.953 30.4038 132.254 29.1989C132.524 28.0655 132.857 26.9481 133.251 25.8517C133.992 23.6674 135.203 21.6723 136.799 20.0075C137.219 19.5816 137.681 19.2002 138.178 18.8695C138.306 18.8494 138.225 18.7824 138.172 18.8494Z" fill="#263238"/>
<path d="M166.121 66.5002C165.916 65.6134 165.521 64.7818 164.962 64.0634C164.38 63.3271 163.677 62.7246 163.028 62.0551C162.368 61.4414 161.892 60.6554 161.655 59.7857C161.538 58.7231 161.801 57.6531 162.399 56.7666C162.966 55.8297 163.467 54.8545 163.898 53.8478C164.465 52.3118 164.665 50.6644 164.483 49.0373C164.3 47.4101 163.74 45.8481 162.847 44.4757C162.278 43.5385 161.635 42.6482 161.053 41.7176C160.415 40.7039 159.916 39.6098 159.567 38.4642C158.81 35.9404 158.65 33.276 158.034 30.7188C157.383 28.0988 156.47 25.5511 155.309 23.114C155.309 23.0537 155.189 23.114 155.222 23.1675C156.253 25.3672 157.05 27.6694 157.599 30.036C158.134 32.2786 158.342 34.5681 158.737 36.8308C158.912 37.9451 159.197 39.0393 159.587 40.0976C159.985 41.0747 160.471 42.0135 161.04 42.9025C162.178 44.7502 163.342 46.5711 163.657 48.7668C163.97 50.919 163.592 53.115 162.579 55.0394C161.696 56.7063 160.464 58.5473 161.24 60.4953C161.91 62.1489 163.463 63.1731 164.514 64.512C165.065 65.2664 165.45 66.1286 165.645 67.0422C165.84 67.9558 165.84 68.9003 165.645 69.8139C164.742 74.5 160.042 76.8363 155.637 77.0706C155.609 77.0706 155.582 77.0819 155.561 77.102C155.541 77.1221 155.53 77.1493 155.53 77.1777C155.53 77.2061 155.541 77.2334 155.561 77.2534C155.582 77.2735 155.609 77.2848 155.637 77.2848C159.466 77.2379 163.637 75.5577 165.431 71.9695C166.291 70.2824 166.535 68.3479 166.121 66.5002Z" fill="#263238"/>
<path d="M141.177 52.1071C139.986 56.9806 125.827 102.663 123.022 103.299C114.768 105.16 104.847 106.526 104.994 99.7509C105.229 89.1202 125.211 61.1378 134.784 51.8393C141.084 45.714 142.356 47.2938 141.177 52.1071Z" fill="#AD6359"/>
<path d="M141.177 52.1071C139.986 56.9806 125.827 102.663 123.022 103.299C114.768 105.16 104.847 106.526 104.994 99.7509C105.229 89.1202 125.211 61.1378 134.784 51.8393C141.084 45.714 142.356 47.2938 141.177 52.1071Z" fill="#AD6359"/>
<path d="M104.941 102.188C101.513 90.138 130.48 54.7181 136.116 50.206C141.753 45.694 142.483 47.1066 141.338 52.8035C140.193 58.5004 126.497 101.625 123.578 103.199C120.659 104.772 106.494 107.65 104.941 102.188Z" fill="#0071CD"/>
<path d="M128.612 79.4401L125.432 101.317C125.432 101.317 161.086 101.846 169.936 101.224C169.936 101.224 162.72 60.3209 153.2 49.9915C148.441 44.8235 142.851 45.2051 139.29 48.82C138.393 49.7372 127.635 63.9493 126.503 69.3784C125.513 74.1649 128.612 79.4401 128.612 79.4401Z" fill="white"/>
<path d="M149.258 46.9658C149.258 46.9658 145.107 161.011 147.31 166.427C149.512 171.843 182.656 177.218 182.656 177.218C182.656 177.218 172.929 95.587 164.106 70.8112C155.925 47.8361 149.258 46.9658 149.258 46.9658Z" fill="#0071CD"/>
<path d="M171.403 117.083C168.393 117.498 165.362 117.735 162.325 117.792C158.081 117.792 153.87 117.377 152.652 117.364C152.544 117.364 152.491 117.718 152.565 117.725C155.78 118.112 159.013 118.336 162.251 118.395C165.216 118.374 168.172 118.094 171.088 117.558C171.088 118.455 171.088 119.158 171.088 120.062C168.095 120.637 162.325 121.635 153.013 120.436C152.98 120.062 153.013 118.06 152.953 117.511C152.953 117.431 152.591 117.411 152.578 117.511C152.504 118.053 152.283 122.866 152.277 123.844C152.277 126.254 152.424 133.055 153.02 134.374C154.359 137.36 160.189 137.366 161.803 137.38C163.416 137.393 168.598 137.554 170.539 135.653C171.577 134.642 171.797 129.126 171.644 124.272C171.543 121.943 171.536 117.129 171.403 117.083ZM162.231 136.818C157.09 136.818 154.867 135.746 154.064 134.669C153.14 133.423 153.06 131.241 152.993 128.838C152.939 126.95 152.993 121.039 152.993 120.918C155.985 121.521 163.891 122.344 171.068 120.677C171.068 123.476 171.068 125.718 171.068 128.523C171.068 130.532 170.941 133.959 169.91 135.144C169.1 136.135 165.947 136.811 162.231 136.818Z" fill="#A6A6A6"/>
<path d="M127.4 166.929C125.566 171.267 114.601 174.212 114.601 174.212L128.418 79.0454C126.669 76.1805 125.986 72.7908 126.49 69.4724C127.421 64.1169 138.593 48.6462 140.401 47.8496C138.536 55.8389 137.24 63.9505 136.525 72.1234C133.425 105.575 129.409 162.196 127.4 166.929Z" fill="#0071CD"/>
<path d="M130.011 62.2426C131.009 60.6561 132.02 59.0829 133.01 57.4896C133.01 57.4428 132.963 57.3892 132.93 57.4361C131.933 58.7749 130.962 60.067 129.998 61.3991C130.319 60.6895 130.627 59.9732 130.915 59.2436C130.915 59.1632 130.835 59.0896 130.794 59.1766C130.353 60.1138 129.951 61.0644 129.556 62.0217C128.694 63.213 127.933 64.4736 127.28 65.7906C125.846 68.5225 125.417 71.6715 126.068 74.6875C126.273 75.5285 126.571 76.3436 126.959 77.1175C127.226 77.6464 128.083 78.7911 128.077 78.8246C127.521 81.9442 127.099 85.0972 126.657 88.2369C126.216 91.3765 125.76 94.5831 125.392 97.7696C125.185 99.5771 125.051 101.391 124.783 103.185C124.783 103.252 124.877 103.279 124.89 103.185C125.118 101.619 125.452 100.072 125.734 98.4993C126.015 96.9261 126.276 95.3797 126.523 93.8133C127.032 90.6535 127.487 87.4871 127.943 84.3207C128.204 82.5266 128.485 80.7392 128.686 78.9652C128.392 78.2854 128.05 77.6277 127.662 76.997C127.339 76.3345 127.077 75.6444 126.878 74.9352C126.467 73.4986 126.339 71.9955 126.503 70.5102C126.852 67.4843 128.418 64.7865 130.011 62.2426Z" fill="#263238"/>
<path d="M140.314 48.1978C139.265 49.791 138.198 51.3687 137.114 52.9307C136.023 54.4905 134.958 56.0703 133.847 57.6167V57.2485L136.525 60.0535L136.746 60.2811L136.511 60.5087C135.387 61.5999 134.242 62.6643 133.104 63.7421L133.198 63.4609C133.613 66.3596 134.055 69.2582 134.423 72.1636C134.791 75.0689 135.186 77.981 135.507 80.8663C134.952 77.9877 134.45 75.1024 133.968 72.2105C133.486 69.3185 133.03 66.4265 132.568 63.5078V63.3471L132.689 63.2333C133.82 62.1488 134.945 61.0576 136.09 59.9932V60.4484L133.399 57.677L133.231 57.4962L133.372 57.3021C134.496 55.7691 135.668 54.2629 136.806 52.7432C137.944 51.2236 139.129 49.6906 140.314 48.1978Z" fill="#A6A6A6"/>
<path d="M152.283 55.0459C155.329 59.0626 169.066 75.0152 169.936 76.4211C170.526 77.365 167.212 81.8167 167.259 82.446C167.553 85.0568 172.929 101.813 175.151 99.9852C178.077 97.5886 191.546 80.8862 189.591 73.6964C187.636 66.5067 156.969 49.2352 152.257 47.8361C147.544 46.437 149.271 51.1164 152.283 55.0459Z" fill="#AD6359"/>
<path d="M169.582 76.6421C169.582 75.6246 153.515 58.5205 150.563 52.8035C147.611 47.0865 149.11 45.8681 156.648 49.5366C164.186 53.2051 187.328 66.6407 190.073 73.3217C192.818 80.0027 177.755 98.3653 177.755 98.3653L167.219 80.632C167.219 80.632 169.568 77.4789 169.582 76.6421Z" fill="#0071CD"/>
<path d="M179.811 93.2505C176.176 86.4959 171.336 79.9488 170.572 78.7505C170.532 78.6903 170.445 78.7505 170.485 78.8108C171.295 79.9488 176.022 88.0356 179.717 93.3175C179.737 93.3777 179.811 93.3175 179.811 93.2505Z" fill="#263238"/>
<path d="M163.617 69.2446C162.947 68.4145 162.318 67.5643 161.609 66.7476C160.899 65.9309 160.203 65.1008 159.486 64.2908C158.045 62.644 156.577 61.0239 155.082 59.4307C155.082 59.4307 155.021 59.4307 155.041 59.4307C155.809 60.4036 156.588 61.3631 157.378 62.3092C156.882 61.8942 156.353 61.5126 155.818 61.1444C155.818 61.1444 155.771 61.1444 155.818 61.1846C156.28 61.6398 156.762 62.0883 157.264 62.5235L158 63.126C158.069 63.1854 158.14 63.2413 158.215 63.2933C158.536 63.6749 158.884 64.0565 159.172 64.4314C159.841 65.2548 160.571 66.0782 161.294 66.8882C162.017 67.6982 162.807 68.4948 163.557 69.3116C163.577 69.3517 163.657 69.2915 163.617 69.2446Z" fill="#263238"/>
<path d="M165.545 104.377C163.978 103.038 166.469 101.947 166.469 101.947C166.469 101.947 162.512 102.616 161.435 100.608C160.357 98.5995 163.443 97.4681 163.67 97.3811C163.463 97.4145 159.814 97.9501 158.938 95.8079C158.061 93.6657 161.301 92.9159 161.515 92.8691C161.307 92.8691 158.563 92.4005 158.268 90.6265C157.766 87.5738 165.726 88.1629 167.64 86.5563C167.64 86.5563 167.326 82.5397 167.279 82.4526C167.687 83.3817 168.394 84.1476 169.287 84.6283C170.947 85.2977 172.453 85.7731 173.056 86.6768C173.33 87.0722 173.472 87.5443 173.461 88.0255C173.451 88.5066 173.288 88.9719 172.996 89.3545C172.996 89.3545 175.191 89.3545 175.935 91.0214C176.309 91.8716 175.265 93.2373 175.265 93.2373C175.762 93.2652 176.241 93.4292 176.651 93.7114C177.061 93.9936 177.385 94.3831 177.588 94.8372C178.05 96.0422 176.919 97.2271 176.919 97.2271C176.919 97.2271 178.572 98.084 178.632 99.4697C178.833 102.301 168.905 107.262 165.545 104.377Z" fill="#AD6359"/>
<path d="M176.838 97.4751C176.872 97.4751 176.899 97.4751 176.872 97.522C173.9 100.056 170.227 101.625 166.342 102.021C166.214 102.021 166.147 101.833 166.281 101.8C169.991 100.877 173.547 99.4199 176.838 97.4751Z" fill="#263238"/>
<path d="M175.366 93.271C175.406 93.271 175.439 93.3045 175.406 93.3379C172.1 96.0976 167.917 97.5861 163.61 97.5353C163.463 97.5353 163.329 97.3746 163.503 97.3679C166.422 97.2675 172.306 95.1655 175.366 93.271Z" fill="#263238"/>
<path d="M161.214 92.7621C165.424 92.7621 169.213 91.4232 172.909 89.502C172.956 89.502 172.982 89.5488 172.949 89.5756C171.402 91.0149 168.932 92.0056 166.924 92.6081C165.082 93.2053 163.115 93.3092 161.22 92.9094C161.133 92.8893 161.12 92.7621 161.214 92.7621Z" fill="#263238"/>
<path d="M177.093 97.2606C177.475 96.95 177.764 96.5401 177.928 96.076C178.092 95.6118 178.125 95.1114 178.023 94.6297C177.882 94.1694 177.58 93.775 177.173 93.5185C176.673 93.2784 176.121 93.1636 175.566 93.1838C175.918 92.7907 176.144 92.3007 176.213 91.7776C176.282 91.2545 176.192 90.7228 175.955 90.2516C175.681 89.837 175.26 89.5425 174.776 89.4282C174.218 89.311 173.646 89.2683 173.076 89.301C173.341 89.056 173.545 88.7519 173.671 88.4135C173.796 88.075 173.84 87.7117 173.799 87.353C173.739 86.9597 173.587 86.5864 173.354 86.264C173.121 85.9415 172.815 85.6791 172.46 85.4986C171.63 85.0834 170.753 84.7666 169.849 84.5547C169.383 84.4309 168.934 84.2511 168.511 84.0192C168.136 83.7916 167.607 83.3497 167.553 82.9012C167.553 82.8075 167.413 82.8677 167.46 82.9012C167.642 83.2086 167.841 83.5058 168.055 83.7916C168.308 84.0657 168.596 84.3044 168.912 84.5012C169.708 84.9089 170.531 85.2601 171.376 85.5522C172.115 85.8357 172.737 86.3591 173.143 87.0383C173.325 87.3933 173.404 87.7922 173.371 88.1898C173.338 88.5873 173.194 88.9676 172.956 89.2876C172.949 89.2958 172.945 89.3058 172.944 89.3164C172.943 89.3269 172.945 89.3375 172.95 89.3468C172.955 89.3561 172.963 89.3637 172.972 89.3686C172.981 89.3736 172.992 89.3757 173.002 89.3747C173.512 89.4293 174.014 89.5462 174.495 89.7228C174.892 89.8806 175.232 90.1534 175.473 90.506C175.685 90.9385 175.78 91.4194 175.747 91.9002C175.714 92.3809 175.555 92.8445 175.285 93.244C175.829 93.3524 176.35 93.554 176.825 93.8398C177.132 94.0748 177.364 94.3932 177.494 94.7569C177.641 95.1727 177.668 95.621 177.573 96.0515C177.479 96.482 177.266 96.8775 176.959 97.1937V97.2272C176.959 97.2272 177.481 97.5217 177.508 97.5284C177.535 97.5351 177.508 97.5284 177.508 97.4949C177.374 97.4095 177.235 97.3313 177.093 97.2606Z" fill="#263238"/>
<path d="M149.786 47.8765C150.596 49.5969 151.393 51.3308 152.163 53.0713C152.933 54.8118 153.716 56.5457 154.452 58.2996L154.546 58.5205L154.345 58.6544L151.139 60.8234L151.232 60.3748C152.103 61.6736 152.946 62.9923 153.796 64.3111L153.877 64.4383L153.837 64.5789C152.973 67.2567 152.143 69.9344 151.246 72.5653C150.349 75.1962 149.458 77.8739 148.515 80.5115C149.238 77.8003 150.007 75.1091 150.797 72.4247C151.587 69.7403 152.411 67.0692 153.227 64.3915V64.6592C152.364 63.3204 151.5 62.0484 150.657 60.7296L150.476 60.4552L150.744 60.2811L153.991 58.1724L153.883 58.5272C153.154 56.7666 152.484 54.9859 151.775 53.2186C151.065 51.4513 150.443 49.6438 149.786 47.8765Z" fill="#A6A6A6"/>
<path d="M153.2 51.1901C153.033 47.2939 148.18 46.2764 145.241 46.1961C141.753 46.1023 139.504 46.6446 138.218 50.1524C136.88 53.8544 136.404 58.0317 136.15 61.9479C136.142 62.0988 136.074 62.2404 135.962 62.3415C135.85 62.4425 135.702 62.4948 135.551 62.4868C135.4 62.4788 135.258 62.4112 135.157 62.2988C135.056 62.1865 135.004 62.0386 135.012 61.8877C135.306 57.3757 135.527 48.9943 139.664 46.1023C143.48 43.4246 154.057 44.643 154.338 51.2503C154.338 51.98 153.227 51.9197 153.2 51.1901Z" fill="#455A64"/>
<path d="M132.856 63.936C132.83 64.453 132.959 64.9661 133.224 65.4104C133.49 65.8547 133.882 66.2101 134.349 66.4319C134.817 66.6536 135.34 66.7316 135.852 66.6561C136.365 66.5805 136.843 66.3548 137.227 66.0075C137.611 65.6601 137.883 65.2067 138.009 64.7046C138.135 64.2025 138.11 63.6743 137.936 63.1867C137.762 62.6992 137.447 62.2741 137.031 61.9654C136.616 61.6567 136.118 61.4781 135.601 61.4523C134.909 61.4213 134.232 61.6648 133.718 62.1298C133.204 62.5949 132.894 63.2439 132.856 63.936Z" fill="#263238"/>
<path d="M133.901 63.9895C133.885 64.3001 133.962 64.6083 134.122 64.8752C134.281 65.142 134.516 65.3556 134.797 65.489C135.078 65.6223 135.392 65.6693 135.7 65.6242C136.008 65.5791 136.295 65.4437 136.526 65.2354C136.757 65.027 136.921 64.7549 136.997 64.4534C137.073 64.1519 137.058 63.8346 136.954 63.5415C136.85 63.2485 136.662 62.9928 136.413 62.8068C136.163 62.6209 135.865 62.5129 135.554 62.4967C135.347 62.4849 135.14 62.5144 134.945 62.5832C134.749 62.6521 134.57 62.7591 134.416 62.8979C134.262 63.0368 134.137 63.2047 134.049 63.3921C133.96 63.5795 133.91 63.7825 133.901 63.9895Z" fill="#0071CD"/>
<path d="M150.61 63.7422C148.95 74.9285 149.686 77.5326 150.724 78.684C151.502 79.4747 152.453 80.0749 153.502 80.4379L153.756 79.6815C152.835 79.3551 151.999 78.8241 151.313 78.1284C150.563 77.2983 149.753 74.9151 151.393 63.8426L150.61 63.7422Z" fill="#C7C7C7"/>
<path d="M152.545 79.5144L152.465 79.7059C152.307 80.0846 152.486 80.5198 152.864 80.6779L154.032 81.1653C154.411 81.3234 154.846 81.1446 155.004 80.7659L155.084 80.5744C155.242 80.1957 155.063 79.7605 154.684 79.6024L153.517 79.1149C153.138 78.9568 152.703 79.1357 152.545 79.5144Z" fill="#263238"/>
<path d="M157.719 63.2267C160.779 71.1796 161.796 75.6046 160.919 77.1577C160.401 77.9852 159.703 78.6853 158.877 79.2061L159.286 79.8756C160.227 79.2803 161.022 78.4792 161.609 77.5325C162.653 75.6849 161.743 71.4541 158.462 62.9321L157.719 63.2267Z" fill="#C7C7C7"/>
<path d="M157.773 80.3278L157.893 80.4972C158.13 80.8323 158.594 80.9119 158.929 80.675L159.962 79.9446C160.297 79.7077 160.377 79.244 160.14 78.9089L160.02 78.7395C159.783 78.4044 159.319 78.3247 158.984 78.5617L157.951 79.2921C157.616 79.529 157.536 79.9927 157.773 80.3278Z" fill="#263238"/>
<path d="M158.703 62.5707C158.142 60.797 157.471 59.0598 156.695 57.3691C156.265 56.6327 155.645 56.0248 154.901 55.6085C154.747 55.6085 154.66 54.2228 154.613 53.0847C154.58 52.0873 154.553 50.9158 154.278 50.6212C154.124 50.4899 153.925 50.4236 153.723 50.4361C153.52 50.4485 153.331 50.5389 153.194 50.6882C152.953 51.0095 153.067 52.1743 153.14 53.1718C153.227 54.3098 153.308 55.6955 153.14 55.7089C152.509 56.2411 152.013 56.9157 151.694 57.6771C151.122 59.4935 150.691 61.351 150.402 63.2334C150.282 64.425 150.677 64.5254 151.025 64.6058C151.514 64.7129 151.781 64.3581 152.009 63.0326C152.37 60.9239 152.732 57.4026 154.151 57.2553C155.577 57.2553 156.554 60.8167 157.231 62.7983C157.652 64.0367 157.9 64.1371 158.409 63.9631C158.717 63.856 159.058 63.702 158.703 62.5707Z" fill="#263238"/>
<path d="M148.441 47.6355C148.18 48.305 145.616 52.7969 142.416 52.7969C140.408 52.7969 140.89 45.8816 140.89 45.8816V45.4531L140.421 39.4282L147.919 36.0141L148.99 35.5723C148.99 35.5723 148.99 37.2325 148.99 39.2943V39.6023C148.99 39.7228 148.99 39.8299 148.99 39.937C148.99 40.2449 148.99 40.5596 148.99 40.8742C148.99 41.1888 148.99 41.3495 148.99 41.5972C148.99 41.8449 148.99 42.0926 148.99 42.347C148.926 44.1202 148.743 45.8871 148.441 47.6355Z" fill="#AD6359"/>
<path d="M148.976 39.294C148.15 40.8496 146.995 42.2068 145.592 43.2715C144.188 44.3361 142.57 45.0827 140.849 45.4595L140.381 39.4346L147.878 36.0204L148.95 35.5786C148.95 35.5786 148.97 37.2321 148.976 39.294Z" fill="#263238"/>
<path d="M132.843 30.451C131.852 41.0214 138.078 42.8088 140.354 43.0163C142.423 43.2104 149.492 43.592 151.567 33.1823C153.642 22.7725 149.016 18.9701 144.33 18.2873C139.644 17.6045 133.827 19.8806 132.843 30.451Z" fill="#AD6359"/>
<path d="M136.297 28.1013C136.538 28.0725 136.777 28.03 137.014 27.9741C137.275 27.967 137.527 27.8728 137.73 27.7063C137.781 27.6404 137.809 27.5591 137.809 27.4754C137.809 27.3917 137.781 27.3104 137.73 27.2444C137.614 27.1252 137.469 27.0387 137.309 26.994C137.149 26.9493 136.98 26.948 136.819 26.99C136.479 27.0291 136.165 27.191 135.936 27.4453C135.887 27.5083 135.858 27.5841 135.852 27.6634C135.846 27.7427 135.863 27.8221 135.901 27.8918C135.94 27.9615 135.998 28.0185 136.068 28.0557C136.138 28.0929 136.218 28.1088 136.297 28.1013Z" fill="#263238"/>
<path d="M143.54 28.3825C143.301 28.3357 143.064 28.2753 142.831 28.2018C142.58 28.1706 142.346 28.0604 142.161 27.8871C142.111 27.8207 142.084 27.7396 142.084 27.6562C142.084 27.5727 142.111 27.4916 142.161 27.4252C142.286 27.314 142.438 27.2379 142.601 27.205C142.765 27.172 142.934 27.1833 143.092 27.2378C143.428 27.3006 143.729 27.4868 143.935 27.7599C143.98 27.8247 144.004 27.901 144.005 27.9794C144.006 28.0578 143.984 28.1348 143.942 28.201C143.9 28.2671 143.84 28.3196 143.769 28.3519C143.697 28.3841 143.618 28.3948 143.54 28.3825Z" fill="#263238"/>
<path d="M141.92 31.0063C141.92 31.0063 141.974 31.0063 141.974 31.0733C141.907 31.7896 141.974 32.6264 142.59 32.9075C142.59 32.9075 142.59 32.9544 142.59 32.9477C141.793 32.787 141.746 31.6758 141.92 31.0063Z" fill="#263238"/>
<path d="M142.61 30.29C143.782 30.29 143.728 32.6063 142.65 32.6197C141.572 32.6331 141.653 30.3034 142.61 30.29Z" fill="#263238"/>
<path d="M143.065 30.4241C143.266 30.558 143.46 30.799 143.735 30.8258C144.009 30.8525 144.237 30.6249 144.404 30.3906H144.444C144.444 30.8391 144.257 31.2944 143.775 31.3479C143.293 31.4015 143.032 30.9998 142.931 30.5446C142.911 30.491 142.992 30.3705 143.065 30.4241Z" fill="#263238"/>
<path d="M137.562 30.7925C137.562 30.7925 137.502 30.7925 137.502 30.8594C137.502 31.5824 137.408 32.4125 136.752 32.6401C136.752 32.6401 136.752 32.687 136.752 32.6803C137.556 32.5799 137.69 31.4753 137.562 30.7925Z" fill="#263238"/>
<path d="M136.927 30.029C135.762 29.9286 135.641 32.2583 136.719 32.352C137.797 32.4457 137.897 30.1161 136.927 30.029Z" fill="#263238"/>
<path d="M136.431 30.1565C136.244 30.2703 136.05 30.4845 135.829 30.4912C135.608 30.4979 135.393 30.2301 135.246 29.9824C135.246 29.9824 135.213 29.9824 135.206 29.9824C135.173 30.4309 135.293 30.8996 135.715 31.0067C136.137 31.1138 136.384 30.7389 136.538 30.3372C136.565 30.2301 136.511 30.1096 136.431 30.1565Z" fill="#263238"/>
<path d="M141.331 36.7569C141.164 36.931 140.997 37.1653 140.736 37.192C140.468 37.1925 140.204 37.1378 139.959 37.0314C139.959 37.0314 139.912 37.0314 139.926 37.0314C140.031 37.1716 140.173 37.2805 140.336 37.3465C140.498 37.4125 140.676 37.4332 140.849 37.4063C140.998 37.3629 141.131 37.276 141.23 37.1566C141.329 37.0373 141.39 36.8911 141.405 36.7368C141.418 36.7435 141.358 36.7301 141.331 36.7569Z" fill="#263238"/>
<path d="M138.399 34.0391C138.399 34.0391 138.218 35.1168 138.198 35.6256C138.198 35.6725 138.319 35.6993 138.493 35.7127C138.927 35.806 139.379 35.7779 139.798 35.6315C140.217 35.485 140.588 35.2259 140.869 34.8825C140.91 34.8357 140.869 34.7821 140.802 34.8089C140.138 35.234 139.353 35.4314 138.567 35.3712C138.567 35.2307 138.948 33.5437 138.868 33.5303C138.471 33.556 138.08 33.6325 137.703 33.7579C138.024 31.5086 138.7 29.3329 138.988 27.0635C138.988 27.0458 138.981 27.0287 138.969 27.0162C138.956 27.0036 138.939 26.9966 138.921 26.9966C138.904 26.9966 138.887 27.0036 138.874 27.0162C138.861 27.0287 138.854 27.0458 138.854 27.0635C138.056 29.3757 137.491 31.7618 137.167 34.1863C137.134 34.4675 138.198 34.1194 138.399 34.0391Z" fill="#263238"/>
<path d="M138.841 35.4513C139.087 35.8279 139.426 36.1346 139.825 36.3417C140.034 36.4372 140.267 36.4698 140.495 36.4354C141.023 36.3417 141.07 35.8731 141.003 35.458C140.972 35.228 140.912 35.0029 140.823 34.7886C140.25 35.2153 139.555 35.4475 138.841 35.4513Z" fill="#263238"/>
<path d="M139.825 36.3417C140.035 36.4373 140.267 36.4699 140.495 36.4354C141.023 36.3417 141.07 35.8731 141.003 35.4581C140.737 35.4555 140.478 35.5406 140.265 35.7003C140.052 35.8601 139.897 36.0855 139.825 36.3417Z" fill="#FF9CBD"/>
<path d="M133.465 26.7156C134.711 27.1173 139.149 24.3592 140.93 20.3895C141.239 22.7017 142.348 24.8329 144.063 26.4144C146.955 29.0921 149.699 29.293 149.699 29.293C149.699 29.293 150.556 34.0727 151.346 34.1798C152.136 34.287 157.11 17.9192 143.199 17.7318C143.199 17.7318 139.129 17.3234 136.585 19.6999C134.041 22.0764 133.465 26.7156 133.465 26.7156Z" fill="#263238"/>
<path d="M149.813 32.794C149.813 32.794 152.149 29.5003 153.649 30.3304C155.149 31.1605 153.375 35.9604 151.6 36.6098C151.379 36.7078 151.14 36.7601 150.898 36.7634C150.656 36.7667 150.416 36.721 150.192 36.6291C149.968 36.5372 149.765 36.4009 149.595 36.2284C149.426 36.056 149.292 35.851 149.204 35.6257L149.813 32.794Z" fill="#AD6359"/>
<path d="M153.107 31.6963C153.107 31.6963 153.14 31.6963 153.107 31.7431C151.868 32.2385 151.206 33.3766 150.744 34.5682C150.816 34.4445 150.915 34.338 151.033 34.2562C151.151 34.1744 151.285 34.1191 151.426 34.0943C151.568 34.0695 151.713 34.0757 151.851 34.1124C151.99 34.1491 152.119 34.2156 152.23 34.3071C152.263 34.3071 152.23 34.3807 152.196 34.3673C151.979 34.299 151.745 34.2989 151.527 34.3671C151.309 34.4353 151.118 34.5686 150.978 34.7489C150.746 35.0521 150.549 35.3799 150.389 35.7263C150.329 35.8401 150.128 35.7799 150.175 35.6527C150.168 34.046 151.413 31.8436 153.107 31.6963Z" fill="#263238"/>
<path d="M140.829 47.5482C140.367 47.7892 141.044 56.3982 141.338 56.8802C141.445 57.0609 147.095 52.5958 148.976 46.8386C148.976 46.8587 145.669 45.0445 140.829 47.5482Z" fill="#AD6359"/>
<path d="M130.923 64.786L105.151 72.8081L115.592 106.353L141.364 98.3305L130.923 64.786Z" fill="#455A64"/>
<path d="M112.439 72.7087L124.649 68.8916L123.492 65.1921L111.282 69.0092L112.439 72.7087Z" fill="#A6A6A6"/>
<path d="M114.059 68.1403L115.565 67.6717L115.029 65.9646L118.684 64.8199L119.22 66.5269L120.719 66.0583L119.749 62.9521L113.068 65.0408L114.059 68.1403Z" fill="#A6A6A6"/>
<path d="M135.916 77.5659C136.313 77.973 136.577 78.4918 136.672 79.053C136.766 79.6141 136.687 80.1907 136.445 80.7056C137.391 80.9015 138.239 81.4226 138.841 82.1784C139.839 83.5574 138.111 85.7331 138.111 85.7331C139.052 86.1399 139.847 86.8212 140.394 87.6878C141.218 89.1003 139.792 91.5438 139.792 91.5438C140.448 92.3961 140.776 93.4557 140.716 94.5295C140.441 97.388 136.512 99.3427 134.021 100.615C131.531 101.887 123.31 103.165 121.764 103.567L113.469 87.6945C113.469 87.6945 122.989 78.8312 126.122 77.7534C128.766 76.843 134.336 76.0664 135.916 77.5659Z" fill="#AD6359"/>
<path d="M114.601 86.6636C111.762 88.8459 103.22 97.2474 105.229 101.525C107.237 105.803 114.092 105.374 123.578 103.199L114.601 86.6636Z" fill="#AD6359"/>
<path d="M114.601 86.6636C111.762 88.8459 102.792 97.0465 105.061 102.543C106.869 106.907 114.929 107.436 124.441 105.22L114.601 86.6636Z" fill="#0071CD"/>
<path d="M119.561 105.401C116.589 98.3387 112.385 91.3431 111.742 90.0912C111.74 90.0831 111.736 90.0755 111.731 90.0692C111.725 90.0628 111.718 90.0579 111.71 90.0547C111.703 90.0516 111.694 90.0503 111.686 90.051C111.678 90.0517 111.669 90.0543 111.662 90.0587C111.655 90.0631 111.649 90.0692 111.645 90.0763C111.64 90.0835 111.638 90.0916 111.637 90.1C111.636 90.1084 111.638 90.1168 111.641 90.1246C111.644 90.1323 111.649 90.1393 111.655 90.1448C112.325 91.3565 116.281 99.8516 119.461 105.468C119.488 105.528 119.561 105.475 119.561 105.401Z" fill="#263238"/>
<path d="M136.197 80.5113C133.164 80.7991 130.379 81.9774 127.534 82.9949C127.522 82.9993 127.512 83.0085 127.506 83.0205C127.5 83.0324 127.5 83.0461 127.504 83.0585C127.509 83.0709 127.518 83.0811 127.53 83.0867C127.542 83.0924 127.555 83.0931 127.568 83.0886C130.386 82.051 133.379 81.5757 136.23 80.6519C136.246 80.6448 136.258 80.6325 136.266 80.6172C136.273 80.6019 136.275 80.5844 136.271 80.5678C136.267 80.5512 136.258 80.5365 136.244 80.5262C136.231 80.5159 136.214 80.5106 136.197 80.5113Z" fill="#263238"/>
<path d="M137.957 85.5523C137.273 85.6879 136.609 85.913 135.983 86.2218C135.313 86.5096 134.644 86.7975 133.974 87.1054C132.635 87.7146 131.297 88.3506 129.991 89.0334C129.931 89.0334 129.991 89.1606 129.991 89.1271C131.33 88.5246 132.669 87.9422 134.048 87.3933C134.717 87.1188 135.387 86.851 136.103 86.59C136.767 86.379 137.406 86.0986 138.011 85.7532C138.038 85.7461 138.06 85.7287 138.074 85.7048C138.088 85.681 138.092 85.6526 138.085 85.626C138.078 85.5993 138.06 85.5766 138.036 85.5628C138.012 85.549 137.984 85.5452 137.957 85.5523Z" fill="#263238"/>
<path d="M139.731 91.564C139.117 91.6862 138.529 91.9126 137.991 92.2334L136.163 93.0903C134.945 93.6593 133.727 94.2216 132.488 94.7505C132.428 94.7505 132.488 94.871 132.522 94.8442C133.787 94.3221 135.052 93.8133 136.311 93.2777L138.158 92.4744C138.741 92.2778 139.284 91.981 139.765 91.5974C139.765 91.5974 139.765 91.564 139.731 91.564Z" fill="#263238"/>
<path d="M114.206 86.8106C113.21 87.544 112.267 88.3447 111.381 89.2072L110.711 89.8766L110.424 90.0641C110.022 90.3319 109.62 90.6063 109.245 90.9076C108.518 91.4994 107.83 92.1367 107.183 92.8155C107.137 92.869 107.183 92.936 107.264 92.8891C107.971 92.2525 108.725 91.6707 109.52 91.1486L109.828 90.941C109.453 91.3494 109.091 91.7711 108.757 92.2063C107.854 93.3619 107.022 94.5713 106.266 95.8279C106.233 95.8882 106.327 95.935 106.36 95.8748C107.746 93.6523 113.784 87.7077 114.447 86.9914C115.11 86.2751 114.728 86.4023 114.206 86.8106Z" fill="#263238"/>
<path d="M206.588 37.7877C202.345 43.4619 196.932 48.158 190.716 51.5581C184.505 48.1556 179.097 43.4597 174.857 37.7877C169.274 30.4239 169.548 18.8226 177.535 16.3189C186.398 13.5541 190.736 26.8826 190.736 26.8826C190.736 26.8826 195.147 13.4939 203.924 16.3524C211.89 18.9096 212.191 30.3972 206.588 37.7877Z" fill="#407BFF"/>
<path d="M184.503 45.7137L182.1 35.6856L180.527 39.2202H170.793V38.0889H179.791L182.415 32.1777L184.296 39.9968L186.954 23.7964L189.297 36.6094L191.151 31.2606L194.07 40.0168L194.719 38.0822H210.698V39.2135H195.529L194.07 43.5916L191.131 34.7751L188.955 41.0545L187.014 30.4238L184.503 45.7137Z" fill="white"/>
<path d="M256.87 208.247V218.502H252.773V212.665H238.574V218.502H234.477V208.247H256.87Z" fill="#407BFF"/>
<path opacity="0.1" d="M238.574 213.99H234.477V218.502H238.574V213.99Z" fill="black"/>
<path opacity="0.1" d="M256.87 213.99H252.773V218.502H256.87V213.99Z" fill="black"/>
<path d="M276.042 254.23H215.318L218.665 216.247H272.695L276.042 254.23Z" fill="#407BFF"/>
<path opacity="0.1" d="M245.683 254.23H215.318L218.665 216.247H245.683V254.23Z" fill="black"/>
<path d="M255.029 233.029V237.448H247.892V244.584H243.474V237.448H236.338V233.029H243.474V225.893H247.892V233.029H255.029Z" fill="#FFFFFD"/>
</svg>
