<svg width="32" height="32" viewBox="0 0 32 32" fill="none" xmlns="http://www.w3.org/2000/svg">
<rect width="32" height="32" rx="16" fill="#7EAD7B"/>
<path d="M15.1667 13.4998H16.8334V11.8332H15.1667M16.0001 22.6665C12.3251 22.6665 9.33341 19.6748 9.33341 15.9998C9.33341 12.3248 12.3251 9.33317 16.0001 9.33317C19.6751 9.33317 22.6667 12.3248 22.6667 15.9998C22.6667 19.6748 19.6751 22.6665 16.0001 22.6665ZM16.0001 7.6665C14.9057 7.6665 13.8221 7.88205 12.8111 8.30084C11.8 8.71963 10.8813 9.33346 10.1075 10.1073C8.54472 11.6701 7.66675 13.7897 7.66675 15.9998C7.66675 18.21 8.54472 20.3296 10.1075 21.8924C10.8813 22.6662 11.8 23.28 12.8111 23.6988C13.8221 24.1176 14.9057 24.3332 16.0001 24.3332C18.2102 24.3332 20.3298 23.4552 21.8926 21.8924C23.4554 20.3296 24.3334 18.21 24.3334 15.9998C24.3334 14.9055 24.1179 13.8219 23.6991 12.8108C23.2803 11.7998 22.6665 10.8811 21.8926 10.1073C21.1188 9.33346 20.2002 8.71963 19.1891 8.30084C18.1781 7.88205 17.0944 7.6665 16.0001 7.6665ZM15.1667 20.1665H16.8334V15.1665H15.1667V20.1665Z" fill="#FCFDFF"/>
</svg>
