<svg width="24" height="24" viewBox="0 0 24 24" fill="none" xmlns="http://www.w3.org/2000/svg">
<g clip-path="url(#clip0_1583_585)">
<path d="M6.85698 2.44497C8.11998 3.36597 9.07598 4.65997 9.88999 5.84897L10.528 6.78697C10.7261 7.07653 10.8168 7.42625 10.7843 7.7756C10.7517 8.12494 10.5981 8.45193 10.35 8.69997L8.99398 10.056L9.13698 10.36C9.48698 11.069 10.091 12.09 11 13C11.6277 13.6182 12.3353 14.1496 13.104 14.58L13.471 14.777L13.798 14.939L13.944 15.006L15.299 13.65C15.548 13.4013 15.8764 13.2479 16.227 13.2167C16.5775 13.1854 16.9279 13.2783 17.217 13.479L18.231 14.182C19.383 14.992 20.586 15.915 21.521 17.113C21.6826 17.3209 21.7854 17.5684 21.8187 17.8296C21.8519 18.0908 21.8144 18.3562 21.71 18.598C20.873 20.551 18.755 22.214 16.552 22.132L16.252 22.116L16.019 22.096L15.761 22.066L15.48 22.028L15.175 21.977L14.849 21.913L14.503 21.836L14.137 21.742L13.752 21.632L13.35 21.502C11.504 20.876 9.16098 19.646 6.75698 17.242C4.35398 14.839 3.12398 12.496 2.49798 10.65L2.36798 10.248L2.25798 9.86297L2.16398 9.49697L2.08598 9.15097C2.06346 9.04261 2.04245 8.93393 2.02298 8.82497L1.97298 8.51997L1.93298 8.23897L1.90398 7.98097L1.88398 7.74797L1.86798 7.44797C1.78698 5.25197 3.46798 3.11897 5.41198 2.28597C5.64596 2.18494 5.90219 2.14647 6.15551 2.17435C6.40884 2.20222 6.65057 2.29548 6.85698 2.44497ZM5.92998 4.25297C4.85798 4.81297 3.81998 6.09297 3.86698 7.37397L3.88698 7.70197L3.90898 7.90697L3.93798 8.13697L3.97798 8.38997L4.02898 8.66697L4.09398 8.96497L4.17398 9.28497L4.26998 9.62397L4.38398 9.98197C4.42598 10.104 4.46998 10.229 4.51798 10.357L4.67198 10.749L4.84798 11.156C5.47598 12.538 6.49998 14.156 8.17298 15.828C9.84498 17.5 11.463 18.525 12.845 19.153L13.252 19.329L13.644 19.483C13.772 19.531 13.897 19.575 14.019 19.617L14.377 19.731L14.717 19.827L15.036 19.907L15.334 19.972L15.611 20.023L15.865 20.063L16.095 20.093L16.299 20.113L16.627 20.133C17.891 20.18 19.181 19.148 19.739 18.09C19.027 17.255 18.143 16.57 17.168 15.88L16.42 15.359L16.23 15.558L15.824 16.001L15.609 16.227C15.023 16.824 14.339 17.331 13.519 17L13.293 16.905L13.017 16.781L12.863 16.708L12.525 16.539L12.154 16.339C11.2151 15.8165 10.3516 15.1689 9.58698 14.414C8.83207 13.6494 8.18448 12.7858 7.66198 11.847L7.46198 11.477L7.29198 11.138L7.09598 10.708L6.99998 10.48C6.68898 9.71097 7.11698 9.06197 7.66398 8.49997L7.88798 8.27997L8.44498 7.76697L8.64498 7.57697L8.17198 6.88397C7.46898 5.86397 6.78198 4.94397 5.92898 4.25197L5.92998 4.25297ZM14.993 6.03997L15.109 6.05297C15.8369 6.18137 16.5055 6.53691 17.0189 7.06865C17.5323 7.60039 17.8642 8.28101 17.967 9.01297C18.0036 9.26615 17.9419 9.52375 17.7944 9.73277C17.6469 9.9418 17.4249 10.0864 17.1741 10.1367C16.9233 10.187 16.6627 10.1393 16.446 10.0034C16.2293 9.8675 16.0729 9.65369 16.009 9.40597L15.986 9.29097C15.9458 9.00407 15.8233 8.73496 15.6334 8.51616C15.4435 8.29735 15.1944 8.13821 14.916 8.05797L14.761 8.02297C14.5099 7.97847 14.2853 7.83971 14.1331 7.63508C13.9809 7.43045 13.9126 7.17541 13.9423 6.92212C13.9719 6.66883 14.0972 6.43643 14.2925 6.27245C14.4878 6.10848 14.7384 6.02531 14.993 6.03997ZM15 2.99997C16.5913 2.99997 18.1174 3.63211 19.2426 4.75733C20.3678 5.88255 21 7.40867 21 8.99997C20.9997 9.25485 20.9021 9.5 20.7271 9.68534C20.5522 9.87068 20.313 9.98221 20.0586 9.99714C19.8041 10.0121 19.5536 9.9293 19.3582 9.76571C19.1627 9.60212 19.0371 9.37007 19.007 9.11697L19 8.99997C19.0004 7.98439 18.6142 7.00673 17.92 6.2655C17.2257 5.52426 16.2754 5.07502 15.262 5.00897L15 4.99997C14.7348 4.99997 14.4804 4.89461 14.2929 4.70708C14.1053 4.51954 14 4.26519 14 3.99997C14 3.73475 14.1053 3.4804 14.2929 3.29286C14.4804 3.10533 14.7348 2.99997 15 2.99997Z" fill="#7EAD7B"/>
</g>
<defs>
<clipPath id="clip0_1583_585">
<rect width="24" height="24" fill="white"/>
</clipPath>
</defs>
</svg>
