<svg width="30" height="30" viewBox="0 0 30 30" fill="none" xmlns="http://www.w3.org/2000/svg">
<circle cx="15" cy="15" r="15" fill="#7EAD7B"/>
<path d="M20.1538 8.84615H18.0215L16.9731 7.27385C16.9169 7.18966 16.8408 7.12062 16.7516 7.07285C16.6624 7.02508 16.5627 7.00006 16.4615 7H11.5385C11.4373 7.00006 11.3376 7.02508 11.2484 7.07285C11.1592 7.12062 11.0831 7.18966 11.0269 7.27385L9.97769 8.84615H7.84615C7.35652 8.84615 6.88695 9.04066 6.54073 9.38688C6.19451 9.7331 6 10.2027 6 10.6923V19.3077C6 19.7973 6.19451 20.2669 6.54073 20.6131C6.88695 20.9593 7.35652 21.1538 7.84615 21.1538H20.1538C20.6435 21.1538 21.1131 20.9593 21.4593 20.6131C21.8055 20.2669 22 19.7973 22 19.3077V10.6923C22 10.2027 21.8055 9.7331 21.4593 9.38688C21.1131 9.04066 20.6435 8.84615 20.1538 8.84615ZM20.7692 19.3077C20.7692 19.4709 20.7044 19.6274 20.589 19.7428C20.4736 19.8582 20.3171 19.9231 20.1538 19.9231H7.84615C7.68294 19.9231 7.52642 19.8582 7.41101 19.7428C7.2956 19.6274 7.23077 19.4709 7.23077 19.3077V10.6923C7.23077 10.5291 7.2956 10.3726 7.41101 10.2572C7.52642 10.1418 7.68294 10.0769 7.84615 10.0769H10.3077C10.409 10.077 10.5088 10.052 10.5982 10.0043C10.6876 9.95648 10.7638 9.88738 10.82 9.80308L11.8677 8.23077H16.1315L17.18 9.80308C17.2362 9.88738 17.3124 9.95648 17.4018 10.0043C17.4912 10.052 17.591 10.077 17.6923 10.0769H20.1538C20.3171 10.0769 20.4736 10.1418 20.589 10.2572C20.7044 10.3726 20.7692 10.5291 20.7692 10.6923V19.3077ZM14 11.3077C13.3306 11.3077 12.6762 11.5062 12.1196 11.8781C11.563 12.25 11.1292 12.7786 10.873 13.3971C10.6168 14.0155 10.5498 14.6961 10.6804 15.3526C10.811 16.0092 11.1334 16.6122 11.6067 17.0856C12.0801 17.5589 12.6831 17.8813 13.3397 18.0119C13.9962 18.1425 14.6768 18.0755 15.2952 17.8193C15.9137 17.5631 16.4423 17.1293 16.8142 16.5727C17.1861 16.0161 17.3846 15.3617 17.3846 14.6923C17.3836 13.795 17.0267 12.9347 16.3922 12.3001C15.7576 11.6656 14.8973 11.3087 14 11.3077ZM14 16.8462C13.574 16.8462 13.1576 16.7198 12.8034 16.4832C12.4492 16.2465 12.1731 15.9101 12.0101 15.5165C11.8471 15.123 11.8044 14.6899 11.8875 14.2721C11.9706 13.8543 12.1758 13.4705 12.477 13.1693C12.7782 12.8681 13.162 12.663 13.5798 12.5798C13.9976 12.4967 14.4307 12.5394 14.8242 12.7024C15.2178 12.8654 15.5542 13.1415 15.7909 13.4957C16.0275 13.8499 16.1538 14.2663 16.1538 14.6923C16.1538 15.2635 15.9269 15.8114 15.523 16.2153C15.1191 16.6192 14.5712 16.8462 14 16.8462Z" fill="#EFF0FE"/>
</svg>
