<svg width="32" height="32" viewBox="0 0 32 32" fill="none" xmlns="http://www.w3.org/2000/svg">
<rect width="32" height="32" rx="16" fill="#7EAD7B"/>
<path d="M15.9999 23.5C17.664 23.4998 19.2807 22.9461 20.5956 21.9261C21.9105 20.9062 22.8489 19.4779 23.2629 17.8662C23.677 16.2544 23.5432 14.5507 22.8828 13.0233C22.2223 11.4959 21.0726 10.2315 19.6147 9.42921C18.1567 8.62692 16.4734 8.33229 14.8297 8.5917C13.1859 8.8511 11.6751 9.64982 10.5351 10.8621C9.39511 12.0744 8.69066 13.6314 8.53267 15.2879C8.37467 16.9445 8.77211 18.6066 9.6624 20.0125L8.4999 23.5L11.9874 22.3375C13.187 23.0989 14.579 23.5022 15.9999 23.5Z" stroke="#FCFDFF" stroke-width="2" stroke-linecap="round" stroke-linejoin="round"/>
</svg>
