<svg width="32" height="32" viewBox="0 0 32 32" fill="none" xmlns="http://www.w3.org/2000/svg">
<rect width="32" height="32" rx="16" fill="#7EAD7B"/>
<path d="M18.1917 10.5917C18.3417 11.1317 18.4174 11.6896 18.4167 12.25C18.4167 15.65 15.65 18.4167 12.25 18.4167C11.6833 18.4167 11.125 18.3417 10.5917 18.1917C11.029 19.2675 11.7772 20.1886 12.7405 20.8372C13.7038 21.4859 14.8386 21.8327 16 21.8333C19.2167 21.8333 21.8333 19.2167 21.8333 16C21.8333 13.5583 20.325 11.4583 18.1917 10.5917ZM16 8.5C17.4834 8.5 18.9334 8.93987 20.1668 9.76398C21.4001 10.5881 22.3614 11.7594 22.9291 13.1299C23.4968 14.5003 23.6453 16.0083 23.3559 17.4632C23.0665 18.918 22.3522 20.2544 21.3033 21.3033C20.2544 22.3522 18.918 23.0665 17.4632 23.3559C16.0083 23.6453 14.5003 23.4968 13.1299 22.9291C11.7594 22.3614 10.5881 21.4001 9.76397 20.1668C8.93986 18.9334 8.5 17.4834 8.5 16C8.5 15.6167 8.53333 15.2333 8.58333 14.8667C8.99977 15.4505 9.54995 15.9261 10.1879 16.2538C10.8258 16.5814 11.5329 16.7516 12.25 16.75C13.204 16.75 14.1333 16.447 14.904 15.8847C15.6747 15.3224 16.2468 14.5298 16.5379 13.6213C16.829 12.7128 16.824 11.7354 16.5236 10.8299C16.2232 9.9244 15.643 9.13773 14.8667 8.58333C15.2333 8.53333 15.6167 8.5 16 8.5Z" fill="#FCFDFF"/>
</svg>
