<svg width="24" height="24" viewBox="0 0 24 24" fill="none" xmlns="http://www.w3.org/2000/svg">
<circle cx="12" cy="12" r="11.5" stroke="#999999"/>
<path d="M9.03328 6.73352C8.9224 6.73352 8.8114 6.77576 8.7269 6.86047L7.86023 7.72714C7.6908 7.89657 7.6908 8.1709 7.86023 8.3399L11.0205 11.5002L7.86023 14.6605C7.6908 14.8299 7.6908 15.1042 7.86023 15.2732L8.7269 16.1399C8.89633 16.3093 9.17066 16.3093 9.33966 16.1399L12.4999 12.9796L15.6602 16.1399C15.8292 16.3093 16.104 16.3093 16.273 16.1399L17.1397 15.2732C17.3091 15.1038 17.3091 14.8295 17.1397 14.6605L13.9794 11.5002L17.1397 8.3399C17.3091 8.1709 17.3091 7.89614 17.1397 7.72714L16.273 6.86047C16.1036 6.69104 15.8292 6.69104 15.6602 6.86047L12.4999 10.0208L9.33966 6.86047C9.25494 6.77576 9.14416 6.73352 9.03328 6.73352Z" fill="#999999"/>
</svg>
