<svg width="32" height="32" viewBox="0 0 32 32" fill="none" xmlns="http://www.w3.org/2000/svg">
<rect width="32" height="32" rx="16" fill="#7EAD7B"/>
<path d="M16 24.3332C14.8611 24.3332 13.7847 24.1143 12.7708 23.6765C11.7569 23.2387 10.8717 22.6415 10.115 21.8848C9.35833 21.1282 8.76111 20.2429 8.32333 19.229C7.88556 18.2151 7.66667 17.1387 7.66667 15.9998C7.66667 14.8471 7.88556 13.7673 8.32333 12.7607C8.76111 11.754 9.35833 10.8721 10.115 10.1148C10.8717 9.35762 11.7569 8.76039 12.7708 8.32317C13.7847 7.88595 14.8611 7.66706 16 7.6665C17.1528 7.6665 18.2328 7.88539 19.24 8.32317C20.2472 8.76095 21.1289 9.35817 21.885 10.1148C22.6411 10.8715 23.2383 11.7534 23.6767 12.7607C24.115 13.7679 24.3339 14.8476 24.3333 15.9998C24.3333 17.1387 24.1144 18.2151 23.6767 19.229C23.2389 20.2429 22.6417 21.1284 21.885 21.8857C21.1283 22.6429 20.2464 23.2401 19.2392 23.6773C18.2319 24.1146 17.1522 24.3332 16 24.3332ZM16 22.6248C16.3611 22.1248 16.6736 21.604 16.9375 21.0623C17.2014 20.5207 17.4167 19.9443 17.5833 19.3332H14.4167C14.5833 19.9443 14.7986 20.5207 15.0625 21.0623C15.3264 21.604 15.6389 22.1248 16 22.6248ZM13.8333 22.2915C13.5833 21.8332 13.3647 21.3573 13.1775 20.864C12.9903 20.3707 12.8339 19.8604 12.7083 19.3332H10.25C10.6528 20.0276 11.1564 20.6318 11.7608 21.1457C12.3653 21.6596 13.0561 22.0415 13.8333 22.2915ZM18.1667 22.2915C18.9444 22.0415 19.6356 21.6596 20.24 21.1457C20.8444 20.6318 21.3478 20.0276 21.75 19.3332H19.2917C19.1667 19.8609 19.0106 20.3715 18.8233 20.8648C18.6361 21.3582 18.4172 21.8337 18.1667 22.2915ZM9.54167 17.6665H12.375C12.3333 17.3887 12.3022 17.1146 12.2817 16.844C12.2611 16.5734 12.2506 16.2921 12.25 15.9998C12.2494 15.7076 12.26 15.4265 12.2817 15.1565C12.3033 14.8865 12.3344 14.6121 12.375 14.3332H9.54167C9.47222 14.6109 9.42028 14.8854 9.38583 15.1565C9.35139 15.4276 9.33389 15.7087 9.33333 15.9998C9.33278 16.2909 9.35028 16.5723 9.38583 16.844C9.42139 17.1157 9.47333 17.3898 9.54167 17.6665ZM14.0417 17.6665H17.9583C18 17.3887 18.0314 17.1146 18.0525 16.844C18.0736 16.5734 18.0839 16.2921 18.0833 15.9998C18.0828 15.7076 18.0722 15.4265 18.0517 15.1565C18.0311 14.8865 18 14.6121 17.9583 14.3332H14.0417C14 14.6109 13.9689 14.8854 13.9483 15.1565C13.9278 15.4276 13.9172 15.7087 13.9167 15.9998C13.9161 16.2909 13.9267 16.5723 13.9483 16.844C13.97 17.1157 14.0011 17.3898 14.0417 17.6665ZM19.625 17.6665H22.4583C22.5278 17.3887 22.58 17.1146 22.615 16.844C22.65 16.5734 22.6672 16.2921 22.6667 15.9998C22.6661 15.7076 22.6489 15.4265 22.615 15.1565C22.5811 14.8865 22.5289 14.6121 22.4583 14.3332H19.625C19.6667 14.6109 19.6981 14.8854 19.7192 15.1565C19.7403 15.4276 19.7506 15.7087 19.75 15.9998C19.7494 16.2909 19.7389 16.5723 19.7183 16.844C19.6978 17.1157 19.6667 17.3898 19.625 17.6665ZM19.2917 12.6665H21.75C21.3472 11.9721 20.8439 11.3679 20.24 10.854C19.6361 10.3401 18.945 9.95817 18.1667 9.70817C18.4167 10.1665 18.6356 10.6423 18.8233 11.1357C19.0111 11.629 19.1672 12.1393 19.2917 12.6665ZM14.4167 12.6665H17.5833C17.4167 12.0554 17.2014 11.479 16.9375 10.9373C16.6736 10.3957 16.3611 9.87484 16 9.37484C15.6389 9.87484 15.3264 10.3957 15.0625 10.9373C14.7986 11.479 14.5833 12.0554 14.4167 12.6665ZM10.25 12.6665H12.7083C12.8333 12.1387 12.9897 11.6282 13.1775 11.1348C13.3653 10.6415 13.5839 10.1659 13.8333 9.70817C13.0556 9.95817 12.3644 10.3401 11.76 10.854C11.1556 11.3679 10.6522 11.9721 10.25 12.6665Z" fill="#FCFDFF"/>
</svg>
