<svg width="32" height="32" viewBox="0 0 32 32" fill="none" xmlns="http://www.w3.org/2000/svg">
<rect width="32" height="32" rx="16" fill="#7EAD7B"/>
<path d="M21.8333 10.1667H16.8333C16.375 10.1667 16 9.79167 16 9.33333C16 8.875 16.375 8.5 16.8333 8.5H21.8333C22.75 8.5 23.5 9.25 23.5 10.1667V21.8333C23.5 22.75 22.75 23.5 21.8333 23.5H16.8333C16.375 23.5 16 23.125 16 22.6667C16 22.2083 16.375 21.8333 16.8333 21.8333H21.8333V10.1667Z" fill="#FCFDFF"/>
<path d="M8.79167 15.7081L11.1167 13.3831C11.1746 13.3236 11.249 13.2827 11.3304 13.2657C11.4117 13.2487 11.4963 13.2563 11.5732 13.2876C11.6502 13.319 11.716 13.3725 11.7624 13.4415C11.8087 13.5105 11.8334 13.5917 11.8333 13.6748V15.1665H17.6667C18.125 15.1665 18.5 15.5415 18.5 15.9998C18.5 16.4581 18.125 16.8331 17.6667 16.8331H11.8333V18.3248C11.8333 18.6998 11.3833 18.8831 11.125 18.6165L8.8 16.2915C8.63333 16.1331 8.63333 15.8665 8.79167 15.7081Z" fill="#FCFDFF"/>
</svg>
