<svg width="32" height="32" viewBox="0 0 32 32" fill="none" xmlns="http://www.w3.org/2000/svg">
<rect width="32" height="32" rx="16" fill="#7EAD7B"/>
<path d="M9.75 16.625C10.0815 16.625 10.3995 16.4933 10.6339 16.2589C10.8683 16.0245 11 15.7065 11 15.375C11 15.0435 10.8683 14.7255 10.6339 14.4911C10.3995 14.2567 10.0815 14.125 9.75 14.125C9.41848 14.125 9.10054 14.2567 8.86612 14.4911C8.6317 14.7255 8.5 15.0435 8.5 15.375C8.5 15.7065 8.6317 16.0245 8.86612 16.2589C9.10054 16.4933 9.41848 16.625 9.75 16.625Z" fill="#FCFDFF"/>
<path fill-rule="evenodd" clip-rule="evenodd" d="M11.625 9.75C13.575 9.75 15.3 10.7425 16.3125 12.25H22.8875C23.084 12.2499 23.2777 12.2962 23.453 12.385C23.6283 12.4739 23.7801 12.6027 23.8963 12.7613L25.7588 15.3112C25.909 15.5143 25.9934 15.7585 26.0008 16.011C26.0082 16.2635 25.9381 16.5122 25.8 16.7238L24.225 19.1613C24.1341 19.3022 24.0157 19.4233 23.8769 19.5173C23.7381 19.6114 23.5817 19.6765 23.4171 19.7087C23.2526 19.7409 23.0832 19.7396 22.9192 19.7048C22.7551 19.67 22.5998 19.6025 22.4625 19.5063L21.025 18.5L19.5375 19.515C19.3295 19.6574 19.0833 19.7336 18.8313 19.7336C18.5792 19.7336 18.333 19.6574 18.125 19.515L16.6375 18.5H16.315C15.305 20.0125 13.59 21 11.6275 21C10.1357 21 8.70492 20.4074 7.65002 19.3525C6.59513 18.2976 6.0025 16.8668 6.0025 15.375C6.0025 13.8832 6.59513 12.4524 7.65002 11.3975C8.70492 10.3426 10.1357 9.75 11.6275 9.75H11.625ZM16.3125 17.25C16.1069 17.2498 15.9044 17.3004 15.723 17.3972C15.5416 17.494 15.3868 17.6341 15.2725 17.805C14.8734 18.4042 14.3327 18.8957 13.6981 19.2359C13.0636 19.576 12.355 19.7544 11.635 19.755C9.2225 19.755 7.26 17.7925 7.26 15.38C7.26 12.9675 9.2225 11.005 11.635 11.005C13.1475 11.005 14.485 11.775 15.2725 12.955C15.505 13.3013 15.895 13.51 16.3125 13.51H22.8875L24.75 16.06L23.175 18.4975L21.7375 17.4913C21.5289 17.3452 21.2806 17.2663 21.026 17.2652C20.7713 17.2641 20.5224 17.3408 20.3125 17.485L18.825 18.5L17.3375 17.485C17.1292 17.3423 16.8825 17.266 16.63 17.2662H16.3075L16.3125 17.25Z" fill="#FCFDFF"/>
</svg>
