<svg width="32" height="32" viewBox="0 0 32 32" fill="none" xmlns="http://www.w3.org/2000/svg">
<rect width="32" height="32" rx="16" fill="#7EAD7B"/>
<path d="M10.875 20.2498C11.5833 19.7082 12.375 19.2812 13.25 18.969C14.125 18.6568 15.0417 18.5004 16 18.4998C16.9583 18.4993 17.875 18.6557 18.75 18.969C19.625 19.2823 20.4167 19.7093 21.125 20.2498C21.6111 19.6804 21.9897 19.0346 22.2608 18.3123C22.5319 17.5901 22.6672 16.8193 22.6667 15.9998C22.6667 14.1526 22.0175 12.5796 20.7192 11.2807C19.4208 9.98178 17.8478 9.33262 16 9.33317C14.1522 9.33373 12.5792 9.98317 11.2808 11.2815C9.9825 12.5798 9.33333 14.1526 9.33333 15.9998C9.33333 16.8193 9.46889 17.5901 9.74 18.3123C10.0111 19.0346 10.3894 19.6804 10.875 20.2498ZM16 16.8332C15.1806 16.8332 14.4894 16.5521 13.9267 15.9898C13.3639 15.4276 13.0828 14.7365 13.0833 13.9165C13.0839 13.0965 13.3653 12.4054 13.9275 11.8432C14.4897 11.2809 15.1806 10.9998 16 10.9998C16.8194 10.9998 17.5106 11.2812 18.0733 11.844C18.6361 12.4068 18.9172 13.0976 18.9167 13.9165C18.9161 14.7354 18.635 15.4265 18.0733 15.9898C17.5117 16.5532 16.8206 16.8343 16 16.8332ZM16 24.3332C14.8472 24.3332 13.7639 24.1143 12.75 23.6765C11.7361 23.2387 10.8542 22.6451 10.1042 21.8957C9.35417 21.1462 8.76056 20.2643 8.32333 19.2498C7.88611 18.2354 7.66722 17.1521 7.66667 15.9998C7.66611 14.8476 7.885 13.7643 8.32333 12.7498C8.76167 11.7354 9.35528 10.8534 10.1042 10.104C10.8531 9.35456 11.735 8.76095 12.75 8.32317C13.765 7.88539 14.8483 7.6665 16 7.6665C17.1517 7.6665 18.235 7.88539 19.25 8.32317C20.265 8.76095 21.1469 9.35456 21.8958 10.104C22.6447 10.8534 23.2386 11.7354 23.6775 12.7498C24.1164 13.7643 24.335 14.8476 24.3333 15.9998C24.3317 17.1521 24.1128 18.2354 23.6767 19.2498C23.2406 20.2643 22.6469 21.1462 21.8958 21.8957C21.1447 22.6451 20.2628 23.239 19.25 23.6773C18.2372 24.1157 17.1539 24.3343 16 24.3332Z" fill="#FCFDFF"/>
</svg>
