<svg width="32" height="32" viewBox="0 0 32 32" fill="none" xmlns="http://www.w3.org/2000/svg">
<rect width="32" height="32" rx="16" fill="#7EAD7B"/>
<path d="M22.5833 16.55C22.4497 16.3979 22.376 16.2024 22.376 16C22.376 15.7976 22.4497 15.6021 22.5833 15.45L23.65 14.25C23.7675 14.1189 23.8405 13.9539 23.8585 13.7787C23.8765 13.6036 23.8385 13.4272 23.75 13.275L22.0833 10.3917C21.9957 10.2396 21.8624 10.1191 21.7023 10.0472C21.5422 9.97541 21.3635 9.95596 21.1917 9.99166L19.625 10.3083C19.4256 10.3495 19.2181 10.3163 19.0416 10.215C18.865 10.1137 18.7317 9.95123 18.6667 9.75833L18.1583 8.23333C18.1024 8.06781 17.9959 7.92405 17.8539 7.82236C17.7118 7.72068 17.5414 7.66621 17.3667 7.66666H14.0333C13.8516 7.65718 13.6718 7.70743 13.5213 7.80976C13.3708 7.91208 13.258 8.06084 13.2 8.23333L12.7333 9.75833C12.6683 9.95123 12.535 10.1137 12.3584 10.215C12.1819 10.3163 11.9743 10.3495 11.775 10.3083L10.1667 9.99166C10.0038 9.96864 9.83774 9.99435 9.68945 10.0655C9.54116 10.1367 9.41725 10.2502 9.33333 10.3917L7.66666 13.275C7.57596 13.4255 7.53518 13.6009 7.55015 13.776C7.56511 13.9511 7.63506 14.117 7.74999 14.25L8.80833 15.45C8.94193 15.6021 9.01561 15.7976 9.01561 16C9.01561 16.2024 8.94193 16.3979 8.80833 16.55L7.74999 17.75C7.63506 17.883 7.56511 18.0489 7.55015 18.224C7.53518 18.3991 7.57596 18.5745 7.66666 18.725L9.33333 21.6083C9.42091 21.7604 9.55426 21.8809 9.71437 21.9528C9.87448 22.0246 10.0532 22.044 10.225 22.0083L11.7917 21.6917C11.991 21.6505 12.1985 21.6837 12.3751 21.785C12.5516 21.8863 12.685 22.0488 12.75 22.2417L13.2583 23.7667C13.3163 23.9391 13.4292 24.0879 13.5796 24.1902C13.7301 24.2926 13.9099 24.3428 14.0917 24.3333H17.425C17.5997 24.3338 17.7701 24.2793 17.9122 24.1776C18.0542 24.0759 18.1608 23.9322 18.2167 23.7667L18.725 22.2417C18.79 22.0488 18.9234 21.8863 19.0999 21.785C19.2764 21.6837 19.484 21.6505 19.6833 21.6917L21.25 22.0083C21.4218 22.044 21.6005 22.0246 21.7606 21.9528C21.9207 21.8809 22.0541 21.7604 22.1417 21.6083L23.8083 18.725C23.8968 18.5728 23.9348 18.3964 23.9168 18.2212C23.8989 18.0461 23.8259 17.8811 23.7083 17.75L22.5833 16.55ZM21.3417 17.6667L22.0083 18.4167L20.9417 20.2667L19.9583 20.0667C19.3581 19.944 18.7338 20.0459 18.2038 20.3532C17.6738 20.6604 17.2751 21.1515 17.0833 21.7333L16.7667 22.6667H14.6333L14.3333 21.7167C14.1415 21.1349 13.7428 20.6437 13.2128 20.3365C12.6829 20.0293 12.0585 19.9273 11.4583 20.05L10.475 20.25L9.39166 18.4083L10.0583 17.6583C10.4683 17.2 10.6949 16.6066 10.6949 15.9917C10.6949 15.3767 10.4683 14.7833 10.0583 14.325L9.39166 13.575L10.4583 11.7417L11.4417 11.9417C12.0418 12.0643 12.6662 11.9624 13.1962 11.6552C13.7261 11.3479 14.1249 10.8568 14.3167 10.275L14.6333 9.33333H16.7667L17.0833 10.2833C17.2751 10.8651 17.6738 11.3563 18.2038 11.6635C18.7338 11.9707 19.3581 12.0727 19.9583 11.95L20.9417 11.75L22.0083 13.6L21.3417 14.35C20.9363 14.8073 20.7125 15.3972 20.7125 16.0083C20.7125 16.6194 20.9363 17.2094 21.3417 17.6667ZM15.7 12.6667C15.0407 12.6667 14.3963 12.8622 13.8481 13.2284C13.2999 13.5947 12.8727 14.1153 12.6204 14.7244C12.3681 15.3335 12.3021 16.0037 12.4307 16.6503C12.5593 17.2969 12.8768 17.8908 13.343 18.357C13.8091 18.8232 14.4031 19.1407 15.0497 19.2693C15.6963 19.3979 16.3665 19.3319 16.9756 19.0796C17.5847 18.8273 18.1053 18.4001 18.4716 17.8519C18.8378 17.3037 19.0333 16.6593 19.0333 16C19.0333 15.1159 18.6821 14.2681 18.057 13.643C17.4319 13.0179 16.5841 12.6667 15.7 12.6667ZM15.7 17.6667C15.3704 17.6667 15.0481 17.5689 14.774 17.3858C14.5 17.2026 14.2863 16.9423 14.1602 16.6378C14.034 16.3333 14.001 15.9981 14.0654 15.6748C14.1297 15.3515 14.2884 15.0546 14.5215 14.8215C14.7546 14.5884 15.0515 14.4297 15.3748 14.3654C15.6981 14.301 16.0333 14.334 16.3378 14.4602C16.6423 14.5863 16.9026 14.8 17.0858 15.074C17.2689 15.3481 17.3667 15.6704 17.3667 16C17.3667 16.442 17.1911 16.8659 16.8785 17.1785C16.5659 17.4911 16.142 17.6667 15.7 17.6667Z" fill="#FCFDFF"/>
</svg>
